<svg width="21" height="19" viewBox="0 0 21 19" fill="none" xmlns="http://www.w3.org/2000/svg">
<path fill-rule="evenodd" clip-rule="evenodd" d="M11.9602 1.64997C11.3009 0.543759 9.69892 0.543763 9.03963 1.64997L0.721794 15.6061C0.046426 16.7392 0.862934 18.1764 2.1821 18.1764H18.8178C20.137 18.1764 20.9535 16.7392 20.2781 15.6061L11.9602 1.64997ZM9.89863 2.16194C10.1701 1.70644 10.8298 1.70644 11.1012 2.16193L19.4191 16.118C19.6972 16.5846 19.361 17.1764 18.8178 17.1764H2.1821C1.63892 17.1764 1.30271 16.5846 1.5808 16.118L9.89863 2.16194ZM9.55756 6.45696C9.537 5.92232 9.96486 5.47768 10.4999 5.47768C11.0349 5.47768 11.4628 5.92232 11.4422 6.45696L11.2268 12.0582C11.2118 12.4488 10.8908 12.7577 10.4999 12.7577C10.109 12.7577 9.78802 12.4488 9.773 12.0582L9.55756 6.45696ZM11.5497 14.8427C11.5497 15.4226 11.0796 15.8927 10.4997 15.8927C9.9198 15.8927 9.44969 15.4226 9.44969 14.8427C9.44969 14.2628 9.9198 13.7927 10.4997 13.7927C11.0796 13.7927 11.5497 14.2628 11.5497 14.8427Z" fill="#EB5757"/>
</svg>
