<svg width="47" height="47" viewBox="0 0 47 47" fill="none" xmlns="http://www.w3.org/2000/svg">
<path id="Vector" d="M23.5 47C10.5418 47 0 36.4582 0 23.5C0 10.5418 10.5418 0 23.5 0C27.8897 0 32.1713 1.21825 35.8829 3.52359C36.5315 3.9261 36.7303 4.77849 36.3278 5.42724C35.9246 6.0759 35.0722 6.27612 34.4242 5.87217C31.1511 3.83891 27.3735 2.76478 23.5 2.76478C12.0664 2.76478 2.76468 12.0669 2.76468 23.5001C2.76468 34.9333 12.0664 44.2353 23.5 44.2353C34.9332 44.2353 44.2353 34.9332 44.2353 23.5C44.2353 21.2019 43.8623 18.9454 43.1266 16.7935C42.8796 16.0713 43.2656 15.2851 43.9877 15.0382C44.7113 14.7926 45.4961 15.1771 45.743 15.8993C46.5768 18.34 47.0001 20.8974 47.0001 23.5001C47 36.4582 36.4581 47 23.5 47Z" fill="#6FCF97"/>
<path id="Vector_2" d="M23.4998 31.4726C23.1491 31.4726 22.81 31.3394 22.5534 31.0975L11.4946 20.709C10.9381 20.1864 10.9107 19.3115 11.4334 18.755C11.9562 18.1992 12.8309 18.1704 13.3874 18.6946L23.3825 28.0838L41.5445 6.52334C42.0356 5.93944 42.9081 5.8646 43.492 6.35698C44.0759 6.84875 44.1508 7.72059 43.6584 8.30449L24.5567 30.9809C24.3126 31.271 23.9591 31.4482 23.5804 31.4706C23.5538 31.4719 23.5264 31.4726 23.4998 31.4726Z" fill="#6FCF97"/>
</svg>
