<svg width="22" height="22" viewBox="0 0 22 22" fill="none" xmlns="http://www.w3.org/2000/svg">
<g opacity="0.6">
<path fill-rule="evenodd" clip-rule="evenodd" d="M10.0636 4.60297C10.3565 4.89586 10.3565 5.37074 10.0636 5.66363L5.47729 10.25H18.3333C18.7475 10.25 19.0833 10.5858 19.0833 11C19.0833 11.4142 18.7475 11.75 18.3333 11.75H5.47729L10.0636 16.3363C10.3565 16.6292 10.3565 17.1041 10.0636 17.397C9.77073 17.6899 9.29586 17.6899 9.00296 17.397L3.1363 11.5303C2.99564 11.3896 2.91663 11.1989 2.91663 11C2.91663 10.8011 2.99564 10.6103 3.1363 10.4696L9.00296 4.60297C9.29586 4.31008 9.77073 4.31008 10.0636 4.60297Z" fill="#25252A"/>
</g>
</svg>
