<svg width="27" height="27" viewBox="0 0 27 27" fill="none" xmlns="http://www.w3.org/2000/svg">
<path d="M24.8757 7.2766L16.4382 2.63597C16.3136 2.56743 16.1737 2.53149 16.0315 2.53149C15.8893 2.53149 15.7494 2.56743 15.6248 2.63597L7.18729 7.2766C7.055 7.34944 6.94468 7.45644 6.86785 7.58645C6.79102 7.71646 6.75049 7.86471 6.75049 8.01572C6.75049 8.16674 6.79102 8.31499 6.86785 8.445C6.94468 8.57501 7.055 8.68201 7.18729 8.75485L15.1877 13.155V22.1992L12.6261 20.7901L11.8127 22.2675L15.6248 24.3642C15.7493 24.4329 15.8892 24.4689 16.0315 24.4689C16.1737 24.4689 16.3136 24.4329 16.4382 24.3642L24.8757 19.7236C25.008 19.6508 25.1184 19.5438 25.1952 19.4138C25.2721 19.2838 25.3127 19.1355 25.3127 18.9845V8.01572C25.3127 7.86468 25.2721 7.71642 25.1952 7.58641C25.1184 7.45639 25.008 7.3494 24.8757 7.2766ZM16.0315 4.33866L22.7182 8.01572L16.0315 11.6928L9.34476 8.01572L16.0315 4.33866ZM23.6252 18.4858L16.8752 22.1983V13.1542L23.6252 9.44166V18.4858Z" fill="#25252A"/>
<path d="M8.4375 13.5H1.6875V11.8125H8.4375V13.5ZM10.125 20.25H3.375V18.5625H10.125V20.25ZM11.8125 16.875H5.0625V15.1875H11.8125V16.875Z" fill="#25252A"/>
</svg>
