<svg width="27" height="27" viewBox="0 0 27 27" fill="none" xmlns="http://www.w3.org/2000/svg">
<path d="M3.375 13.5H13.5V15.1875H3.375V13.5ZM1.6875 9.28125H10.125V10.9688H1.6875V9.28125Z" fill="#25252A"/>
<path d="M25.2441 14.0113L22.7128 8.10506C22.6479 7.95325 22.5398 7.82387 22.4019 7.73297C22.2641 7.64207 22.1026 7.59366 21.9374 7.59375H19.4062V5.90625C19.4062 5.68247 19.3173 5.46786 19.1591 5.30963C19.0008 5.1514 18.7862 5.0625 18.5624 5.0625H5.06245V6.75H17.7187V17.3441C17.3342 17.5674 16.9978 17.8645 16.7287 18.2185C16.4596 18.5724 16.2633 18.9761 16.151 19.4062H10.8489C10.6435 18.6109 10.1551 17.9177 9.47525 17.4567C8.79538 16.9956 7.9707 16.7984 7.15579 16.9019C6.34088 17.0054 5.5917 17.4026 5.04867 18.0189C4.50565 18.6353 4.20605 19.4285 4.20605 20.25C4.20605 21.0715 4.50565 21.8647 5.04867 22.4811C5.5917 23.0974 6.34088 23.4946 7.15579 23.5981C7.9707 23.7016 8.79538 23.5044 9.47525 23.0433C10.1551 22.5823 10.6435 21.8891 10.8489 21.0938H16.151C16.3346 21.8179 16.7543 22.4601 17.3439 22.9189C17.9334 23.3777 18.6592 23.6268 19.4062 23.6268C20.1532 23.6268 20.8789 23.3777 21.4685 22.9189C22.0581 22.4601 22.4778 21.8179 22.6614 21.0938H24.4687C24.6925 21.0938 24.9071 21.0049 25.0653 20.8466C25.2235 20.6884 25.3124 20.4738 25.3124 20.25V14.3438C25.3125 14.2294 25.2892 14.1163 25.2441 14.0113ZM7.5937 21.9375C7.25994 21.9375 6.93368 21.8385 6.65617 21.6531C6.37866 21.4677 6.16237 21.2041 6.03465 20.8958C5.90693 20.5874 5.87351 20.2481 5.93862 19.9208C6.00373 19.5934 6.16445 19.2928 6.40045 19.0568C6.63645 18.8208 6.93714 18.66 7.26448 18.5949C7.59182 18.5298 7.93112 18.5632 8.23947 18.691C8.54782 18.8187 8.81138 19.035 8.9968 19.3125C9.18223 19.59 9.2812 19.9162 9.2812 20.25C9.28075 20.6974 9.10282 21.1264 8.78644 21.4427C8.47007 21.7591 8.04111 21.9371 7.5937 21.9375ZM19.4062 9.28125H21.3806L23.1896 13.5H19.4062V9.28125ZM19.4062 21.9375C19.0724 21.9375 18.7462 21.8385 18.4687 21.6531C18.1912 21.4677 17.9749 21.2041 17.8471 20.8958C17.7194 20.5874 17.686 20.2481 17.7511 19.9208C17.8162 19.5934 17.9769 19.2928 18.213 19.0568C18.449 18.8208 18.7496 18.66 19.077 18.5949C19.4043 18.5298 19.7436 18.5632 20.052 18.691C20.3603 18.8187 20.6239 19.035 20.8093 19.3125C20.9947 19.59 21.0937 19.9162 21.0937 20.25C21.0932 20.6974 20.9153 21.1264 20.5989 21.4427C20.2826 21.7591 19.8536 21.9371 19.4062 21.9375ZM23.6249 19.4062H22.6614C22.4755 18.6835 22.0551 18.0429 21.466 17.5848C20.8769 17.1267 20.1524 16.8771 19.4062 16.875V15.1875H23.6249V19.4062Z" fill="#25252A"/>
</svg>
