<svg width="57" height="17" viewBox="0 0 57 17" fill="none" xmlns="http://www.w3.org/2000/svg">
<g id="WwRC73vQdmjyYz-FuqiKlHCMWdW2xv0P 1">
<path id="Vector" fill-rule="evenodd" clip-rule="evenodd" d="M8.93131 11.978H6.47343C2.63914 11.978 5.42475 3.83427 8.65276 3.83427H12.5362C13.1589 3.83427 14.2567 3.94898 14.7975 2.4087L15.6331 0.0163574H10.3077C7.42384 0.0163574 5.17894 1.03228 3.55675 2.73641C0.754767 5.65309 -0.195612 10.2084 0.47621 12.3877C1.11526 14.4031 2.85216 15.7304 5.5722 15.7632L7.686 15.7796H10.2913L10.9304 13.8624C11.4056 12.5024 10.3405 11.978 8.93131 11.978ZM38.8519 8.60254L39.6547 5.99721H31.085C29.6595 5.99721 29.0204 6.39047 28.7746 7.20974L27.9717 9.81511H36.5415C37.9671 9.81511 38.6061 9.42185 38.8519 8.60254ZM26.6936 13.1906L25.8907 15.7959H34.4605C35.8697 15.7959 36.5251 15.4027 36.7709 14.5834L37.5738 11.978H29.004C27.5948 11.978 26.9558 12.3713 26.6936 13.1906ZM40.851 2.6381L41.6541 0.0327431H33.0841C31.6585 0.0327431 31.0195 0.426003 30.7737 1.2453L29.9708 3.85065H38.5406C39.95 3.85065 40.5888 3.45739 40.851 2.6381ZM27.9062 3.16245C27.5457 0.737337 26.2512 0.0327431 23.1051 0.0327431H17.3701L14.0273 9.81511H16.1411C17.4028 9.81511 18.0419 9.8315 18.7137 8.02904L20.1065 3.83427H22.2366C24.0555 3.83427 23.6458 6.11192 22.7282 8.32399C21.909 10.2739 20.4834 11.9944 18.7628 11.9944H15.2071C13.7815 11.9944 13.1261 12.3877 12.8639 13.207L11.9791 15.8123H14.5845L17.1406 15.7959C19.4019 15.7795 21.2535 15.6157 23.4164 13.6658C25.7105 11.5848 28.365 6.24298 27.9062 3.16245ZM56.7127 0.0163574H51.7478L47.0777 4.98127C46.5368 5.55477 45.9798 6.12827 45.4389 6.80012H45.3897L47.7165 0.0163574H43.6695L38.2129 15.7959H42.2602L43.997 10.831L45.7993 9.30714L47.2251 13.7969C47.6674 15.1897 48.1265 15.7959 49.1097 15.7959H52.2065L49.0275 6.98036L56.7127 0.0163574Z" fill="#00B33C"/>
</g>
</svg>
