<svg width="35" height="34" viewBox="0 0 35 34" fill="none" xmlns="http://www.w3.org/2000/svg">
<g id="&#208;&#145;&#208;&#181;&#208;&#183; &#208;&#189;&#208;&#176;&#208;&#183;&#208;&#178;&#208;&#176;&#208;&#189;&#208;&#184;&#209;&#143; 1" clip-path="url(#clip0_2797_708)">
<path id="Vector" d="M3.87026 23.8524L19.1395 26.7773L20.3258 24.7345L6.75316 18.8838L3.87026 23.8533V23.8524ZM10.9439 11.6611L22.8209 20.4404L24.0072 18.3968L13.8278 6.69157L10.9449 11.6611H10.9439ZM7.39605 17.7792L20.9687 23.6318L22.178 21.5441L10.3011 12.7656L7.39605 17.7792ZM17.7091 0L14.5038 5.53189L24.6842 17.2389L26.1929 14.6439L17.7091 0ZM0 30.5329H16.9658L18.4736 27.9379L3.20526 25.013L0 30.5329ZM26.9233 23.698L30.893 30.5329H35.4062L26.9233 15.9019L18.4404 30.5329H22.9536L26.9233 23.698Z" fill="#FCAF17"/>
</g>
<defs>
<clipPath id="clip0_2797_708">
<rect width="35" height="34" fill="white"/>
</clipPath>
</defs>
</svg>
