<svg width="22" height="29" viewBox="0 0 22 29" fill="none" xmlns="http://www.w3.org/2000/svg">
<path d="M18.8306 9.78468C18.8306 11.2612 18.3277 13.0014 17.5048 14.8353C16.688 16.6555 15.5901 18.4939 14.4779 20.1463C13.3676 21.7959 12.2554 23.242 11.42 24.2763C11.1834 24.5692 10.9695 24.8285 10.7844 25.0497C10.5994 24.8285 10.3854 24.5692 10.1489 24.2763C9.31348 23.242 8.20122 21.7959 7.09095 20.1463C5.97873 18.4939 4.88086 16.6555 4.0641 14.8353C3.24119 13.0014 2.73828 11.2612 2.73828 9.78468C2.73828 5.4262 6.42595 1.73853 10.7844 1.73853C15.1429 1.73853 18.8306 5.4262 18.8306 9.78468ZM14.885 9.96114C14.859 8.8921 14.3278 7.90765 13.6239 7.20373C12.902 6.48184 11.8851 5.9416 10.7844 5.9416C8.736 5.9416 6.68289 7.62855 6.68289 10.0431C6.68289 12.0916 8.36984 14.1447 10.7844 14.1447C11.9716 14.1447 13.0612 13.639 13.8177 12.8826C14.553 12.1473 15.0431 11.0955 14.885 9.96114Z" stroke="#25252A" stroke-width="2"/>
</svg>
