<svg width="13" height="13" viewBox="0 0 13 13" fill="none" xmlns="http://www.w3.org/2000/svg">
<path fill-rule="evenodd" clip-rule="evenodd" d="M6.52515 0.167969C6.96237 0.168543 7.31635 0.523448 7.31577 0.960673L7.30955 5.70964H12.0417C12.479 5.70964 12.8334 6.06408 12.8334 6.5013C12.8334 6.93853 12.479 7.29297 12.0417 7.29297H7.30747L7.30125 12.044C7.30067 12.4812 6.94577 12.8352 6.50854 12.8346C6.07132 12.8341 5.71734 12.4792 5.71792 12.0419L5.72414 7.29297H0.958415C0.521189 7.29297 0.166748 6.93853 0.166748 6.5013C0.166748 6.06408 0.521189 5.70964 0.958415 5.70964H5.72621L5.73244 0.958598C5.73302 0.521373 6.08792 0.167396 6.52515 0.167969Z" fill="#009FE3"/>
</svg>
