<svg width="76" height="76" viewBox="0 0 76 76" fill="none" xmlns="http://www.w3.org/2000/svg">
<path d="M75.7966 37.9996C75.7966 58.8707 58.8712 75.7961 38.0001 75.7961C17.129 75.7961 0.203613 58.8707 0.203613 37.9996C0.203613 17.1285 17.129 0.203125 38.0001 0.203125C58.8712 0.203125 75.7966 17.1285 75.7966 37.9996Z" fill="#EDC92C"/>
<path d="M32.1807 51.7734C31.3885 51.7734 30.7486 52.4133 30.7486 53.2055C30.7486 56.1 28.3873 58.4613 25.4928 58.4613C22.8115 58.4613 20.5873 56.4352 20.2826 53.8148C18.8658 54.4547 17.9213 54.1043 17.4033 53.7387C17.6775 57.9586 21.1967 61.3102 25.4928 61.3102C29.9717 61.3102 33.6127 57.6691 33.6127 53.1902C33.6127 52.4133 32.9729 51.7734 32.1807 51.7734" fill="#AF5C2B"/>
<path d="M20.2984 53.8117C20.268 53.6137 20.2527 53.4156 20.2527 53.2023C20.2527 52.593 20.3594 52.014 20.5574 51.4504C20.8164 50.7039 20.4355 49.8812 19.6891 49.6223C18.9426 49.348 18.1199 49.7441 17.8609 50.4906C17.5563 51.359 17.3887 52.273 17.3887 53.2023C17.3887 53.3851 17.4039 53.568 17.4191 53.7355C17.9219 54.1164 18.8664 54.4668 20.2984 53.8117" fill="#4A1C12"/>
<path d="M49.9584 45.8137C49.8822 45.9203 49.7451 46.0422 49.6689 46.1488C49.7451 46.0422 49.7908 45.9355 49.867 45.8137C49.8822 45.6461 49.8822 45.4785 49.8822 45.3109C49.8822 38.882 44.6568 33.6719 38.2279 33.6719C31.799 33.6719 26.5889 38.882 26.5889 45.3109C26.5889 45.5242 26.7717 45.7223 26.7869 45.9355C26.9545 49.0434 28.5389 51.8312 30.6412 53.8269V57.4984C29.59 58.3668 28.4627 59.814 28.4627 60.8652H37.9842C37.9842 59.814 36.9482 58.3668 35.8971 57.4984V56.7672C36.9482 56.889 37.2834 56.9652 37.9994 56.9652C38.7154 56.9652 40.1018 56.889 40.1018 56.7672V57.4984C39.0506 58.3668 38.4717 59.814 38.4717 60.8652H47.9932C47.9932 59.814 47.4447 58.3668 46.3936 57.4984V53.8269C48.4807 51.8008 49.8213 48.9824 49.9584 45.8137H49.9584ZM38.2127 51.7703C38.1975 51.7703 38.1822 51.7703 38.1822 51.7703C34.4346 51.7703 31.0525 50.3992 28.5998 48.1902C29.4834 48.9977 30.5041 49.6832 31.601 50.2316C31.4639 49.4547 31.3572 48.6473 31.2201 47.7941C32.1342 48.0684 33.1092 48.3426 34.1451 48.5863C34.9221 48.9672 35.6228 49.409 36.4607 49.9117C36.9939 50.2316 37.9842 50.5516 37.9842 50.9172V45.8594V50.9172C39.0353 50.5516 39.2029 50.2316 39.7514 49.9117C40.5893 49.4242 41.4576 48.9824 42.2346 48.5863C43.2857 48.3426 44.3064 48.0684 45.2357 47.7789C45.1139 48.6016 45.0225 49.3937 44.9006 50.1555C46.5307 49.3176 47.9627 48.175 49.0748 46.8191C46.6068 49.8203 42.6764 51.7703 38.2127 51.7703L38.2127 51.7703ZM28.2037 47.8246C28.3256 47.9312 28.4322 48.0531 28.5541 48.1598C28.4475 48.0531 28.3256 47.9465 28.2037 47.8246ZM49.5471 46.225C49.4861 46.3164 49.4252 46.3926 49.3643 46.484C49.4252 46.3926 49.4861 46.3012 49.5471 46.225ZM49.3185 46.5297C49.2424 46.6211 49.1814 46.7125 49.1053 46.8039C49.1814 46.7125 49.2424 46.6211 49.3185 46.5297Z" fill="#E98130"/>
<path d="M38.213 48.4947C37.6494 47.4435 32.1345 48.2966 31.2205 48.0224C31.3423 48.8755 31.4642 49.5763 31.6013 50.3533C32.2716 54.3142 33.3228 57.0107 38.213 57.0107C43.2556 57.0107 44.2611 54.1923 44.9162 50.2009C45.038 49.4544 45.1447 48.8603 45.2666 48.0376C44.3373 48.3119 38.7767 47.4435 38.213 48.4947" fill="#F7F3CE"/>
<path d="M38.2131 45.8465C38.2284 45.8465 38.2284 45.8465 38.2436 45.8465V37.9094V33.0039C38.2284 33.0039 38.2284 33.0039 38.2131 33.0039V37.9094V45.8465Z" fill="#A94825"/>
<path d="M33.765 20.8762C33.765 24.3039 30.9924 27.0766 27.5647 27.0766C24.1369 27.0766 21.3643 24.3039 21.3643 20.8762C21.3643 17.4484 24.1369 14.6758 27.5647 14.6758C30.9772 14.6758 33.765 17.4484 33.765 20.8762Z" fill="#AF5C2B"/>
<path d="M31.1294 20.877C31.1294 22.8422 29.5298 24.457 27.5493 24.457C25.5688 24.457 23.9692 22.8574 23.9692 20.877C23.9692 18.8965 25.5688 17.2969 27.5493 17.2969C29.5298 17.2969 31.1294 18.8965 31.1294 20.877Z" fill="#4A1C12"/>
<path d="M54.7423 20.8762C54.7423 24.3039 51.9697 27.0766 48.5419 27.0766C45.1142 27.0766 42.3416 24.3039 42.3416 20.8762C42.3416 17.4484 45.1142 14.6758 48.5419 14.6758C51.9697 14.6758 54.7423 17.4484 54.7423 20.8762Z" fill="#E98130"/>
<path d="M52.123 20.877C52.123 22.8422 50.5234 24.457 48.543 24.457C46.5625 24.457 44.9629 22.8574 44.9629 20.877C44.9629 18.8965 46.5625 17.2969 48.543 17.2969C50.5234 17.2969 52.123 18.8965 52.123 20.877Z" fill="#4A1C12"/>
<path d="M33.765 20.8762C33.765 24.3039 30.9924 27.0766 27.5647 27.0766C24.1369 27.0766 21.3643 24.3039 21.3643 20.8762C21.3643 17.4484 24.1369 14.6758 27.5647 14.6758C30.9772 14.6758 33.765 17.4484 33.765 20.8762Z" fill="#E98130"/>
<path d="M31.1294 20.877C31.1294 22.8422 29.5298 24.457 27.5493 24.457C25.5688 24.457 23.9692 22.8574 23.9692 20.877C23.9692 18.8965 25.5688 17.2969 27.5493 17.2969C29.5298 17.2969 31.1294 18.8965 31.1294 20.877Z" fill="#4A1C12"/>
<path d="M38.2436 19.75H38.2284C38.2284 19.75 38.2284 19.75 38.2436 19.75ZM38.2436 32.7602V19.7652H38.2284H38.2131V32.7602C38.2131 32.7602 38.2284 32.7602 38.2436 32.7602" fill="#A94825"/>
<path d="M38.2131 45.6004C38.2284 45.6004 38.2284 45.6004 38.2436 45.6004V37.6633V32.7578C38.2284 32.7578 38.2284 32.7578 38.2131 32.7578V37.6633V45.6004Z" fill="#A94825"/>
<path d="M37.9852 16.6875V16.7637H38.1833H37.9852V16.6875C26.4376 16.7027 22.7509 24.2438 22.7966 32.4551C22.8118 36.3856 23.9087 43.1039 23.9087 43.1039C23.9087 43.1039 24.2591 44.4141 30.5509 46.6383C30.5509 46.3793 38.1833 48.177 38.1833 48.177C40.5751 48.177 42.6927 47.6133 44.8559 46.882C45.0997 46.8059 45.3434 46.7145 45.3434 46.6383C51.6352 44.3988 52.1989 43.0887 52.1989 43.0887C52.1989 43.0887 53.2501 36.2484 53.2805 32.4398C53.3415 24.2438 49.5329 16.6875 37.9852 16.6875Z" fill="#E98130"/>
<path d="M45.3285 44.4459C45.3285 40.3936 44.6887 40.0737 44.6887 40.0737C44.1859 39.6623 43.7137 39.3424 43.0891 39.0834C41.7484 38.6569 40.7734 38.1389 38.1531 39.4186C35.5328 38.1389 34.5121 38.6721 33.1867 39.0834C32.5621 39.3424 31.9984 39.6623 31.4957 40.0737C31.4957 40.0737 30.6426 40.3936 30.6426 44.4459V47.4319C32.7449 48.2698 35.4109 48.5897 38.2293 48.5897L38.2141 48.2545H37.9855V48.7116L37.8484 48.8182C40.5145 48.8182 43.2262 48.2698 45.3285 47.4319L45.3285 44.4459Z" fill="#F7F3CE"/>
<path d="M27.9302 30.4575C27.9302 30.4575 34.2981 28.6141 34.161 35.0887C34.161 35.0887 27.9302 37.3587 27.9302 30.4575Z" fill="#4A1C12"/>
<path d="M33.4905 32.8965C33.4905 34.2066 32.4393 35.2578 31.1292 35.2578C29.819 35.2578 28.7678 34.2066 28.7678 32.8965C28.7678 31.5863 29.819 30.5352 31.1292 30.5352C32.4241 30.5352 33.4905 31.6016 33.4905 32.8965Z" fill="#F6C899"/>
<path d="M32.7291 31.9207C32.7291 32.3777 32.3635 32.7281 31.9217 32.7281C31.4647 32.7281 31.1143 32.3625 31.1143 31.9207C31.1143 31.4789 31.4799 31.1133 31.9217 31.1133C32.3635 31.1133 32.7291 31.4789 32.7291 31.9207Z" fill="white"/>
<path d="M48.5419 30.4575C48.5419 30.4575 42.1739 28.6141 42.311 35.0887C42.311 35.0887 48.5419 37.3587 48.5419 30.4575Z" fill="#4A1C12"/>
<path d="M42.9509 32.8965C42.9509 34.2066 44.0021 35.2578 45.3123 35.2578C46.6224 35.2578 47.6736 34.2066 47.6736 32.8965C47.6736 31.5863 46.6072 30.5352 45.3123 30.5352C44.0173 30.5352 42.9509 31.6016 42.9509 32.8965Z" fill="#F6C899"/>
<path d="M45.4346 31.9207C45.4346 32.3777 45.8002 32.7281 46.2572 32.7281C46.699 32.7281 47.0647 32.3625 47.0647 31.9207C47.0647 31.4789 46.699 31.1133 46.2572 31.1133C45.8002 31.1133 45.4346 31.4789 45.4346 31.9207Z" fill="white"/>
<path d="M37.8484 41.7148C37.498 41.6539 37.1934 41.5016 36.9953 41.2578C36.0508 40.1609 34.8168 39.384 34.1465 39.0184C34.7863 38.8203 36.127 38.5156 38.2141 38.5156C40.2707 38.5156 41.6113 38.8203 42.2664 39.0184C41.0934 39.7344 40.0574 40.5418 39.3414 41.2883C39.1434 41.5016 38.8691 41.6387 38.5492 41.6996H37.8484V41.7148Z" fill="#D76D7A"/>
<path d="M38.1988 38.7613C39.7832 38.7613 40.941 38.9441 41.6723 39.1117C40.6668 39.7668 39.8137 40.4524 39.1586 41.1379C38.991 41.3055 38.7777 41.4274 38.5035 41.4883H37.8789C37.559 41.4274 37.3152 41.3055 37.1629 41.1227C36.4012 40.2238 35.4414 39.5535 34.7559 39.127C35.4871 38.9289 36.6297 38.7613 38.1988 38.7613L38.1988 38.7613ZM38.1988 38.2891C35.0605 38.2891 33.5523 38.9746 33.5676 38.9746C33.598 39.0203 35.5023 39.9039 36.7973 41.4121C37.0715 41.732 37.4523 41.8844 37.8332 41.9453H38.5492C38.8996 41.8844 39.2348 41.732 39.4937 41.4578C40.8496 40.041 42.7844 38.9898 42.7996 38.9594C42.8148 38.9594 41.3066 38.2891 38.1988 38.2891V38.2891ZM37.9246 43.5145C37.3457 44.5199 36.5992 45.0988 35.7309 45.2055C33.7504 45.4645 31.6633 43.4078 31.648 43.3774C31.5414 43.2707 31.3586 43.2707 31.2367 43.3774C31.1301 43.484 31.1301 43.6668 31.2367 43.7887C31.3281 43.8801 33.2629 45.7996 35.3652 45.7996C35.5176 45.7996 35.6547 45.7844 35.807 45.7692C36.7668 45.632 37.559 45.0836 38.2141 44.1238C38.8539 45.0836 39.6613 45.632 40.6211 45.7692C40.7734 45.7844 40.9105 45.7996 41.0629 45.7996C43.1652 45.7996 45.1 43.8649 45.1914 43.7887C45.298 43.682 45.298 43.4992 45.1914 43.3774C45.0848 43.2707 44.9019 43.2707 44.7801 43.3774C44.7648 43.3926 42.6625 45.4645 40.6973 45.2055C39.8289 45.0836 39.0824 44.5199 38.5035 43.5145V41.9606C38.5188 41.9606 38.5492 41.9453 38.5645 41.9453H37.8484C37.8789 41.9453 37.8941 41.9606 37.9246 41.9606L37.9246 43.5145Z" fill="#4A1C12"/>
<path d="M17.3874 43.6816C17.3265 43.6816 17.2503 43.6511 17.1894 43.6054C17.0675 43.4987 17.0675 43.3159 17.1741 43.1941C22.8413 37.0241 31.6163 40.4823 31.7077 40.5128C31.8601 40.5737 31.921 40.7413 31.8601 40.8784C31.7991 41.0308 31.6315 41.0917 31.4792 41.0308C31.3878 41.0003 22.9784 37.6945 17.5855 43.5749C17.5397 43.6511 17.4636 43.6816 17.3874 43.6816" fill="#F6C899"/>
<path d="M19.246 45.4792C19.1698 45.4792 19.1089 45.4488 19.0479 45.4031C18.9413 45.2964 18.9261 45.1136 19.0479 44.9917C24.3495 39.5226 31.2659 41.366 31.3269 41.3812C31.4792 41.4269 31.5706 41.5792 31.5249 41.7316C31.4792 41.8839 31.3269 41.9753 31.1745 41.9296C31.1136 41.9144 24.5171 40.1624 19.4593 45.3878C19.3983 45.4488 19.3222 45.4792 19.246 45.4792Z" fill="#F6C899"/>
<path d="M21.6378 47.4906C21.5769 47.4906 21.5159 47.4753 21.4702 47.4448C21.3484 47.3534 21.3179 47.1706 21.3941 47.0488C25.0656 41.8234 31.2202 42.3413 31.2812 42.3413C31.4335 42.3566 31.5554 42.4937 31.5402 42.6613C31.5249 42.8136 31.4031 42.9355 31.2355 42.9202C31.1745 42.9202 25.355 42.448 21.8816 47.3839C21.8054 47.4448 21.714 47.4906 21.6378 47.4906ZM58.6116 43.682C58.5355 43.682 58.4593 43.6515 58.3984 43.5906C53.0054 37.7101 44.5808 41.0159 44.5046 41.0464C44.3523 41.1073 44.1847 41.0312 44.1238 40.8941C44.0628 40.7417 44.139 40.5741 44.2761 40.5284C44.3675 40.498 53.1425 37.0398 58.8097 43.2097C58.9163 43.3316 58.9163 43.5144 58.7945 43.621C58.7488 43.6515 58.6878 43.682 58.6117 43.682" fill="#F6C899"/>
<path d="M56.7538 45.4792C56.6777 45.4792 56.6015 45.4488 56.5406 45.3878C51.4675 40.1624 44.8863 41.9144 44.8253 41.9296C44.673 41.9753 44.5206 41.8839 44.4749 41.7316C44.4292 41.5792 44.5206 41.4269 44.673 41.3812C44.7492 41.366 51.6503 39.5226 56.9519 44.9917C57.0585 45.1136 57.0585 45.2812 56.9519 45.4031C56.8909 45.4488 56.83 45.4792 56.7538 45.4792Z" fill="#F6C899"/>
<path d="M54.3618 47.4911C54.2704 47.4911 54.179 47.4454 54.1333 47.3692C50.6598 42.4333 44.8251 42.9056 44.7794 42.9056C44.6118 42.9208 44.4747 42.7989 44.4747 42.6466C44.4594 42.4943 44.5813 42.3419 44.7337 42.3267C44.7946 42.3267 50.9493 41.8087 54.6208 47.0341C54.7122 47.156 54.6817 47.3388 54.5446 47.4302C54.4837 47.4759 54.4227 47.4911 54.3618 47.4911" fill="#F6C899"/>
</svg>
