<svg width="17" height="18" viewBox="0 0 17 18" fill="none" xmlns="http://www.w3.org/2000/svg">
<g clip-path="url(#clip0)">
<circle cx="8.47443" cy="9.3111" r="7.75641" fill="white"/>
<path d="M8.47457 2.96484C4.96959 2.96484 2.12842 5.80602 2.12842 9.311C2.12842 12.816 4.96959 15.6572 8.47457 15.6572C11.9796 15.6572 14.8207 12.816 14.8207 9.311C14.8207 5.80602 11.9796 2.96484 8.47457 2.96484ZM11.013 9.94561H9.10919V11.8495C9.10919 12.1998 8.82488 12.4841 8.47457 12.4841C8.12426 12.4841 7.83996 12.1998 7.83996 11.8495V9.94561H5.93611C5.5858 9.94561 5.30149 9.6613 5.30149 9.311C5.30149 8.96069 5.5858 8.67638 5.93611 8.67638H7.83996V6.77254C7.83996 6.42223 8.12426 6.13792 8.47457 6.13792C8.82488 6.13792 9.10919 6.42223 9.10919 6.77254V8.67638H11.013C11.3633 8.67638 11.6476 8.96069 11.6476 9.311C11.6476 9.6613 11.3633 9.94561 11.013 9.94561Z" fill="#009FE3"/>
</g>
<defs>
<clipPath id="clip0">
<rect width="16.9231" height="16.9231" fill="white" transform="translate(0.0129395 0.847656)"/>
</clipPath>
</defs>
</svg>
