<svg width="24" height="24" viewBox="0 0 24 24" fill="none" xmlns="http://www.w3.org/2000/svg">
<g clip-path="url(#clip0)">
<circle cx="12" cy="12" r="11" fill="white"/>
<path d="M12 3C7.0293 3 3 7.0293 3 12C3 16.9707 7.0293 21 12 21C16.9707 21 21 16.9707 21 12C21 7.0293 16.9707 3 12 3ZM15.6 12.9H12.9V15.6C12.9 16.0968 12.4968 16.5 12 16.5C11.5032 16.5 11.1 16.0968 11.1 15.6V12.9H8.4C7.9032 12.9 7.5 12.4968 7.5 12C7.5 11.5032 7.9032 11.1 8.4 11.1H11.1V8.4C11.1 7.9032 11.5032 7.5 12 7.5C12.4968 7.5 12.9 7.9032 12.9 8.4V11.1H15.6C16.0968 11.1 16.5 11.5032 16.5 12C16.5 12.4968 16.0968 12.9 15.6 12.9Z" fill="#009FE3"/>
</g>
<defs>
<clipPath id="clip0">
<rect width="24" height="24" fill="white"/>
</clipPath>
</defs>
</svg>
