<svg width="36" height="36" viewBox="0 0 36 36" fill="none" xmlns="http://www.w3.org/2000/svg">
<path d="M9 16.5C12.3249 16.5 19.9633 19.6177 21.45 21.6C21.9862 22.3149 22.0975 23.1507 21.8677 23.9704L24.6421 23.445L27.1965 22.9867L27.9453 22.8598L29.2048 22.6619L29.938 22.5638L30.3247 22.5231C30.4976 22.5078 30.6394 22.5 30.75 22.5C34.0732 22.5 34.0732 25.7981 31.8107 28.0607C28.4537 31.4176 23.61 34.5 19.5 34.5C17.5592 34.5 15.9667 34.1832 13.7743 33.4815L11.9675 32.8868L11.4724 32.7284L10.8586 32.5426L10.5192 32.4493L10.0873 32.3489L9.83469 32.3045L9.59754 32.2751L9.36484 32.2581L9.12555 32.2508L1.5 32.25C0.671573 32.25 0 31.5784 0 30.75C0 29.9807 0.57906 29.3467 1.32507 29.2601L1.5 29.25L9.18493 29.2509L9.5166 29.2588L9.82937 29.277L10.1353 29.3079L10.4464 29.3542L10.7748 29.4185L11.1325 29.5034L11.5315 29.6113L11.9839 29.7449L12.789 29.9991L14.1618 30.452C16.3722 31.1888 17.7901 31.5 19.5 31.5C22.5686 31.5 26.8588 28.7699 29.6893 25.9393C29.7933 25.8354 29.8849 25.7344 29.9645 25.6388L30.0135 25.575L29.0495 25.7204L27.3234 26.0108L24.0889 26.5993L22.764 26.8498L18.2942 27.7209L18.262 27.7273C18.2195 27.7348 18.1768 27.7405 18.1341 27.7443L18.2942 27.7209C18.2203 27.7356 18.1458 27.7448 18.0711 27.7483C18.0349 27.7502 17.9989 27.7506 17.9629 27.7497C17.9385 27.7489 17.9135 27.7477 17.8886 27.7459C17.8344 27.7418 17.7809 27.7349 17.7281 27.7251C17.7232 27.7242 17.7187 27.7234 17.7142 27.7225C17.6512 27.7102 17.5899 27.6943 17.5298 27.6745L13.0257 26.173C12.2397 25.9111 11.815 25.0616 12.077 24.2757C12.3202 23.5459 13.0701 23.1275 13.8052 23.2812L13.9743 23.327L17.7294 24.5805C17.8819 24.4553 18.0444 24.3134 18.2053 24.1601C18.5504 23.8315 18.8017 23.5229 18.9204 23.2975L18.9315 23.2695L18.8307 23.1742C18.3316 22.7431 17.2781 22.171 16.018 21.607L15.24 21.2708C14.8413 21.1043 14.4304 20.9413 14.0165 20.7856L13.1875 20.4854C11.6708 19.9576 10.1987 19.5656 9.23426 19.5075L9 19.5C6.95124 19.5 4.43142 20.9399 2.56066 22.8107C1.97487 23.3964 1.02513 23.3964 0.43934 22.8107C-0.146447 22.2249 -0.146447 21.2751 0.43934 20.6893C2.81858 18.3101 5.98626 16.5 9 16.5Z" fill="white"/>
<path d="M22.4999 1.12109L18 9.00066L22.4999 16.8802H31.5001L36 9.00066L31.5001 1.12109H22.4999ZM27.1142 12.7691C24.8439 12.7691 23.0031 10.9284 23.0031 8.65805C23.0031 6.38771 24.8439 4.54699 27.1142 4.54699C29.3846 4.54699 31.2253 6.38771 31.2253 8.65805C31.2253 10.9284 29.3846 12.7691 27.1142 12.7691Z" fill="white"/>
</svg>
