<svg width="36" height="36" viewBox="0 0 36 36" fill="none" xmlns="http://www.w3.org/2000/svg">
<path fill-rule="evenodd" clip-rule="evenodd" d="M24 4.5C19.8579 4.5 16.5 7.85786 16.5 12C16.5 13.2693 16.8141 14.4609 17.3677 15.5055C17.676 16.0876 17.5686 16.8027 17.1029 17.2685L5.12132 29.25L6.75 30.8787L18.7315 18.8971C19.1973 18.4314 19.9124 18.324 20.4945 18.6323C21.5391 19.1859 22.7307 19.5 24 19.5C28.1421 19.5 31.5 16.1421 31.5 12C31.5 11.4919 31.4497 10.9963 31.3538 10.5175L27.3107 14.5607C26.7249 15.1464 25.7751 15.1464 25.1893 14.5607L21.4393 10.8107C20.8536 10.2249 20.8536 9.27513 21.4393 8.68934L25.4825 4.6462C25.0037 4.55033 24.5081 4.5 24 4.5ZM13.5 12C13.5 6.20101 18.201 1.5 24 1.5C25.7707 1.5 27.4433 1.93955 28.9101 2.71675C29.3306 2.93958 29.6205 3.34876 29.6912 3.81941C29.7619 4.29005 29.605 4.76632 29.2685 5.10285L24.6213 9.75L26.25 11.3787L30.8971 6.73154C31.2337 6.39501 31.7099 6.23815 32.1806 6.30884C32.6513 6.37953 33.0604 6.66938 33.2833 7.08993C34.0604 8.55671 34.5 10.2292 34.5 12C34.5 17.799 29.799 22.5 24 22.5C22.6293 22.5 21.3174 22.2366 20.1142 21.7571L7.81066 34.0607C7.22487 34.6464 6.27513 34.6464 5.68934 34.0607L1.93934 30.3107C1.35355 29.7249 1.35355 28.7751 1.93934 28.1893L14.2429 15.8858C13.7634 14.6826 13.5 13.3707 13.5 12Z" fill="white"/>
</svg>
