<svg width="36" height="36" viewBox="0 0 36 36" fill="none" xmlns="http://www.w3.org/2000/svg">
<path fill-rule="evenodd" clip-rule="evenodd" d="M0 8.25C0 7.42157 0.671573 6.75 1.5 6.75H23.25C24.0784 6.75 24.75 7.42157 24.75 8.25V12H29.6786C30.1486 12 30.5914 12.2203 30.8749 12.5952L35.6964 18.9702C35.8934 19.2307 36 19.5484 36 19.875V26.25C36 27.0784 35.3284 27.75 34.5 27.75H30.4939C29.8762 29.4978 28.2093 30.75 26.25 30.75C24.2907 30.75 22.6238 29.4978 22.0061 27.75H13.2439C12.6262 29.4978 10.9593 30.75 9 30.75C7.04067 30.75 5.37382 29.4978 4.75606 27.75H1.5C0.671573 27.75 0 27.0784 0 26.25V8.25ZM4.75606 24.75C5.37382 23.0022 7.04067 21.75 9 21.75C10.9593 21.75 12.6262 23.0022 13.2439 24.75H21.75V9.75H3V24.75H4.75606ZM24.75 22.0061V15H28.9323L33 20.3784V24.75H30.4939C29.8762 23.0022 28.2093 21.75 26.25 21.75C25.724 21.75 25.2192 21.8402 24.75 22.0061ZM9 24.75C8.17158 24.75 7.5 25.4216 7.5 26.25C7.5 27.0784 8.17158 27.75 9 27.75C9.8284 27.75 10.5 27.0784 10.5 26.25C10.5 25.4216 9.8284 24.75 9 24.75ZM26.25 24.75C25.4216 24.75 24.75 25.4216 24.75 26.25C24.75 27.0784 25.4216 27.75 26.25 27.75C27.0784 27.75 27.75 27.0784 27.75 26.25C27.75 25.4216 27.0784 24.75 26.25 24.75Z" fill="white"/>
</svg>
