<svg width="21" height="20" viewBox="0 0 21 20" fill="none" xmlns="http://www.w3.org/2000/svg">
<path fill-rule="evenodd" clip-rule="evenodd" d="M13.8474 1.80815e-08C14.1127 -5.04074e-05 14.3672 0.10537 14.5548 0.293048L18.2073 3.9471C18.5976 4.33759 18.5976 4.97051 18.2073 5.361L7.86586 15.707C7.67831 15.8946 7.42389 16 7.1586 16H3.5C2.94772 16 2.5 15.5523 2.5 15V11.36C2.5 11.0949 2.60519 10.8408 2.79247 10.6533L13.14 0.293317C13.3275 0.105568 13.582 5.04436e-05 13.8474 1.80815e-08ZM13.8478 2.41479L4.5 11.7738V14H6.74426L16.0861 4.65405L13.8478 2.41479ZM0.5 19C0.5 18.4477 0.947715 18 1.5 18H19.5C20.0523 18 20.5 18.4477 20.5 19C20.5 19.5523 20.0523 20 19.5 20H1.5C0.947715 20 0.5 19.5523 0.5 19Z" fill="#25252A"/>
</svg>
