<svg width="45" height="42" viewBox="0 0 45 42" fill="none" xmlns="http://www.w3.org/2000/svg">
<path fill-rule="evenodd" clip-rule="evenodd" d="M22.7 0.65C22.4333 0.45 22.0667 0.45 21.8 0.65L19 2.75H25.5L22.7 0.65ZM26.3333 2.75L23 0.25C22.5556 -0.0833333 21.9444 -0.0833334 21.5 0.25L18.1667 2.75H8.31897C7.07633 2.75 6.06897 3.75736 6.06897 5V12.0474L0.1 16.5241C0.0370485 16.5714 0 16.6454 0 16.7241V41C0 41.1381 0.111929 41.25 0.25 41.25H44.25C44.3881 41.25 44.5 41.1381 44.5 41V16.7241C44.5 16.6454 44.463 16.5714 44.4 16.5241L38.431 12.0474V5C38.431 3.75736 37.4237 2.75 36.181 2.75H26.3333ZM38.431 12.6724V19.392L43.7783 16.6829L38.431 12.6724ZM44 17.1311L25.0044 26.7548L44 40.5103V17.1311ZM43.4785 40.75L22.6899 25.6962C22.4274 25.5061 22.0726 25.5061 21.8101 25.6962L1.02149 40.75H43.4785ZM0.5 40.5103V17.1311L19.4956 26.7548L0.5 40.5103ZM19.9511 26.4251L21.5169 25.2912C21.9543 24.9744 22.5457 24.9744 22.9831 25.2912L24.5489 26.4251L37.931 19.6453V5C37.931 4.0335 37.1475 3.25 36.181 3.25H8.31897C7.35247 3.25 6.56897 4.0335 6.56897 5V19.6453L19.9511 26.4251ZM6.06897 19.392V12.6724L0.721702 16.6829L6.06897 19.392ZM9.86207 7.86207C9.86207 7.724 9.974 7.61207 10.1121 7.61207H34.3879C34.526 7.61207 34.6379 7.724 34.6379 7.86207C34.6379 8.00014 34.526 8.11207 34.3879 8.11207H10.1121C9.974 8.11207 9.86207 8.00014 9.86207 7.86207ZM9.86207 13.1724C9.86207 13.0343 9.974 12.9224 10.1121 12.9224H34.3879C34.526 12.9224 34.6379 13.0343 34.6379 13.1724C34.6379 13.3105 34.526 13.4224 34.3879 13.4224H10.1121C9.974 13.4224 9.86207 13.3105 9.86207 13.1724ZM9.86207 17.7241C9.86207 17.5861 9.974 17.4741 10.1121 17.4741H20.7328C20.8708 17.4741 20.9828 17.5861 20.9828 17.7241C20.9828 17.8622 20.8708 17.9741 20.7328 17.9741H10.1121C9.974 17.9741 9.86207 17.8622 9.86207 17.7241Z" fill="#25252A"/>
</svg>
