<svg width="40" height="42" viewBox="0 0 40 42" fill="none" xmlns="http://www.w3.org/2000/svg">
<path d="M38.8998 9.37001L19.8899 0.192799C19.7214 0.111515 19.5251 0.111515 19.3567 0.192799L0.346642 9.37001C0.134682 9.47231 0 9.68697 0 9.92232V32.2098C0 32.4452 0.134682 32.6599 0.346642 32.7622L19.3566 41.9394C19.4408 41.98 19.5321 42.0004 19.6232 42.0004C19.7144 42.0004 19.8056 41.98 19.8899 41.9394L38.8998 32.7622C39.1118 32.6599 39.2465 32.4452 39.2465 32.2098V9.9224C39.2465 9.68689 39.1117 9.47239 38.8998 9.37001ZM19.6232 1.4262L37.2225 9.92232L32.1208 12.3852C32.0885 12.3606 32.0544 12.3379 32.017 12.3198L14.5373 3.88148L19.6232 1.4262ZM13.1522 4.57493L30.7258 13.0587L27.1265 14.7963L9.56016 6.31598L13.1522 4.57493ZM31.137 14.2222V20.6452L27.775 22.2683V15.8452L31.137 14.2222ZM38.0199 31.825L20.2365 40.4099V19.4844L24.4784 17.4366C24.7834 17.2894 24.9113 16.9228 24.7641 16.6177C24.6168 16.3127 24.2502 16.1847 23.9451 16.332L19.6232 18.4185L17.9227 17.5975C17.6176 17.4501 17.251 17.5781 17.1037 17.8831C16.9564 18.1882 17.0843 18.5548 17.3893 18.7021L19.0099 19.4844V40.4099L1.22662 31.8249V10.8994L14.7685 17.4369C14.8544 17.4784 14.9453 17.4981 15.0346 17.4981C15.2626 17.4981 15.4816 17.3703 15.5873 17.1513C15.7346 16.8462 15.6067 16.4796 15.3017 16.3323L2.024 9.92232L8.1166 6.98106L26.5399 15.8751C26.5426 15.8788 26.5456 15.8822 26.5484 15.8859V23.2455C26.5484 23.4566 26.6569 23.6527 26.8357 23.765C26.9349 23.8273 27.0482 23.8588 27.1618 23.8588C27.2527 23.8588 27.3439 23.8386 27.4284 23.7978L32.017 21.5826C32.2289 21.4803 32.3636 21.2657 32.3636 21.0303V13.6301L38.0199 10.8995V31.825Z" fill="#636363"/>
</svg>
