<svg width="15" height="14" viewBox="0 0 15 14" fill="none" xmlns="http://www.w3.org/2000/svg">
<path fill-rule="evenodd" clip-rule="evenodd" d="M7.49997 0.046875C8.06439 0.046875 8.52193 0.479327 8.52193 1.01278V8.33996L11.1645 5.84233C11.5636 5.46512 12.2107 5.46512 12.6098 5.84233C13.0089 6.21954 13.0089 6.83112 12.6098 7.20833L8.22261 11.3549C7.82351 11.7321 7.17644 11.7321 6.77734 11.3549L2.39024 7.20833C1.99114 6.83112 1.99114 6.21954 2.39024 5.84233C2.78934 5.46512 3.4364 5.46512 3.8355 5.84233L6.47802 8.33996V1.01278C6.47802 0.479327 6.93556 0.046875 7.49997 0.046875Z" fill="#009FE3"/>
<path d="M0.545456 13.1829C0.545456 12.7561 0.891418 12.4102 1.31818 12.4102H13.6818C14.1086 12.4102 14.4545 12.7561 14.4545 13.1829C14.4545 13.6097 14.1086 13.9556 13.6818 13.9556H1.31818C0.891418 13.9556 0.545456 13.6097 0.545456 13.1829Z" fill="#009FE3"/>
</svg>
