<svg width="56" height="34" viewBox="0 0 56 34" fill="none" xmlns="http://www.w3.org/2000/svg">
<path d="M7 20.1443C7.48322 20.1443 7.875 20.536 7.875 21.0193V27.1504H9.26712C9.61023 24.1156 12.3485 21.9335 15.3833 22.2765C17.9455 22.5662 19.9674 24.5882 20.2571 27.1504H38.5V1.77539H7.875V4.52727C7.875 5.01048 7.48322 5.40227 7 5.40227C6.51678 5.40227 6.125 5.01048 6.125 4.52727V0.900391C6.125 0.417172 6.51678 0.0253906 7 0.0253906H39.375C39.8582 0.0253906 40.25 0.417172 40.25 0.900391V1.77539H50.2705C52.4671 1.77823 54.2472 3.5582 54.25 5.75489V7.02539C54.25 7.50861 53.8582 7.90039 53.375 7.90039H52.3574L53.025 15.9198C54.7723 16.3745 55.9939 17.9493 56 19.7549V27.1504C56 27.6336 55.6082 28.0254 55.125 28.0254H53.3531C53.1133 31.1544 50.3822 33.4965 47.2532 33.2567C44.4575 33.0424 42.2362 30.821 42.0219 28.0254C42.014 28.0254 42.0079 28.0298 42 28.0298H40.25C40.25 28.513 39.8582 28.9048 39.375 28.9048H20.1775C19.5542 31.8956 16.6242 33.8148 13.6334 33.1915C11.479 32.7425 9.79573 31.0591 9.34675 28.9048H7C6.51678 28.9048 6.125 28.513 6.125 28.0298V21.0193C6.125 20.5359 6.51678 20.1443 7 20.1443ZM47.6875 31.5254C49.8621 31.5254 51.625 29.7625 51.625 27.5879C51.625 25.4133 49.8621 23.6504 47.6875 23.6504C45.5129 23.6504 43.75 25.4133 43.75 27.5879C43.7524 29.7615 45.5139 31.523 47.6875 31.5254ZM40.25 26.2754H42C42.0513 26.2807 42.102 26.2909 42.1514 26.306C42.8551 23.2487 45.904 21.3407 48.9613 22.0444C51.0694 22.5296 52.7189 24.17 53.2157 26.2754H54.25V19.7549C54.2486 18.5242 53.2512 17.5268 52.0205 17.5254H40.25V26.2754ZM40.25 15.7754H51.2575L50.6012 7.90039H40.25V15.7754ZM40.25 6.15039H52.5V5.75489C52.4986 4.5242 51.5012 3.52681 50.2705 3.52539H40.25V6.15039ZM10.9862 27.9904C11.0986 29.9922 12.7564 31.5568 14.7612 31.5534H14.7621C16.598 31.5493 18.1655 30.2271 18.4791 28.4183C18.3258 28.1503 18.3433 27.8174 18.5238 27.5669C18.4068 25.4855 16.6247 23.8929 14.5432 24.0098C12.4618 24.1267 10.8691 25.9089 10.9862 27.9904Z" fill="#636363"/>
<path d="M7.875 7.02539H20.125C20.6082 7.02539 21 7.41717 21 7.90039C21 8.38361 20.6082 8.77539 20.125 8.77539H7.875C7.39178 8.77539 7 8.38361 7 7.90039C7 7.41717 7.39178 7.02539 7.875 7.02539Z" fill="#636363"/>
<path d="M6.125 16.6504H25.375C25.8582 16.6504 26.25 17.0422 26.25 17.5254C26.25 18.0086 25.8582 18.4004 25.375 18.4004H6.125C5.64178 18.4004 5.25 18.0086 5.25 17.5254C5.25 17.0422 5.64178 16.6504 6.125 16.6504Z" fill="#636363"/>
<path d="M7.875 11.4004H17.5C17.9832 11.4004 18.375 11.7922 18.375 12.2754C18.375 12.7586 17.9832 13.1504 17.5 13.1504H7.875C7.39178 13.1504 7 12.7586 7 12.2754C7 11.7922 7.39178 11.4004 7.875 11.4004Z" fill="#636363"/>
<path d="M4.375 8.77539H2.625C2.14178 8.77539 1.75 8.38361 1.75 7.90039C1.75 7.41717 2.14178 7.02539 2.625 7.02539H4.375C4.85822 7.02539 5.25 7.41717 5.25 7.90039C5.25 8.38361 4.85822 8.77539 4.375 8.77539Z" fill="#636363"/>
<path d="M1.75 16.6504H3.5C3.98322 16.6504 4.375 17.0422 4.375 17.5254C4.375 18.0086 3.98322 18.4004 3.5 18.4004H1.75C1.26678 18.4004 0.875 18.0086 0.875 17.5254C0.875 17.0422 1.26678 16.6504 1.75 16.6504Z" fill="#636363"/>
<path d="M0.875 11.4004H4.375C4.85822 11.4004 5.25 11.7922 5.25 12.2754C5.25 12.7586 4.85822 13.1504 4.375 13.1504H0.875C0.391781 13.1504 0 12.7586 0 12.2754C0 11.7922 0.391781 11.4004 0.875 11.4004Z" fill="#636363"/>
</svg>
