<?xml version="1.0" encoding="UTF-8"?>
<!DOCTYPE svg PUBLIC "-//W3C//DTD SVG 1.1//EN" "http://www.w3.org/Graphics/SVG/1.1/DTD/svg11.dtd">
<svg xmlns="http://www.w3.org/2000/svg" version="1.1" width="413px" height="396px" style="shape-rendering:geometricPrecision; text-rendering:geometricPrecision; image-rendering:optimizeQuality; fill-rule:evenodd; clip-rule:evenodd" xmlns:xlink="http://www.w3.org/1999/xlink">
<g><path style="opacity:0.975" fill="#000000" d="M 258.5,-0.5 C 269.167,-0.5 279.833,-0.5 290.5,-0.5C 344.131,8.51124 379.797,38.8446 397.5,90.5C 410.253,140.997 398.586,184.83 362.5,222C 377.536,245.235 392.703,268.402 408,291.5C 409.822,295.157 411.322,298.824 412.5,302.5C 412.5,306.167 412.5,309.833 412.5,313.5C 406.121,333.348 392.454,342.181 371.5,340C 363.895,337.948 357.728,333.782 353,327.5C 336.833,302.667 320.667,277.833 304.5,253C 252.915,262.029 209.749,247.196 175,208.5C 141.574,162.703 137.574,114.37 163,63.5C 185.024,27.5684 216.858,6.23505 258.5,-0.5 Z M 269.5,43.5 C 316.812,44.9923 345.979,68.659 357,114.5C 360.354,159.988 340.854,190.821 298.5,207C 256.297,216.473 223.797,202.973 201,166.5C 183.216,126.476 190.383,91.6431 222.5,62C 236.467,51.3438 252.134,45.1771 269.5,43.5 Z"/></g>
<g><path style="opacity:0.962" fill="#000000" d="M -0.5,54.5 C -0.5,50.8333 -0.5,47.1667 -0.5,43.5C 2.47947,33.6827 8.81281,26.8493 18.5,23C 49.799,21.3792 81.1324,21.0459 112.5,22C 132.53,26.2133 140.363,38.3799 136,58.5C 131.556,68.9507 123.723,74.7841 112.5,76C 81.1324,76.9541 49.799,76.6208 18.5,75C 8.81281,71.1507 2.47947,64.3173 -0.5,54.5 Z"/></g>
<g><path style="opacity:0.976" fill="#000000" d="M -0.5,214.5 C -0.5,210.833 -0.5,207.167 -0.5,203.5C 3.20265,191.635 11.2027,184.468 23.5,182C 63.1667,181.333 102.833,181.333 142.5,182C 157.153,184.991 165.153,193.991 166.5,209C 165.345,222.006 158.678,230.672 146.5,235C 104.167,235.667 61.8333,235.667 19.5,235C 9.21188,231.547 2.54521,224.714 -0.5,214.5 Z"/></g>
<g><path style="opacity:0.98" fill="#000000" d="M 324.5,395.5 C 222.833,395.5 121.167,395.5 19.5,395.5C 9.40683,391.741 2.74016,384.741 -0.5,374.5C -0.5,370.833 -0.5,367.167 -0.5,363.5C 2.42757,351.41 10.0942,344.243 22.5,342C 122.167,341.333 221.833,341.333 321.5,342C 339.761,347.011 346.928,358.844 343,377.5C 339.584,386.417 333.417,392.417 324.5,395.5 Z"/></g>
</svg>
