<svg width="84" height="32" viewBox="0 0 84 32" fill="none" xmlns="http://www.w3.org/2000/svg">
<path d="M66.2135 3.81055H75.4838C77.697 3.81078 79.8199 4.70845 81.3855 6.30612C82.9503 7.9038 83.8302 10.0707 83.8302 12.3301V19.6729C83.8302 20.7917 83.6142 21.8994 83.195 22.933C82.7751 23.9666 82.1604 24.9057 81.3855 25.6968C80.6106 26.4878 79.69 27.1152 78.678 27.5433C77.6652 27.9714 76.58 28.1917 75.4838 28.1915H66.3092C65.2131 28.1917 64.1279 27.9714 63.1153 27.5433C62.1027 27.1152 61.1826 26.4878 60.4076 25.6968C59.6325 24.9057 59.0177 23.9666 58.5983 22.933C58.1788 21.8994 57.9629 20.7917 57.9629 19.6729V12.3301C57.9629 7.62403 61.6032 3.81055 66.2135 3.81055Z" fill="black"/>
<path d="M68.484 17.5962V17.1823H66.0425V15.3404H70.8027V17.5313C70.8027 20.9799 69.1893 22.9834 66.1382 22.9834C62.9914 22.9834 61.1641 20.4523 61.1641 15.9896C61.1641 11.6379 63.1584 8.97363 66.8175 8.97363C68.1995 8.97363 69.392 9.34758 70.0434 9.8342V11.7304C69.1074 11.1383 68.0298 10.8209 66.9288 10.8129C64.5291 10.8129 63.5115 12.4763 63.5115 15.9896C63.5115 19.3973 64.3543 21.1406 66.1816 21.1406C67.9273 21.1495 68.484 19.7703 68.484 17.5962Z" fill="white"/>
<path d="M80.674 17.8551C80.674 21.166 78.9256 22.991 76.4122 22.991C73.8986 22.991 72.1504 21.166 72.1504 17.88C72.1504 14.5692 73.8986 12.7441 76.4122 12.7441C78.9256 12.7441 80.674 14.5612 80.674 17.8551ZM78.3131 17.8551C78.3131 15.5834 77.678 14.586 76.4145 14.586C75.1519 14.586 74.5152 15.5834 74.5152 17.88C74.5152 20.1518 75.1511 21.15 76.4145 21.15C77.6787 21.15 78.3131 20.1438 78.3131 17.8551Z" fill="white"/>
<path d="M6.5475 11.0157H5.5038C3.60774 11.0157 2.60926 11.9971 2.60926 13.4491C2.60926 15.0965 3.29984 15.8594 4.72276 16.8407L5.89084 17.6445L2.51358 22.7955H0L3.02762 18.1871C1.27941 16.9136 0.301805 15.6809 0.301805 13.5796C0.301805 10.9509 2.08741 9.17383 5.47945 9.17383H8.85579V22.7963H6.53968V11.0157H6.5475ZM18.4032 12.9385V22.7963H16.1226V18.6826H13.0706V22.7963H10.7902V12.9385H13.0706V16.8407H16.1226V12.9385H18.4032ZM28.7088 25.0441H26.5953V22.7883H21.4699V25.0441H19.3564V20.9509H20.0713C20.8741 19.3034 21.0332 16.188 21.0332 13.7786V12.9349H27.6912V20.9509H28.7088V25.0441ZM25.4108 14.7804H22.9954V15.0726C22.9954 16.7759 22.8215 19.4615 22.1848 20.9544H25.4108V14.7804ZM33.8334 22.9828C30.918 22.9828 29.2646 21.3194 29.2646 17.8878C29.2646 14.9101 30.5918 12.7369 33.3733 12.7369C35.6538 12.7369 37.1315 14.0343 37.1315 17.4589V18.6915H31.6251C31.7199 20.3389 32.3557 21.1418 34.0247 21.1418C35.1372 21.1418 36.3288 20.712 37.0358 20.2173V22.1232C36.3687 22.5939 35.2955 22.9828 33.8334 22.9828ZM31.6251 16.9704H34.811V16.7768C34.811 15.5441 34.4631 14.5868 33.3324 14.5868C32.2444 14.577 31.6886 15.4047 31.6251 16.9704ZM40.9532 17.9526V22.7963H38.6649V12.9385H40.9532V17.4819L44.1835 12.9385H46.4883L43.2624 17.4819L46.9249 22.7883H44.3305L40.9532 17.9526ZM46.7936 17.8718C46.7936 14.8691 48.3114 12.736 51.2293 12.736C52.3601 12.736 53.208 12.9305 53.6846 13.2058V15.1862C53.2237 14.8941 52.3574 14.577 51.4755 14.577C49.9812 14.577 49.155 15.6729 49.155 17.815C49.155 19.8514 49.8308 21.1489 51.4598 21.1489C52.4209 21.1489 53.1123 20.8976 53.6846 20.4837V22.3825C53.128 22.7963 52.3801 22.9908 51.3242 22.9908C48.2713 22.9828 46.7927 21.1658 46.7927 17.8718H46.7936Z" fill="black"/>
</svg>
