<svg width="22" height="18" viewBox="0 0 22 18" fill="none" xmlns="http://www.w3.org/2000/svg">
<path d="M2.25 0.500001C1.01625 0.500001 0 1.51625 0 2.75V13.75C0 14.9838 1.01625 16 2.25 16H2.60742C2.93712 17.1492 4.00013 18 5.25 18C6.49987 18 7.56288 17.1492 7.89258 16H14.1074C14.4371 17.1492 15.5001 18 16.75 18C17.9999 18 19.0629 17.1492 19.3926 16H19.75C20.9838 16 22 14.9838 22 13.75V10.5684C22 10.2527 21.9334 9.94255 21.8066 9.65625C21.8063 9.65593 21.806 9.6556 21.8057 9.65528L20.3311 6.33692V6.33594C19.971 5.52517 19.1624 5 18.2754 5H15V2.75C15 1.51625 13.9838 0.5 12.75 0.5L2.25 0.500001ZM2.25 2H12.75C13.1733 2 13.5 2.32675 13.5 2.75V5.75V14.5H7.89258C7.56288 13.3508 6.49987 12.5 5.25 12.5C4.00013 12.5 2.93712 13.3508 2.60742 14.5H2.25C1.82675 14.5 1.5 14.1733 1.5 13.75V2.75C1.5 2.32675 1.82675 2 2.25 2ZM15 6.5H18.2754C18.5741 6.5 18.8389 6.67254 18.96 6.94531L19.873 9H15V6.5ZM15 10.5H20.4932C20.4953 10.5228 20.5 10.5456 20.5 10.5684V13.75C20.5 14.1733 20.1733 14.5 19.75 14.5H19.3926C19.0629 13.3508 17.9999 12.5 16.75 12.5C16.087 12.5 15.4768 12.7396 15 13.1357V10.5ZM5.25 14C5.92437 14 6.45724 14.5164 6.49316 15.1807C6.48888 15.2268 6.48888 15.2732 6.49316 15.3193C6.45724 15.9836 5.92437 16.5 5.25 16.5C4.57563 16.5 4.04276 15.9836 4.00684 15.3193C4.01112 15.2732 4.01112 15.2268 4.00684 15.1807C4.04276 14.5164 4.57563 14 5.25 14ZM16.75 14C17.4482 14 18 14.5518 18 15.25C18 15.9482 17.4482 16.5 16.75 16.5C16.0518 16.5 15.5 15.9482 15.5 15.25C15.5 14.5518 16.0518 14 16.75 14Z" fill="#009FE3"/>
</svg>
