<svg width="15" height="15" viewBox="0 0 15 15" fill="none" xmlns="http://www.w3.org/2000/svg">
<path d="M10.1294 5.75444C10.3735 5.51036 10.3735 5.11464 10.1294 4.87056C9.88536 4.62648 9.48963 4.62648 9.24556 4.87056L4.87056 9.24556C4.62648 9.48963 4.62648 9.88536 4.87056 10.1294C5.11464 10.3735 5.51036 10.3735 5.75444 10.1294L10.1294 5.75444Z" fill="#101C29"/>
<path d="M4.87056 4.87056C5.11464 4.62648 5.51036 4.62648 5.75444 4.87056L6.37944 5.49556C6.62352 5.73964 6.62352 6.13536 6.37944 6.37944C6.13536 6.62352 5.73964 6.62352 5.49556 6.37944L4.87056 5.75444C4.62648 5.51036 4.62648 5.11464 4.87056 4.87056Z" fill="#101C29"/>
<path d="M9.50444 8.62056C9.26036 8.37648 8.86464 8.37648 8.62056 8.62056C8.37648 8.86464 8.37648 9.26036 8.62056 9.50444L9.24556 10.1294C9.48963 10.3735 9.88536 10.3735 10.1294 10.1294C10.3735 9.88536 10.3735 9.48963 10.1294 9.24556L9.50444 8.62056Z" fill="#101C29"/>
<path fill-rule="evenodd" clip-rule="evenodd" d="M7.5 0.625C3.70304 0.625 0.625 3.70304 0.625 7.5C0.625 11.297 3.70304 14.375 7.5 14.375C11.297 14.375 14.375 11.297 14.375 7.5C14.375 3.70304 11.297 0.625 7.5 0.625ZM1.875 7.5C1.875 4.3934 4.3934 1.875 7.5 1.875C10.6066 1.875 13.125 4.3934 13.125 7.5C13.125 10.6066 10.6066 13.125 7.5 13.125C4.3934 13.125 1.875 10.6066 1.875 7.5Z" fill="#101C29"/>
</svg>
