<svg width="22" height="20" viewBox="0 0 22 20" fill="none" xmlns="http://www.w3.org/2000/svg">
<path fill-rule="evenodd" clip-rule="evenodd" d="M0 1C0 0.447715 0.447715 0 1 0H17C17.5523 0 18 0.447715 18 1V8H21C21.5523 8 22 8.44772 22 9V17C22 17.5523 21.5523 18 21 18H18.9142L17.7071 19.2071C17.3166 19.5976 16.6834 19.5976 16.2929 19.2071L15.0858 18H10C9.44771 18 9 17.5523 9 17V14H7.91421L6.20711 15.7071C5.81658 16.0976 5.18342 16.0976 4.79289 15.7071L3.08579 14H1C0.447715 14 0 13.5523 0 13V1ZM16 12V2H2V12H3.5C3.76522 12 4.01957 12.1054 4.20711 12.2929L5.5 13.5858L6.79289 12.2929C6.98043 12.1054 7.23478 12 7.5 12H16ZM17 14H11V16H15.5C15.7652 16 16.0196 16.1054 16.2071 16.2929L17 17.0858L17.7929 16.2929C17.9804 16.1054 18.2348 16 18.5 16H20V10H18V13C18 13.5523 17.5523 14 17 14ZM4 7C4 6.44772 4.44772 6 5 6H5.5C6.05228 6 6.5 6.44772 6.5 7C6.5 7.55228 6.05228 8 5.5 8H5C4.44772 8 4 7.55228 4 7ZM7.5 7C7.5 6.44772 7.94772 6 8.5 6H9C9.55229 6 10 6.44772 10 7C10 7.55228 9.55229 8 9 8H8.5C7.94772 8 7.5 7.55228 7.5 7ZM11 7C11 6.44772 11.4477 6 12 6H12.5C13.0523 6 13.5 6.44772 13.5 7C13.5 7.55228 13.0523 8 12.5 8H12C11.4477 8 11 7.55228 11 7Z" fill="#009FE3"/>
</svg>
