<svg width="32" height="32" fill="none" xmlns="http://www.w3.org/2000/svg"><g clip-path="url(#a)" fill-rule="evenodd" clip-rule="evenodd"><path d="M9.4 16.1C7.4 14.8 4.7 9.6 4.3 6a24.4 24.4 0 0 0 .6 9.4l1.2.2c.8-.1 2 0 3.3.5Z" fill="#009FE3"/><path d="M10 20.5c-2-1.3-2.8-2.6-2.2-2.8.4-.2 1.3.1 2.4.6v-.5c.9.1 2 .4 3 .9v-.2c-1-.4-2.1-.7-2.9-.8V17.4l.1-.6a11 11 0 0 1 4.1 1.4V18l-2.3-1c-.6 0-1.2-.2-1.7-.3V16.4l.1-.6c.8 0 1.8.2 2.6.6v-.2c-.8-.3-1.8-.4-2.5-.5v-.2l.1-.5a14.2 14.2 0 0 1 3.8 1v-.2a12.7 12.7 0 0 0-3.7-.9v-.3l.2-.4c.7 0 1.6.1 2.4.4v-.2l-2.4-.3.1-.2.2-.4c1 0 2.6.3 3.3.6v-.2l-3.3-.5.1-.2.1-.3c.7 0 1.6.1 2.2.3V13a11 11 0 0 0-2.1-.2v-.1h.1v-.1l.1-.1a24.3 24.3 0 0 1 3 .3v-.1l-1.3-.2-1.6-.1v-.1H12.4a16.8 16.8 0 0 1 7.2 0h.2l.2.1a23.4 23.4 0 0 0-3 .3v.1l1.5-.2 1.5-.1h.1v.1l.1.2c-.6 0-1.5 0-2.1.2v.2c.7-.2 1.5-.3 2.2-.3l.1.2v.1l.1.2c-1 0-2.5.3-3.3.5v.2c.8-.3 2.3-.5 3.4-.6l.1.3v.1l.1.2c-.7 0-1.6.1-2.3.3v.2c.7-.3 1.7-.4 2.4-.4v.3h.1v.4a13.7 13.7 0 0 0-3.6.9v.1A12 12 0 0 1 21 15l.1.4V15.8c-.7 0-1.7.2-2.5.5v.2a10 10 0 0 1 2.6-.6l.1.5v.4a10.8 10.8 0 0 0-4 1.3v.2c.7-.4 1.6-.8 2.5-1l1.6-.4.1.6v.3c-.7 0-1.9.3-2.8.8v.1c1-.4 2-.7 2.9-.8v.5c1.1-.5 2-.8 2.4-.7.7.3 0 1.5-2.1 2.8v1.1a7 7 0 0 0-1.8.5l-2.8 1.4v.2c.5-.3 1.7-1 2.9-1.5.6-.2 1.2-.4 1.7-.4v1h.1c.6 1.4.4 3.4.4 4 .1-.4.3-2.6-.3-4v-.2l.2-.1v.1l.5-.2.3.7.3 2.1.3-.2v-.1l-.2.1a9.2 9.2 0 0 0-.6-2.7V22l.2-.2v.2l.4-.2c.7 1.2.7 3.2.6 3.8l.1-.1a9 9 0 0 0-.6-3.8v-.2l.2-.1v.1c.2 0 .3-.2.4-.3.5 1 .7 2.2.7 2.7l.3-.2v-.1l-.2.1c0-.5-.2-1.6-.7-2.6v-.2l.2-.2v.2l.3-.3a9 9 0 0 1 .8 3.7h.1c0-.4 0-2.4-.8-3.8v-.1l.1-.2.1.1.4-.3c.4 1 .7 2.1.7 2.6l.3-.3v-.1l-.2.2c0-.5-.3-1.6-.8-2.5v-.2l.1-.3.1.2.2-.2a9 9 0 0 1 1 3.5l.1-.1c0-.4-.2-2.3-1-3.6l-.1-.1.2-.3v.2l.2-.3c.6.9.9 1.9 1 2.4l.2-.4-.2.2c0-.5-.4-1.5-.9-2.3v-.1h-.1l.1-.3.2.1v-.2a9.4 9.4 0 0 1 1.3 3.4v-.2c0-.4-.3-2.2-1.2-3.4v-.4l.2.1v-.2c.6.8 1 1.8 1.1 2.3l.2-.4v-.1l-.2.2c-.1-.4-.5-1.4-1-2.2V17h-.1v-.5l.1.2c1 1 1.4 2.9 1.5 3.3l.1-.2c0-.3-.6-2.3-1.6-3.4v-.1h-.1v-.1h-.1c0-.2-.2-.3-.3-.4v-.1c.4.2.8.5 1 1 1 .9 1.6 1.7 2.3 2.9l.4 1-.8-.2-.5 1.3h.1l.4-1.2.8.3.1.7-.6-.2v.2l.6.1v.7c-.6-.3-1.3-.4-1.5-.4a10.3 10.3 0 0 1-.8 1.4 19.3 19.3 0 0 0 .8-1.2c.3 0 .9 0 1.4.4l-.1.6-1-.3-.1.2 1 .3-.3.7c-.7-.3-1.6-.4-2-.4-.2.4-.6.8-1 1.2h.2l.9-1c.3 0 1.1 0 1.9.3l-.3.5-1.3-.3v.2l1.2.3-.4.6c-1-.4-2.2-.3-2.4-.3l-1.3 1.1h.1l1.2-1c.2 0 1.4 0 2.3.3l-.5.6a6 6 0 0 0-1.5-.2l-.1.1c.2 0 .9 0 1.5.3l-.6.5v.2c-1.2-.5-2.6-.5-2.8-.5l-1.5 1h.1l1.4-.8a9 9 0 0 1 2.6.4h-.1l-.5.5-.1.1h-.1l-1.4-.4-.1.1 1.4.4-.7.6h-.2c-1.1-.4-2.4-.6-2.7-.6l-1.1.6 1-.5c.3 0 1.6.2 2.7.7l-1 .5-1.3-.4v.1l1.2.4c-2.5 1.3-5.6 2-8.6 2s-6-.6-8.5-2l1.3-.4h-.2l-1.3.3a23 23 0 0 1-1-.5c1.2-.5 2.4-.7 2.7-.7l1.1.6v-.1a19 19 0 0 1-1.1-.6c-.3 0-1.6.2-2.8.7l-.1-.1-.8-.6 1.5-.4h-.1c-.5 0-1 .1-1.4.3l-.2-.1a12 12 0 0 1-.5-.4l-.1-.1a9 9 0 0 1 2.6-.4l1.4.8-1.4-1c-.3 0-1.7 0-2.7.5l-.2-.2-.5-.5L5 26l-.1-.1c-.3 0-1 0-1.5.2l-.5-.6c.9-.3 2-.3 2.3-.3l1.2 1h.1c-.5-.3-1-.7-1.3-1.1-.2 0-1.5 0-2.4.3l-.4-.6 1.2-.3v-.2l-1.3.3-.3-.5a7 7 0 0 1 2-.3l.8 1h.1l-1-1.2c-.3 0-1.2 0-2 .4a7 7 0 0 1-.2-.7c.3-.2.7-.3 1-.3v-.2c-.4 0-.7.2-1 .3l-.3-.6c.6-.3 1.2-.4 1.5-.4a11.2 11.2 0 0 0 .7 1.2h.1A10.3 10.3 0 0 1 3 22c-.2 0-.9.1-1.5.4v-.7l.7-.1v-.2c-.2 0-.5 0-.7.2v-.7l.9-.3a7.8 7.8 0 0 1 0-.2l-.8.3c0-.3.2-.7.4-1a13 13 0 0 1 2.2-3 3 3 0 0 1 1-1v.2l-.2.4h-.1v.1h-.1v.1c-1 1-1.5 3.1-1.6 3.4v.2c.1-.4.6-2.3 1.5-3.4v.1l.2-.2v.6h-.1c-.5.8-.9 1.8-1 2.2l-.1-.2v.5c.2-.5.6-1.5 1.1-2.3l.1.2.2-.1v.4c-.9 1.2-1.2 3-1.3 3.4l.1.2c0-.6.4-2.3 1.2-3.4l.1.2.1-.1.2.2-.1.2c-.6.8-.8 1.8-1 2.3v-.2h-.1l.2.4c.1-.5.4-1.5 1-2.4v.3l.2-.2.2.3h-.1v.1c-.8 1.3-1 3.2-1 3.6a9 9 0 0 1 1-3.4l.2.2.1-.2.2.3v.2c-.5 1-.7 2-.8 2.5l-.2-.2v.1l.2.3.8-2.6.3.3.1-.1.2.2v.1a9.3 9.3 0 0 0-.9 3.7l.1.1c0-.5.1-2.4.8-3.7l.3.3.1-.2.2.2v.2c-.5 1-.7 2.1-.7 2.6l-.2-.1c0 .2.2.3.3.3 0-.5.2-1.7.7-2.7l.3.3.1-.1.3.1v.1H8a9 9 0 0 0-.7 3.9h.1c0-.5 0-2.5.7-3.7l.3.2v-.2l.3.2v.2a9.5 9.5 0 0 0-.5 2.7l-.3-.1v.1l.3.2a9.7 9.7 0 0 1 .6-2.8l.4.2v-.1l.4.1v.1h-.1a9 9 0 0 0-.4 4h.1c0-.5-.2-2.5.4-3.8v-1.1c.6 0 1.2.2 1.8.4a15 15 0 0 1 2.9 1.5v-.2c-.5-.3-1.6-1-2.8-1.4a7 7 0 0 0-1.8-.5V21.2c0-.4 0-.5.2-.7Zm11.9-1.6v.1a16.6 16.6 0 0 0-4.4 1.7v-.2a17 17 0 0 1 4.4-1.6Zm0 1.2c-.8.3-2 .6-3 1.2V21c1-.6 2.3-.9 3-1Zm.2 3c-.7 0-2 .4-3.2 1.1v.2c1.1-.7 2.4-1 3.2-1.2V23Zm0 1.6c-.5 0-1.2.3-1.8.5-1.2.4-2.4 1.1-3 1.5v.1a20.2 20.2 0 0 1 4.8-2v-.1Zm0 1.2c-1 .2-2.2.6-3.7 1.4v.1c1.2-.6 2.6-1.1 3.7-1.4V26Zm0 1.4H22v.1a15 15 0 0 0 6-5.3c.3-.4.6-.8.7-1.2v-.1a15 15 0 0 1-6.6 6.5Zm-4.5-14.4c.1 0 .2 0 .2.2l-.2.1-.2-.1.2-.2Zm1.5.9h.2c0 .2-.1.2-.2.2l-.2-.1.2-.1Zm-1.4.7c.2 0 .3.1.3.2 0 .2-.1.2-.3.2 0 0-.2 0-.2-.2l.2-.2Zm1.2 1c.2 0 .2.2.2.3l-.2.1-.2-.1.2-.2Zm-.6 1 .2.3c0 .1 0 .2-.2.2a.2.2 0 0 1-.2-.2c0-.1 0-.2.2-.2Zm1.7.8c.1 0 .2.1.2.3 0 0 0 .2-.2.2a.2.2 0 0 1-.3-.2c0-.2.1-.3.3-.3ZM18 18.7c.2 0 .3.1.3.3 0 .1-.1.2-.3.2a.2.2 0 0 1-.2-.2c0-.2 0-.3.2-.3Zm1.3 1.3s.2 0 .2.2l-.2.3a.2.2 0 0 1-.3-.3c0-.1.1-.2.3-.2Zm-.8 1.6.2.3c0 .2 0 .3-.2.3a.3.3 0 0 1-.3-.3c0-.1.1-.3.3-.3Zm1.6 1.1.2.3c0 .1 0 .3-.2.3a.3.3 0 0 1-.3-.3c0-.1.1-.3.3-.3Zm-2 1.6s.2.1.2.3c0 .1-.1.3-.3.3a.3.3 0 0 1-.3-.3c0-.2.2-.3.3-.3Zm1.3 1.7c.1 0 .2 0 .2.2s0 .3-.2.3a.3.3 0 0 1-.3-.3c0-.1.1-.2.3-.2Zm-1.7 2c.2 0 .3.2.3.3 0 .2-.1.3-.3.3-.1 0-.3-.1-.3-.3l.3-.2Zm6.3-2.9h-.3v.3h.3v-.3Zm1.1 2L25 27s-.2 0-.2.2l.2.1.2-.1Zm2.5-1.5-.2-.1c-.1 0-.2 0-.2.2 0 0 0 .1.2 0h.2Zm-1.1.7-.2-.2-.2.2c0 .1 0 .2.2.2l.2-.2Zm2.1-1.4-.2-.1s-.2 0-.1.2h.2l.1-.1Zm-.5-.7h-.3s-.1 0 0 .2h.2s.1-.1 0-.2Zm.7-1h-.2s-.1.1 0 .2h.1c.1 0 .1-.1 0-.2Zm.8-.7h-.2v.2h.2v-.2Zm0-1h-.3v.3h.2v-.2Zm-4.3 6.3-.2-.1-.2.1c0 .1 0 .2.2.2 0 0 .2 0 .2-.2Zm.1-3.6h-.3v.3h.3v-.3Zm-.7-.9h-.3v.3h.2v-.3Zm2-.7h-.2v.2c0 .1.2 0 .2 0v-.2Zm-.7-.2c-.1-.1-.2 0-.2 0v.2h.2v-.2Zm1.4-.7h-.2v.2c0 .1.1 0 .2 0v-.2Zm-.4-1H27v.2h.1c.1 0 .1-.1 0-.2Zm1.4-.6h-.2v.2h.2v-.2Zm-5.2 5H23v.3h.3V25Zm-13.2-6.2v.1c.5 0 1 .2 1.6.4 1.2.4 2.4 1 2.8 1.3v-.2a17 17 0 0 0-4.4-1.6Zm0 1.2c.7.3 2 .6 3 1.2V21c-1-.6-2.3-.9-3-1Zm-.2 3c.7 0 2 .4 3.2 1.1v.2c-1.1-.7-2.4-1-3.2-1.2V23Zm0 1.6c.5 0 1.2.3 1.8.5 1.2.4 2.4 1.1 3 1.5v.1a20.2 20.2 0 0 0-4.8-2v-.1Zm0 1.2c1 .2 2.1.6 3.7 1.4v.1c-1.2-.6-2.6-1.1-3.7-1.4V26Zm0 1.4h.1v.1a15 15 0 0 1-6-5.3c-.3-.4-.6-.8-.7-1.2v-.1a15 15 0 0 0 6.6 6.5Zm4.5-14.4c-.1 0-.2 0-.2.2l.2.1.2-.1-.2-.2Zm-1.5.9h-.2c0 .2.1.2.2.2l.2-.1-.2-.1Zm1.4.7c-.2 0-.3.1-.3.2 0 .2.1.2.3.2 0 0 .2 0 .2-.2l-.2-.2Zm-1.2 1c-.2 0-.2.2-.2.3l.2.1.2-.1-.2-.2Zm.6 1-.2.3c0 .1 0 .2.2.2.1 0 .2 0 .2-.2 0-.1 0-.2-.2-.2Zm-1.7.8c-.1 0-.2.1-.2.3 0 0 0 .2.2.2s.3-.1.3-.2c0-.2-.1-.3-.3-.3Zm1.9 1.4c-.2 0-.3.1-.3.3 0 .1.1.2.3.2l.2-.2c0-.2 0-.3-.2-.3ZM12.6 20s-.2 0-.2.2l.2.3c.2 0 .3-.2.3-.3 0-.1-.1-.2-.3-.2Zm.8 1.6-.2.3c0 .2 0 .3.2.3s.3-.1.3-.3c0-.1-.1-.3-.3-.3Zm-1.6 1.1-.2.3c0 .1 0 .3.2.3s.3-.2.3-.3c0-.1-.1-.3-.3-.3Zm2 1.6s-.2.1-.2.3c0 .1.1.3.3.3l.3-.3c0-.2-.2-.3-.3-.3ZM12.6 26c-.1 0-.3 0-.3.2s.2.3.3.3c.2 0 .3-.1.3-.3 0-.1-.1-.2-.3-.2Zm1.7 2c-.2 0-.3.2-.3.3 0 .2.1.3.3.3.1 0 .3-.1.3-.3l-.3-.2Zm-6.3-2.9h.3v.3h-.3v-.3Zm-1.1 2L7 27s.2 0 .2.2l-.2.1-.2-.1Zm-2.5-1.5.2-.1c.1 0 .2 0 .2.2 0 0 0 .1-.2 0h-.2Zm1.1.7.2-.2.2.2c0 .1 0 .2-.2.2l-.2-.2Zm-2.1-1.4.2-.1s.2 0 .1.2h-.2l-.1-.1Zm.5-.7h.3s.1 0 0 .2H4s-.1-.1 0-.2Zm-.7-1h.2s.1.1 0 .2h-.1c-.1 0-.1-.1 0-.2Zm-.8-.7h.2v.2h-.2v-.2Zm0-1h.3v.3h-.2v-.2Zm4.3 6.3.2-.1.2.1c0 .1 0 .2-.2.2 0 0-.2 0-.2-.2Zm-.1-3.6h.3v.3h-.3v-.3Zm.7-1.3h.3v.3h-.2v-.3Zm-2-.3h.2v.2c0 .1-.2 0-.2 0v-.2Zm.6-.4H6v.3h-.2v-.3ZM4 21.3h.2v.3h-.2v-.3Zm.8-1H5c.1 0 0 .2 0 .2H5c-.1 0-.1-.1 0-.2Zm-1.4-.6h.2v.2h-.2v-.2Zm5.2 5H9v.3h-.3v-.3Z" fill="#000"/><path d="M11.8 11.4C13 7.2 14.5 3.4 16 0c1.5 3.4 3 7.2 4.2 11.4a24.9 24.9 0 0 0-8.4 0ZM31.5 20.2c.4-1.6.6-2.5.4-5.1-.2-2.6-1.7-6.7-3.9-9.2a25.2 25.2 0 0 1-.6 9.5c1.7 1.4 3.1 3 4.1 4.8Z" fill="#009FE3"/><path d="M22.6 16.1c2-1.3 4.7-6.5 5.1-10.1a24.4 24.4 0 0 1-.6 9.4l-1.2.2a8 8 0 0 0-3.3.5ZM.5 20.2c-.4-1.6-.6-2.5-.4-5.1.2-2.6 1.7-6.7 3.9-9.2a25.2 25.2 0 0 0 .6 9.5c-1.7 1.4-3.1 3-4.1 4.8Z" fill="#009FE3"/></g><defs><clipPath id="a"><path fill="#fff" d="M0 0h32v32H0z"/></clipPath></defs></svg>