<svg width="150" height="21" fill="none" xmlns="http://www.w3.org/2000/svg"><path d="M147.1 16.2a2 2 0 0 0 2.1-2 2.1 2.1 0 0 0-3.6-1.6 2 2 0 0 0-.6 1.5 2 2 0 0 0 2.1 2.1Z" fill="#E72144"/><path d="M67.7 8.1h2.5c-.3-2.3-2.3-3.9-5-3.9-3 0-5.4 2.2-5.4 6 0 3.7 2.2 6 5.5 6 3 0 5-1.9 5-5V9.8h-4.8v1.8H68c0 1.5-1 2.4-2.7 2.4-1.8 0-3-1.4-3-3.8s1.2-3.8 3-3.8c1.3 0 2.1.6 2.4 1.7Zm4.4 7.9h2.5v-5c0-1 .7-1.7 1.8-1.7h1v-2l-.7-.2c-1 0-1.8.6-2.1 1.7h-.1V7.3H72V16Zm10.1.2c2.7 0 4.3-1.8 4.3-4.5S85 7.2 82.2 7.2C79.6 7.2 78 9 78 11.7s1.7 4.5 4.3 4.5Zm0-1.9c-1.2 0-1.8-1.1-1.8-2.6 0-1.6.6-2.7 1.8-2.7 1.2 0 1.9 1.1 1.9 2.7 0 1.5-.7 2.6-1.9 2.6Zm5.9 1.7h2.4v-2.8l.7-.7 2.3 3.5h2.9L93 11l3.2-3.7h-2.8l-2.8 3.3V4.4H88V16Zm11.7-5c0-1.2.7-1.8 1.7-1.8s1.6.6 1.6 1.7V16h2.4v-5.6c0-2-1.2-3.2-3-3.2-1.4 0-2.2.6-2.6 1.6h-.1V4.4h-2.4V16h2.4v-5Zm11.5 5.2c2.7 0 4.3-1.8 4.3-4.5s-1.6-4.5-4.3-4.5c-2.6 0-4.3 1.8-4.3 4.5s1.7 4.5 4.3 4.5Zm0-1.9c-1.2 0-1.8-1.1-1.8-2.6 0-1.6.6-2.7 1.8-2.7 1.2 0 1.9 1.1 1.9 2.7 0 1.5-.7 2.6-1.9 2.6Zm10.5-7h-1.6V5.2h-2.4v2h-1.2v1.9h1.2v4.5c0 1.7 1.1 2.6 2.9 2.5l1.3-.2-.4-1.8h-.6c-.5 0-.8-.1-.8-.8V9.1h1.6V7.3Zm5.5 8.9c2.6 0 4.3-1.8 4.3-4.5s-1.7-4.5-4.3-4.5c-2.7 0-4.3 1.8-4.3 4.5s1.6 4.5 4.3 4.5Zm0-1.9c-1.2 0-1.9-1.1-1.9-2.6 0-1.6.7-2.7 1.9-2.7s1.8 1.1 1.8 2.7c0 1.5-.6 2.6-1.8 2.6Zm13.7-7h-2.6l-1.8 6.2-1.9-6.2h-2.6l3.1 8.7h2.7l3-8.7Z" fill="#1F2432"/><path d="M11.7 6v10h-1.2V8.6a7.5 7.5 0 0 1 0-.6l-3.4 6.2c0 .3-.3.4-.5.4h-.2c-.2 0-.3-.1-.5-.4L2.4 8V16H1.4V6h1.3l.2.2 3.4 6.2a6 6 0 0 1 .3.7 8.8 8.8 0 0 1 .3-.7l3.4-6.2.2-.2h1.3Zm6 6.8-1.5.1-1 .3-.6.4-.2.6.1.5.3.3.4.2h1l.5-.2.5-.3.4-.4v-1.5ZM13.5 10a4 4 0 0 1 2.8-1.1c.4 0 .7 0 1 .2a2.2 2.2 0 0 1 1.3 1.4l.1 1V16H18l-.1-.3-.2-.7-.5.5-.6.3a3.2 3.2 0 0 1-2.1.2c-.3 0-.5-.2-.7-.3l-.4-.6-.1-.9c0-.3 0-.5.2-.8l.7-.7 1.4-.5 2-.2v-.5c0-.6 0-1-.3-1.3-.3-.3-.6-.4-1-.4a2.2 2.2 0 0 0-1.4.4l-.4.2-.3.1H14l-.2-.2-.2-.4Zm11.8.7a2 2 0 0 0-.8-.7l-.9-.1c-.7 0-1.2.2-1.5.7-.4.4-.6 1.1-.6 2 0 .4 0 .8.2 1.2 0 .3.2.6.3.8l.6.4.7.2c.5 0 .8-.1 1.1-.3l.9-.8v-3.4Zm1.2-5V16H26c-.2 0-.3 0-.4-.3V15l-1.1.9c-.4.2-.9.3-1.4.3-.4 0-.7 0-1-.2l-1-.7-.5-1.2a5.8 5.8 0 0 1 0-3l.7-1.2a2.8 2.8 0 0 1 2.2-1 2.5 2.5 0 0 1 2 .8v-4h1.2Zm6.7 6-.1-.7a1.7 1.7 0 0 0-1.7-1.2 2 2 0 0 0-1.4.5c-.4.4-.6.9-.7 1.5h4Zm1 3.4-.5.5a3.5 3.5 0 0 1-1.5.5l-.7.1c-.5 0-1 0-1.4-.2a3 3 0 0 1-1.8-2 4.8 4.8 0 0 1 0-3c.1-.4.4-.8.7-1a3 3 0 0 1 1-.8 3.4 3.4 0 0 1 2.6 0c.3 0 .6.3.9.5.3.3.5.6.6 1 .2.4.2.9.2 1.4v.4h-5c0 .5 0 .9.2 1.2l.4.9.7.5 1 .1a2.7 2.7 0 0 0 1.3-.3l.5-.3h.5l.3.5Zm6.5-.7c.2.3.5.5.8.6.2.2.5.2.9.2.6 0 1.1-.2 1.5-.7.3-.4.5-1.1.5-2 0-1-.1-1.6-.5-2-.3-.4-.7-.6-1.3-.6a2 2 0 0 0-1 .3c-.4.2-.6.4-.9.8v3.4Zm0-4.4 1-.8c.4-.2.8-.3 1.3-.3.4 0 .8 0 1.1.2.4.2.7.4.9.7l.5 1.1c.2.4.2 1 .2 1.5s0 1-.2 1.5c-.1.5-.3 1-.6 1.2a2.8 2.8 0 0 1-2.2 1.1c-.5 0-.9 0-1.2-.3-.3-.1-.6-.4-.9-.7v.6c0 .2-.2.3-.3.3h-.8V5.7h1.2v4.2Zm12.5-1-4 9.2v.2l-.4.1H48l1.3-2.8-3-6.7H47.8l.1.3 2 4.4.1.7.2-.7L52 9.2 52 9h1.2Z" fill="#797B86"/></svg>
