<svg width="84" height="120" viewBox="0 0 84 120" fill="none" xmlns="http://www.w3.org/2000/svg">
<path d="M64.1127 92.6896C64.1127 92.6896 71.6937 64.4819 71.6937 64.0445C71.6937 60.8739 67.7917 59.7806 62.9978 58.7966C65.2275 47.8634 71.6937 17.5784 71.6937 17.5784C71.6937 17.2504 71.6937 16.0478 69.5755 14.9544C67.0113 13.6424 60.5451 12.5491 52.7411 12.0025V6.64519C52.7411 5.11454 47.6128 3.03723 42.1499 3.03723C36.6871 3.03723 31.5588 5.11454 31.5588 6.64519V12.0025C24.0892 12.5491 17.5115 13.6424 14.6129 14.9544C13.4981 15.3918 12.7177 16.2664 12.6062 17.3597C12.6062 17.4691 12.6062 17.5784 12.6062 17.5784C12.6062 17.5784 18.9609 47.5354 21.3021 58.7966C16.5082 59.7806 12.6062 61.5299 12.6062 64.0445C12.6062 64.4819 20.1872 92.6896 20.1872 92.6896C11.2683 93.6736 5.02512 95.3135 3.68729 97.1722C2.68392 98.0468 3.46432 100.233 3.46432 100.889C3.46432 101.545 4.46769 102.967 5.69404 103.623L15.8393 113.572C15.8393 113.572 22.194 116.961 42.0385 116.961C61.883 116.961 68.1262 113.572 68.1262 113.572L78.0484 103.951C79.6092 103.185 80.8356 101.655 80.8356 100.889V97.9375C80.8356 95.7509 74.2579 93.8922 64.1127 92.6896V92.6896Z" stroke="#009FE3" stroke-width="3" stroke-miterlimit="22.9256"/>
<path d="M20.1896 92.6909L21.7504 98.5949" stroke="#009FE3" stroke-width="3" stroke-miterlimit="10" stroke-linecap="round" stroke-linejoin="round"/>
<path d="M64.1212 92.3621L62.6719 97.938" stroke="#009FE3" stroke-width="3" stroke-miterlimit="10" stroke-linecap="round" stroke-linejoin="round"/>
<path d="M21.303 58.7974L22.4178 62.952" stroke="#009FE3" stroke-width="3" stroke-miterlimit="10" stroke-linecap="round" stroke-linejoin="round"/>
<path d="M63.0012 58.5806L61.8864 62.8445" stroke="#009FE3" stroke-width="3" stroke-miterlimit="10" stroke-linecap="round" stroke-linejoin="round"/>
<path d="M71.6952 16.8127C71.6952 19.1087 58.6514 20.9674 42.4859 20.9674C26.3205 20.9674 13.2766 19.1087 13.2766 16.8127" stroke="#009FE3" stroke-width="3" stroke-miterlimit="22.9256" stroke-linecap="round" stroke-linejoin="round"/>
<path d="M71.6902 63.9368C71.6902 67.6541 58.5348 70.606 42.1464 70.606C25.8694 70.606 12.7141 67.6541 12.7141 63.9368" stroke="#009FE3" stroke-width="3" stroke-miterlimit="22.9256" stroke-linecap="round" stroke-linejoin="round"/>
<path d="M61.8842 62.8447C61.8842 64.594 52.9653 66.0154 42.0397 66.0154C31.1141 66.0154 22.1952 64.594 22.1952 62.8447" stroke="#009FE3" stroke-width="3" stroke-miterlimit="22.9256" stroke-linecap="round" stroke-linejoin="round"/>
<path d="M80.8274 97.9395C80.8274 102.969 63.4356 107.123 42.0303 107.123C20.625 107.123 3.23315 102.969 3.23315 97.9395" stroke="#009FE3" stroke-width="3" stroke-miterlimit="22.9256" stroke-linecap="round" stroke-linejoin="round"/>
<path d="M62.6711 98.0493C62.6711 99.7986 53.4177 101.329 42.0462 101.329C30.6746 101.329 21.4213 99.7986 21.4213 98.0493" stroke="#009FE3" stroke-width="3" stroke-miterlimit="22.9256" stroke-linecap="round" stroke-linejoin="round"/>
<path d="M52.7402 12.0044C52.7402 12.9884 47.9463 13.6444 42.149 13.6444C36.2403 13.6444 31.5579 12.9884 31.5579 12.0044" stroke="#009FE3" stroke-width="3" stroke-miterlimit="22.9256" stroke-linecap="round" stroke-linejoin="round"/>
</svg>
