<svg width="22" height="20" viewBox="0 0 22 20" fill="none" xmlns="http://www.w3.org/2000/svg">
<path fill-rule="evenodd" clip-rule="evenodd" d="M10.3753 0.219131C10.7406 -0.0730437 11.2595 -0.0730437 11.6247 0.219131L19.1245 6.21897C19.1246 6.21902 19.1245 6.21891 19.1245 6.21897L21.6247 8.21913C22.056 8.56414 22.1259 9.19343 21.7809 9.62469C21.4359 10.056 20.8066 10.1259 20.3753 9.78087L19.5 9.08062V19C19.5 19.5523 19.0523 20 18.5 20H3.50004C2.94775 20 2.50004 19.5523 2.50004 19V9.08062L1.62473 9.78087C1.19347 10.1259 0.564178 10.056 0.219168 9.62469C-0.125842 9.19343 -0.0559202 8.56414 0.375342 8.21913L2.87534 6.21913C2.87544 6.21905 2.87524 6.21921 2.87534 6.21913L10.3753 0.219131ZM4.50004 7.48062L11 2.28062L17.5 7.48062V18H14.5V12.5C14.5 11.9477 14.0523 11.5 13.5 11.5H8.50004C7.94775 11.5 7.50004 11.9477 7.50004 12.5V18H4.50004V7.48062ZM9.50004 18H12.5V13.5H9.50004V18Z" fill="#009FE3"/>
</svg>
