<svg width="42" height="37" viewBox="0 0 42 37" fill="none" xmlns="http://www.w3.org/2000/svg">
<path d="M20.9863 0.000181922C20.9119 0.00225169 20.8388 0.0209348 20.7725 0.0548679L0.272462 10.5549C0.105215 10.6404 -2.03459e-05 10.8124 2.95053e-09 11.0002V16.0002C-2.90403e-06 16.1743 0.0905262 16.3358 0.238997 16.4267C0.387471 16.5176 0.572517 16.5247 0.727538 16.4455L2 15.7941V36.5002C2.00003 36.7763 2.22387 37.0002 2.5 37.0002H39.5C39.7761 37.0002 40 36.7763 40 36.5002L39.999 15.7931L41.2725 16.4455C41.4275 16.5247 41.6125 16.5176 41.761 16.4267C41.9095 16.3358 42 16.1743 42 16.0002V11.0002C42 10.8123 41.8948 10.6404 41.7275 10.5549L21.2275 0.0548679C21.153 0.0167284 21.07 -0.0020768 20.9863 0.000181922H20.9863ZM21 1.06171L41 11.3058V15.1818L21.2275 5.05487C21.0846 4.98184 20.9154 4.98184 20.7725 5.05487L0.999997 15.1818V11.3058L21 1.06171ZM21 6.0617L38.999 15.2814L39 36.0002H34.5V20.2902C34.5044 20.2634 34.5044 20.236 34.5 20.2092V17.7502C34.5 16.7866 33.7136 16.0002 32.75 16.0002H9.25C8.28642 16.0002 7.5 16.7866 7.5 17.7502V20.2101C7.49559 20.237 7.49559 20.2644 7.5 20.2912V36.0002H3V15.2814L21 6.0617ZM18.75 11.0002C18.3387 11.0002 18 11.3389 18 11.7502V13.2502C18 13.6614 18.3387 14.0002 18.75 14.0002H23.25C23.6613 14.0002 24 13.6614 24 13.2502V11.7502C24 11.3389 23.6613 11.0002 23.25 11.0002H18.75ZM18.75 11.5002H23.25C23.3907 11.5002 23.5 11.6094 23.5 11.7502V13.2502C23.5 13.3909 23.3907 13.5002 23.25 13.5002H18.75C18.6093 13.5002 18.5 13.3909 18.5 13.2502V11.7502C18.5 11.6094 18.6093 11.5002 18.75 11.5002ZM9.25 16.5002H32.75C33.4434 16.5002 34 17.0568 34 17.7502V20.0002H8V17.7502C8 17.0568 8.55658 16.5002 9.25 16.5002ZM19.75 18.0002C19.6598 17.9989 19.576 18.0463 19.5305 18.1241C19.4851 18.202 19.4851 18.2983 19.5305 18.3762C19.576 18.4541 19.6598 18.5015 19.75 18.5002H22.25C22.3402 18.5015 22.424 18.4541 22.4695 18.3762C22.5149 18.2983 22.5149 18.202 22.4695 18.1241C22.424 18.0463 22.3402 17.9989 22.25 18.0002H19.75ZM8 20.5002H34V36.0002H30.9697C31.2958 35.682 31.5 35.2397 31.5 34.7502V27.7502C31.5 26.7866 30.7136 26.0002 29.75 26.0002H22.5C21.8492 26.0002 21.3015 26.3747 21 26.9045C20.6985 26.3747 20.1508 26.0002 19.5 26.0002H12.25C11.2864 26.0002 10.5 26.7866 10.5 27.7502V34.7502C10.5 35.2397 10.7042 35.682 11.0303 36.0002H8V20.5002ZM12.25 26.5002H19.5C20.1934 26.5002 20.75 27.0568 20.75 27.7502V34.7502C20.75 35.4436 20.1934 36.0002 19.5 36.0002H12.25C11.5566 36.0002 11 35.4436 11 34.7502V27.7502C11 27.0568 11.5566 26.5002 12.25 26.5002ZM22.5 26.5002H29.75C30.4434 26.5002 31 27.0568 31 27.7502V34.7502C31 35.4436 30.4434 36.0002 29.75 36.0002H22.5C21.8066 36.0002 21.25 35.4436 21.25 34.7502V27.7502C21.25 27.0568 21.8066 26.5002 22.5 26.5002ZM14 28.5002C13.8197 28.4976 13.652 28.5924 13.5611 28.7481C13.4702 28.9039 13.4702 29.0965 13.5611 29.2522C13.652 29.408 13.8197 29.5027 14 29.5002H17.5C17.6803 29.5027 17.848 29.408 17.9389 29.2522C18.0298 29.0965 18.0298 28.9039 17.9389 28.7481C17.848 28.5924 17.6803 28.4976 17.5 28.5002H14ZM24.5 28.5002C24.3197 28.4976 24.152 28.5924 24.0611 28.7481C23.9701 28.9039 23.9701 29.0965 24.0611 29.2522C24.152 29.408 24.3197 29.5027 24.5 29.5002H28C28.1803 29.5027 28.348 29.408 28.4389 29.2522C28.5298 29.0965 28.5298 28.9039 28.4389 28.7481C28.348 28.5924 28.1803 28.4976 28 28.5002H24.5Z" fill="black"/>
</svg>
