<svg width="15" height="10" viewBox="0 0 15 10" fill="none" xmlns="http://www.w3.org/2000/svg">
<path fill-rule="evenodd" clip-rule="evenodd" d="M6.4375 0.25C6.8287 0.25 7.14583 0.567131 7.14583 0.958333V1.66667H14.2292C14.6204 1.66667 14.9375 1.9838 14.9375 2.375C14.9375 2.7662 14.6204 3.08333 14.2292 3.08333H7.14583V3.79167C7.14583 4.18287 6.8287 4.5 6.4375 4.5C6.0463 4.5 5.72917 4.18287 5.72917 3.79167V0.958333C5.72917 0.567131 6.0463 0.25 6.4375 0.25ZM0.0625 2.375C0.0625 1.9838 0.379632 1.66667 0.770833 1.66667H3.60417C3.99537 1.66667 4.3125 1.9838 4.3125 2.375C4.3125 2.7662 3.99537 3.08333 3.60417 3.08333H0.770833C0.379632 3.08333 0.0625 2.7662 0.0625 2.375ZM8.5625 5.20833C8.9537 5.20833 9.27083 5.52546 9.27083 5.91667V8.75C9.27083 9.1412 8.9537 9.45833 8.5625 9.45833C8.1713 9.45833 7.85417 9.1412 7.85417 8.75V8.04167H0.770833C0.379632 8.04167 0.0625 7.72453 0.0625 7.33333C0.0625 6.94213 0.379632 6.625 0.770833 6.625H7.85417V5.91667C7.85417 5.52546 8.1713 5.20833 8.5625 5.20833ZM10.6875 7.33333C10.6875 6.94213 11.0046 6.625 11.3958 6.625H13.5208C13.912 6.625 14.2292 6.94213 14.2292 7.33333C14.2292 7.72453 13.912 8.04167 13.5208 8.04167H11.3958C11.0046 8.04167 10.6875 7.72453 10.6875 7.33333Z" fill="#009FE3"/>
</svg>
