<svg width="30" height="30" viewBox="0 0 30 30" fill="none" xmlns="http://www.w3.org/2000/svg">
<circle cx="15" cy="15" r="15" fill="#4198F7"/>
<path d="M22.3336 18.7812C22.1808 19.5832 21.5315 20.1944 20.7294 20.3089C19.469 20.4999 17.3683 20.7291 15.0002 20.7291C12.6704 20.7291 10.5697 20.4999 9.27105 20.3089C8.46897 20.1944 7.81966 19.5832 7.66688 18.7812C7.51411 17.9027 7.36133 16.6041 7.36133 14.9999C7.36133 13.3958 7.51411 12.0971 7.66688 11.2187C7.81966 10.4166 8.46897 9.80547 9.27105 9.69089C10.5315 9.49992 12.6322 9.27075 15.0002 9.27075C17.3683 9.27075 19.4308 9.49992 20.7294 9.69089C21.5315 9.80547 22.1808 10.4166 22.3336 11.2187C22.4863 12.0971 22.6773 13.3958 22.6773 14.9999C22.6391 16.6041 22.4863 17.9027 22.3336 18.7812Z" fill="white"/>
<path d="M13.4727 17.6736V12.3264L18.056 15L13.4727 17.6736Z" fill="#487CE8"/>
</svg>
