<svg width="30" height="30" viewBox="0 0 30 30" fill="none" xmlns="http://www.w3.org/2000/svg">
<circle cx="15" cy="15" r="15" fill="#4198F7"/>
<path fill-rule="evenodd" clip-rule="evenodd" d="M15.0008 6C12.5566 6 12.2498 6.01069 11.2898 6.05438C10.3317 6.09825 9.67766 6.24994 9.10541 6.47251C8.51346 6.70238 8.01133 7.00989 7.51108 7.51033C7.01045 8.01058 6.70294 8.51271 6.47232 9.10447C6.24919 9.67691 6.09731 10.3311 6.05419 11.2889C6.01125 12.2489 6 12.5558 6 15.0001C6 17.4444 6.01088 17.7502 6.05438 18.7102C6.09844 19.6683 6.25013 20.3223 6.4725 20.8946C6.70257 21.4865 7.01007 21.9887 7.51052 22.4889C8.01058 22.9896 8.51271 23.2978 9.10428 23.5277C9.67691 23.7503 10.3311 23.9019 11.2891 23.9458C12.2491 23.9895 12.5556 24.0002 14.9997 24.0002C17.4442 24.0002 17.75 23.9895 18.71 23.9458C19.6681 23.9019 20.3229 23.7503 20.8955 23.5277C21.4873 23.2978 21.9887 22.9896 22.4887 22.4889C22.9894 21.9887 23.2969 21.4865 23.5275 20.8948C23.7487 20.3223 23.9006 19.6681 23.9456 18.7104C23.9888 17.7504 24 17.4444 24 15.0001C24 12.5558 23.9888 12.2491 23.9456 11.2891C23.9006 10.3309 23.7487 9.67691 23.5275 9.10466C23.2969 8.51271 22.9894 8.01058 22.4887 7.51033C21.9881 7.0097 21.4875 6.7022 20.895 6.47251C20.3212 6.24994 19.6668 6.09825 18.7087 6.05438C17.7487 6.01069 17.4431 6 14.998 6H15.0008ZM14.1946 7.6217C14.4342 7.62132 14.7016 7.6217 15.0019 7.6217C17.405 7.6217 17.6898 7.63032 18.6387 7.67345C19.5162 7.71357 19.9925 7.8602 20.3097 7.98339C20.7298 8.14651 21.0292 8.34152 21.344 8.65652C21.659 8.97152 21.854 9.27153 22.0175 9.69153C22.1407 10.0084 22.2875 10.4847 22.3275 11.3622C22.3706 12.3109 22.38 12.5959 22.38 14.9978C22.38 17.3997 22.3706 17.6847 22.3275 18.6335C22.2873 19.511 22.1407 19.9873 22.0175 20.3041C21.8544 20.7241 21.659 21.0232 21.344 21.338C21.029 21.653 20.7299 21.848 20.3097 22.0112C19.9929 22.1349 19.5162 22.2812 18.6387 22.3213C17.69 22.3644 17.405 22.3738 15.0019 22.3738C12.5987 22.3738 12.3139 22.3644 11.3652 22.3213C10.4876 22.2808 10.0114 22.1342 9.69395 22.011C9.27394 21.8478 8.97394 21.6528 8.65894 21.3378C8.34394 21.0228 8.14893 20.7236 7.98543 20.3034C7.86224 19.9865 7.71543 19.5103 7.67549 18.6327C7.63237 17.684 7.62374 17.399 7.62374 14.9956C7.62374 12.5922 7.63237 12.3087 7.67549 11.3599C7.71562 10.4824 7.86224 10.0062 7.98543 9.68891C8.14856 9.2689 8.34394 8.9689 8.65894 8.6539C8.97394 8.33889 9.27394 8.14389 9.69395 7.98039C10.0112 7.85664 10.4876 7.71039 11.3652 7.67007C12.1954 7.63257 12.5172 7.62132 14.1946 7.61945V7.6217ZM19.8073 9.11551C19.211 9.11551 18.7273 9.59871 18.7273 10.1951C18.7273 10.7914 19.211 11.2752 19.8073 11.2752C20.4035 11.2752 20.8873 10.7914 20.8873 10.1951C20.8873 9.59889 20.4035 9.11514 19.8073 9.11514V9.11551ZM15.0028 10.3782C12.4504 10.3782 10.3809 12.4476 10.3809 15.0001C10.3809 17.5525 12.4504 19.6211 15.0028 19.6211C17.5553 19.6211 19.624 17.5525 19.624 15.0001C19.624 12.4476 17.5551 10.3782 15.0026 10.3782H15.0028ZM15.0004 11.9999C16.6571 11.9999 18.0004 13.3429 18.0004 14.9999C18.0004 16.6567 16.6571 17.9999 15.0004 17.9999C13.3434 17.9999 12.0003 16.6567 12.0003 14.9999C12.0003 13.3429 13.3434 11.9999 15.0004 11.9999Z" fill="white"/>
</svg>
