<svg width="48" height="48" viewBox="0 0 48 48" fill="none" xmlns="http://www.w3.org/2000/svg">
<circle cx="24" cy="24" r="24" fill="#CB5848"/>
<path d="M24.7521 22.1393V26.5992H31.9926C31.7029 28.5149 29.8046 32.2099 24.7576 32.2099C20.4076 32.2099 16.8557 28.5316 16.8557 23.9965C16.8557 19.4642 20.3994 15.7859 24.7535 15.7859C27.234 15.7859 28.8944 16.8643 29.8402 17.7922L33.3032 14.3968C31.0824 12.2762 28.1988 11 24.759 11C17.6989 10.9958 12 16.8197 12 23.9979C12 31.1761 17.703 37 24.7535 37C32.1197 37 37 31.7236 37 24.2947C37 23.442 36.9098 22.7872 36.7991 22.1407L24.7521 22.1421V22.1393Z" fill="white"/>
</svg>
