<svg width="30" height="30" viewBox="0 0 30 30" fill="none" xmlns="http://www.w3.org/2000/svg">
<path fill-rule="evenodd" clip-rule="evenodd" d="M0 15C0 6.71573 6.71573 0 15 0C23.2843 0 30 6.71573 30 15C30 23.2843 23.2843 30 15 30C6.71573 30 0 23.2843 0 15Z" fill="#4198F7"/>
<path fill-rule="evenodd" clip-rule="evenodd" d="M15.6631 19.8651C15.6631 19.8651 15.9808 19.8305 16.1435 19.6589C16.2924 19.5018 16.2872 19.2052 16.2872 19.2052C16.2872 19.2052 16.2674 17.8203 16.9225 17.6158C17.5681 17.4147 18.3971 18.9551 19.2768 19.5474C19.9414 19.9952 20.4458 19.8972 20.4458 19.8972L22.7967 19.8651C22.7967 19.8651 24.026 19.7907 23.4432 18.8418C23.395 18.7641 23.1032 18.1397 21.6957 16.857C20.2212 15.5143 20.4191 15.7315 22.1941 13.4086C23.2753 11.9942 23.7075 11.1306 23.5723 10.7613C23.4441 10.4081 22.6487 10.5019 22.6487 10.5019L20.0025 10.518C20.0025 10.518 19.8062 10.4918 19.6608 10.5771C19.5187 10.6608 19.4266 10.856 19.4266 10.856C19.4266 10.856 19.0083 11.9502 18.4496 12.8814C17.2711 14.8451 16.8003 14.949 16.6074 14.8274C16.159 14.5426 16.2709 13.685 16.2709 13.0757C16.2709 11.172 16.5653 10.3786 15.6984 10.1732C15.4109 10.1048 15.1992 10.06 14.4632 10.0524C13.5188 10.0431 12.72 10.0558 12.2672 10.2729C11.9659 10.4174 11.7335 10.7402 11.8755 10.7588C12.0503 10.7816 12.4463 10.8636 12.6563 11.1441C12.9275 11.5066 12.918 12.3195 12.918 12.3195C12.918 12.3195 13.0738 14.5603 12.5539 14.8383C12.1975 15.0293 11.7085 14.6398 10.6575 12.8577C10.1195 11.9452 9.71317 10.9363 9.71317 10.9363C9.71317 10.9363 9.63483 10.7478 9.49452 10.6464C9.32494 10.5239 9.08821 10.4859 9.08821 10.4859L6.57377 10.5019C6.57377 10.5019 6.19587 10.5121 6.05728 10.6735C5.93418 10.8163 6.04781 11.1129 6.04781 11.1129C6.04781 11.1129 8.0165 15.6343 10.246 17.9132C12.2905 20.002 14.6112 19.8651 14.6112 19.8651H15.6631Z" fill="white"/>
</svg>
