<svg width="18" height="18" viewBox="0 0 18 18" fill="none" xmlns="http://www.w3.org/2000/svg">
<path fill-rule="evenodd" clip-rule="evenodd" d="M9.00084 0C6.55657 0 6.24982 0.0106876 5.28981 0.0543756C4.33167 0.0982511 3.67766 0.24994 3.10541 0.472505C2.51346 0.702383 2.01133 1.00989 1.51108 1.51033C1.01045 2.01058 0.702945 2.51271 0.472317 3.10447C0.24919 3.67691 0.0973135 4.33111 0.0541881 5.28887C0.0112501 6.24888 0 6.55582 0 9.0001C0 11.4444 0.0108751 11.7502 0.0543756 12.7102C0.0984385 13.6683 0.250128 14.3223 0.472505 14.8946C0.70257 15.4865 1.01007 15.9887 1.51052 16.4889C2.01058 16.9896 2.51271 17.2978 3.10428 17.5277C3.67691 17.7503 4.33111 17.9019 5.28906 17.9458C6.24907 17.9895 6.55563 18.0002 8.99972 18.0002C11.4442 18.0002 11.75 17.9895 12.71 17.9458C13.6681 17.9019 14.3229 17.7503 14.8955 17.5277C15.4873 17.2978 15.9887 16.9896 16.4887 16.4889C16.9894 15.9887 17.2969 15.4865 17.5275 14.8948C17.7487 14.3223 17.9006 13.6681 17.9456 12.7104C17.9888 11.7504 18 11.4444 18 9.0001C18 6.55582 17.9888 6.24907 17.9456 5.28906C17.9006 4.33092 17.7487 3.67691 17.5275 3.10466C17.2969 2.51271 16.9894 2.01058 16.4887 1.51033C15.9881 1.0097 15.4875 0.702195 14.895 0.472505C14.3212 0.24994 13.6668 0.0982511 12.7087 0.0543756C11.7487 0.0106876 11.4431 0 8.99803 0H9.00084ZM8.19456 1.6217C8.43419 1.62132 8.70156 1.6217 9.00194 1.6217C11.405 1.6217 11.6898 1.63032 12.6387 1.67345C13.5162 1.71357 13.9925 1.8602 14.3097 1.98339C14.7298 2.14651 15.0292 2.34152 15.344 2.65652C15.659 2.97152 15.854 3.27153 16.0175 3.69153C16.1407 4.00841 16.2875 4.48466 16.3275 5.36217C16.3706 6.31093 16.38 6.59593 16.38 8.99783C16.38 11.3997 16.3706 11.6847 16.3275 12.6335C16.2873 13.511 16.1407 13.9873 16.0175 14.3041C15.8544 14.7241 15.659 15.0232 15.344 15.338C15.029 15.653 14.7299 15.848 14.3097 16.0112C13.9929 16.1349 13.5162 16.2812 12.6387 16.3213C11.69 16.3644 11.405 16.3738 9.00194 16.3738C6.59873 16.3738 6.31391 16.3644 5.36515 16.3213C4.48764 16.2808 4.01139 16.1342 3.69395 16.011C3.27394 15.8478 2.97394 15.6528 2.65894 15.3378C2.34394 15.0228 2.14893 14.7236 1.98543 14.3034C1.86224 13.9865 1.71543 13.5103 1.67549 12.6327C1.63237 11.684 1.62374 11.399 1.62374 8.99558C1.62374 6.59218 1.63237 6.30868 1.67549 5.35992C1.71562 4.48241 1.86224 4.00616 1.98543 3.68891C2.14856 3.2689 2.34394 2.9689 2.65894 2.6539C2.97394 2.33889 3.27394 2.14389 3.69395 1.98039C4.0112 1.85664 4.48764 1.71039 5.36515 1.67007C6.19541 1.63257 6.51717 1.62132 8.19456 1.61945V1.6217ZM13.8073 3.11551C13.211 3.11551 12.7273 3.59871 12.7273 4.19515C12.7273 4.7914 13.211 5.27516 13.8073 5.27516C14.4035 5.27516 14.8873 4.7914 14.8873 4.19515C14.8873 3.59889 14.4035 3.11514 13.8073 3.11514V3.11551ZM9.00282 4.37815C6.45035 4.37815 4.38089 6.44761 4.38089 9.00008C4.38089 11.5525 6.45035 13.6211 9.00282 13.6211C11.5553 13.6211 13.624 11.5525 13.624 9.00008C13.624 6.44761 11.5551 4.37815 9.00263 4.37815H9.00282ZM9.00037 5.99985C10.6571 5.99985 12.0004 7.34293 12.0004 8.99988C12.0004 10.6567 10.6571 11.9999 9.00037 11.9999C7.34342 11.9999 6.00034 10.6567 6.00034 8.99988C6.00034 7.34293 7.34342 5.99985 9.00037 5.99985Z" fill="white"/>
</svg>
