<svg width="144" height="144" viewBox="0 0 144 144" fill="none" xmlns="http://www.w3.org/2000/svg">
<g clip-path="url(#clip0)">
<path d="M26.0953 135.904V8.10376H93.2227L125.095 39.9764V126.927C125.095 131.877 121.069 135.904 116.119 135.904H26.0953Z" fill="white"/>
<path d="M92.8534 9.00654L124.199 40.3517V126.93C124.199 131.383 120.575 135.007 116.122 135.007H40.9986C33.2666 135.007 26.9986 128.739 26.9986 121.007V23.0065C26.9986 15.2746 33.2666 9.00654 40.9986 9.00654H92.8534ZM93.5986 7.20654H41.1986C32.3621 7.20654 25.1986 14.37 25.1986 23.2065V120.807C25.1986 129.643 32.3621 136.807 41.1986 136.807H116.122C121.576 136.807 125.999 132.384 125.999 126.93V39.6065L93.5986 7.20654Z" fill="#DBDCE6"/>
<path d="M92.6986 40.5038V8.10376H93.226L125.099 39.9764V40.5038H92.6986Z" fill="white"/>
<path d="M93.6019 9.75174L123.457 39.6065H109.602C100.765 39.6065 93.6019 32.4431 93.6019 23.6065V9.75174ZM93.6019 7.20654H91.8019V25.4065C91.8019 34.2431 98.9653 41.4065 107.802 41.4065H126.002V39.6065L93.6019 7.20654Z" fill="#DBDCE6"/>
<path d="M46.8019 55.8093H104.402V57.6093H46.8019V55.8093ZM46.8019 66.6093H90.0019V68.4093H46.8019V66.6093ZM46.8019 77.4093H104.402V79.2093H46.8019V77.4093ZM46.8019 88.2093H90.0019V90.0093H46.8019V88.2093ZM46.8019 99.0093H104.402V100.809H46.8019V99.0093Z" fill="#DBDCE4"/>
<rect x="16.0001" y="121" width="48" height="23" fill="#567AD9"/>
<path d="M24.4701 138H28.6001C31.7501 138 33.8921 136.012 33.8921 133.1C33.8921 130.188 31.7501 128.2 28.6001 128.2H24.4701V138ZM25.8701 136.782V129.418H28.5161C30.9381 129.418 32.4921 130.902 32.4921 133.1C32.4921 135.298 30.9381 136.782 28.5161 136.782H25.8701ZM40.4605 138.112C43.4425 138.112 45.6545 135.984 45.6545 133.1C45.6545 130.216 43.4425 128.088 40.4605 128.088C37.4505 128.088 35.2385 130.23 35.2385 133.1C35.2385 135.97 37.4505 138.112 40.4605 138.112ZM40.4605 136.866C38.2625 136.866 36.6385 135.27 36.6385 133.1C36.6385 130.93 38.2625 129.334 40.4605 129.334C42.6305 129.334 44.2545 130.93 44.2545 133.1C44.2545 135.27 42.6305 136.866 40.4605 136.866ZM52.1763 138.112C53.7023 138.112 55.0183 137.58 55.9143 136.572L55.0043 135.69C54.2483 136.488 53.3243 136.866 52.2463 136.866C50.0343 136.866 48.3963 135.27 48.3963 133.1C48.3963 130.93 50.0343 129.334 52.2463 129.334C53.3243 129.334 54.2483 129.698 55.0043 130.496L55.9143 129.614C55.0183 128.606 53.7023 128.088 52.1903 128.088C49.2083 128.088 46.9963 130.202 46.9963 133.1C46.9963 135.998 49.2083 138.112 52.1763 138.112Z" fill="white"/>
</g>
<defs>
<clipPath id="clip0">
<rect width="144" height="144" fill="white"/>
</clipPath>
</defs>
</svg>
