<svg width="144" height="144" viewBox="0 0 144 144" fill="none" xmlns="http://www.w3.org/2000/svg">
<g clip-path="url(#clip0)">
<path d="M26.0954 135.904V8.10376H93.2228L125.095 39.9764V126.927C125.095 131.877 121.069 135.904 116.119 135.904H26.0954Z" fill="white"/>
<path d="M92.8534 9.00654L124.199 40.3517V126.93C124.199 131.383 120.575 135.007 116.122 135.007H40.9986C33.2666 135.007 26.9986 128.739 26.9986 121.007V23.0065C26.9986 15.2746 33.2666 9.00654 40.9986 9.00654H92.8534ZM93.5986 7.20654H41.1986C32.3621 7.20654 25.1986 14.37 25.1986 23.2065V120.807C25.1986 129.643 32.3621 136.807 41.1986 136.807H116.122C121.576 136.807 125.999 132.384 125.999 126.93V39.6065L93.5986 7.20654Z" fill="#DBDCE6"/>
<path d="M92.6986 40.5038V8.10376H93.226L125.099 39.9764V40.5038H92.6986Z" fill="white"/>
<path d="M93.6018 9.75174L123.457 39.6065H109.602C100.765 39.6065 93.6018 32.4431 93.6018 23.6065V9.75174ZM93.6018 7.20654H91.8018V25.4065C91.8018 34.2431 98.9653 41.4065 107.802 41.4065H126.002V39.6065L93.6018 7.20654Z" fill="#DBDCE6"/>
<circle cx="68.5004" cy="68.4995" r="3.5" stroke="#DBDCE6" stroke-width="2"/>
<path d="M57.0004 57.9995H94.0004V84.4995V96.9995H57.0004V86.4995V57.9995Z" stroke="#DBDCE6" stroke-width="2"/>
<rect x="16.0001" y="121" width="47" height="23" fill="#727372"/>
<path d="M23.5961 138.084C24.1001 138.084 24.5201 137.678 24.5201 137.118C24.5201 136.558 24.1001 136.166 23.5961 136.166C23.0781 136.166 22.6441 136.558 22.6441 137.118C22.6441 137.678 23.0781 138.084 23.5961 138.084ZM33.1586 136.236C32.4586 136.684 31.6886 136.866 30.8626 136.866C28.6086 136.866 26.9706 135.256 26.9706 133.1C26.9706 130.916 28.6086 129.334 30.8766 129.334C31.9826 129.334 32.9066 129.684 33.7186 130.468L34.5866 129.6C33.6906 128.606 32.3746 128.088 30.8206 128.088C27.7826 128.088 25.5706 130.202 25.5706 133.1C25.5706 135.998 27.7826 138.112 30.7926 138.112C32.1646 138.112 33.5226 137.692 34.5026 136.866V133.044H33.1586V136.236ZM41.005 128.2H37.183V138H38.583V135.032H41.005C43.553 135.032 45.093 133.744 45.093 131.616C45.093 129.488 43.553 128.2 41.005 128.2ZM40.963 133.814H38.583V129.418H40.963C42.755 129.418 43.693 130.216 43.693 131.616C43.693 133.016 42.755 133.814 40.963 133.814ZM54.0765 136.236C53.3765 136.684 52.6065 136.866 51.7805 136.866C49.5265 136.866 47.8885 135.256 47.8885 133.1C47.8885 130.916 49.5265 129.334 51.7945 129.334C52.9005 129.334 53.8245 129.684 54.6365 130.468L55.5045 129.6C54.6085 128.606 53.2925 128.088 51.7385 128.088C48.7005 128.088 46.4885 130.202 46.4885 133.1C46.4885 135.998 48.7005 138.112 51.7105 138.112C53.0825 138.112 54.4405 137.692 55.4205 136.866V133.044H54.0765V136.236Z" fill="white"/>
</g>
<defs>
<clipPath id="clip0">
<rect width="144" height="144" fill="white"/>
</clipPath>
</defs>
</svg>
