<svg width="144" height="144" viewBox="0 0 144 144" fill="none" xmlns="http://www.w3.org/2000/svg">
<g clip-path="url(#clip0)">
<path d="M26.0947 135.904V8.10364H93.2221L125.095 39.9762V126.927C125.095 131.877 121.068 135.904 116.118 135.904H26.0947Z" fill="white"/>
<path d="M92.853 9.00642L124.198 40.3516V126.93C124.198 131.383 120.575 135.006 116.122 135.006H40.9983C33.2663 135.006 26.9982 128.738 26.9982 121.006V23.0064C26.9982 15.2744 33.2663 9.00642 40.9982 9.00642H92.853ZM93.5982 7.20642H41.1982C32.3617 7.20642 25.1982 14.3699 25.1982 23.2064V120.806C25.1982 129.643 32.3617 136.806 41.1982 136.806H116.122C121.576 136.806 125.998 132.384 125.998 126.93V39.6064L93.5982 7.20642Z" fill="#DBDCE6"/>
<path d="M92.6982 40.5036V8.10364H93.2256L125.098 39.9762V40.5036H92.6982Z" fill="white"/>
<path d="M93.6018 9.75162L123.457 39.6064H109.602C100.765 39.6064 93.6018 32.443 93.6018 23.6064V9.75162ZM93.6018 7.20642H91.8018V25.4064C91.8018 34.243 98.9652 41.4064 107.802 41.4064H126.002V39.6064L93.6018 7.20642Z" fill="#DBDCE6"/>
<path d="M46.8018 77.4093H104.402V79.2093H46.8018V77.4093ZM46.8018 88.2093H90.0018V90.0093H46.8018V88.2093ZM46.8018 99.0093H104.402V100.809H46.8018V99.0093Z" fill="#DBDCE4"/>
<rect x="16" y="121" width="47" height="23" fill="#CF4949"/>
<path d="M29.292 128.2H25.47V138H26.87V135.032H29.292C31.84 135.032 33.38 133.744 33.38 131.616C33.38 129.488 31.84 128.2 29.292 128.2ZM29.25 133.814H26.87V129.418H29.25C31.042 129.418 31.98 130.216 31.98 131.616C31.98 133.016 31.042 133.814 29.25 133.814ZM35.4368 138H39.5668C42.7168 138 44.8588 136.012 44.8588 133.1C44.8588 130.188 42.7168 128.2 39.5668 128.2H35.4368V138ZM36.8368 136.782V129.418H39.4828C41.9048 129.418 43.4588 130.902 43.4588 133.1C43.4588 135.298 41.9048 136.782 39.4828 136.782H36.8368ZM53.9192 129.418V128.2H47.0032V138H48.4032V134.038H53.3172V132.834H48.4032V129.418H53.9192Z" fill="white"/>
<path fill-rule="evenodd" clip-rule="evenodd" d="M102 50H49V64H102V50ZM47 48V66H104V48H47Z" fill="#DBDCE4"/>
</g>
<defs>
<clipPath id="clip0">
<rect width="144" height="144" fill="white"/>
</clipPath>
</defs>
</svg>
