<svg width="144" height="144" viewBox="0 0 144 144" fill="none" xmlns="http://www.w3.org/2000/svg">
<g clip-path="url(#clip0)">
<path d="M26.0954 135.904V8.10376H93.2228L125.095 39.9764V126.927C125.095 131.877 121.069 135.904 116.119 135.904H26.0954Z" fill="white"/>
<path d="M92.8534 9.00654L124.199 40.3517V126.93C124.199 131.383 120.575 135.007 116.122 135.007H40.9986C33.2666 135.007 26.9986 128.739 26.9986 121.007V23.0065C26.9986 15.2746 33.2666 9.00654 40.9986 9.00654H92.8534ZM93.5986 7.20654H41.1986C32.3621 7.20654 25.1986 14.37 25.1986 23.2065V120.807C25.1986 129.643 32.3621 136.807 41.1986 136.807H116.122C121.576 136.807 125.999 132.384 125.999 126.93V39.6065L93.5986 7.20654Z" fill="#DBDCE6"/>
<path d="M92.6986 40.5038V8.10376H93.226L125.099 39.9764V40.5038H92.6986Z" fill="white"/>
<path d="M93.6018 9.75174L123.457 39.6065H109.602C100.765 39.6065 93.6018 32.4431 93.6018 23.6065V9.75174ZM93.6018 7.20654H91.8018V25.4065C91.8018 34.2431 98.9653 41.4065 107.802 41.4065H126.002V39.6065L93.6018 7.20654Z" fill="#DBDCE6"/>
<path fill-rule="evenodd" clip-rule="evenodd" d="M67.0004 67.9995V58.9995H58.0004V67.9995H67.0004ZM67.0004 69.9995H58.0004V95.9995H67.0004V69.9995ZM69.0004 95.9995V69.9995H93.0004V95.9995H69.0004ZM56.0004 97.9995V56.9995H95.0004V97.9995H56.0004ZM93.0004 67.9995H69.0004V58.9995H93.0004V67.9995Z" fill="#DBDCE4"/>
<rect x="16.0001" y="121" width="47" height="23" fill="#7EC484"/>
<path d="M35.2401 138L31.5301 132.932L34.9881 128.2H33.4621L30.7461 131.966L28.0021 128.2H26.4061L29.8641 132.974L26.1821 138H27.7921L30.6901 133.954L33.6301 138H35.2401ZM36.5619 138H43.2679V136.782H37.9619V128.2H36.5619V138ZM47.6347 138.112C50.2247 138.112 51.4287 136.824 51.4287 135.326C51.4287 131.728 45.4927 133.226 45.4927 130.832C45.4927 129.978 46.2067 129.278 47.8727 129.278C48.7407 129.278 49.7067 129.53 50.5607 130.076L51.0227 128.956C50.2107 128.396 49.0207 128.088 47.8727 128.088C45.2967 128.088 44.1207 129.376 44.1207 130.888C44.1207 134.528 50.0567 133.016 50.0567 135.41C50.0567 136.264 49.3287 136.922 47.6347 136.922C46.3747 136.922 45.1287 136.446 44.4007 135.788L43.8827 136.88C44.6667 137.608 46.1367 138.112 47.6347 138.112Z" fill="white"/>
</g>
<defs>
<clipPath id="clip0">
<rect width="144" height="144" fill="white"/>
</clipPath>
</defs>
</svg>
