<svg width="24" height="24" viewBox="0 0 24 24" fill="none" xmlns="http://www.w3.org/2000/svg">
<path d="M2 3C2 2.44772 2.44772 2 3 2H11.9958C12.5481 2 12.9958 2.44772 12.9958 3C12.9958 3.55228 12.5481 4 11.9958 4H4V20H12C12.5523 20 13 20.4477 13 21C13 21.5523 12.5523 22 12 22H3C2.44772 22 2 21.5523 2 21V3Z" fill="black" fill-opacity="0.65"/>
<path d="M13.2071 6.79289C13.5976 7.18342 13.5976 7.81658 13.2071 8.20711L10.4181 10.9961H21C21.5523 10.9961 22 11.4438 22 11.9961C22 12.5484 21.5523 12.9961 21 12.9961H10.4103L13.2071 15.7929C13.5976 16.1834 13.5976 16.8166 13.2071 17.2071C12.8166 17.5976 12.1834 17.5976 11.7929 17.2071L7.29289 12.7071C7.09714 12.5114 6.99951 12.2546 7 11.9981L7 11.9961C7 11.6931 7.13473 11.4216 7.34753 11.2383L11.7929 6.79289C12.1834 6.40237 12.8166 6.40237 13.2071 6.79289Z" fill="black" fill-opacity="0.65"/>
</svg>
