<svg width="15" height="15" viewBox="0 0 15 15" fill="none" xmlns="http://www.w3.org/2000/svg">
<path d="M1.25 1.875C1.25 1.52982 1.52982 1.25 1.875 1.25H7.49741C7.84258 1.25 8.12241 1.52982 8.12241 1.875C8.12241 2.22018 7.84258 2.5 7.49741 2.5H2.5V12.5H7.5C7.84518 12.5 8.125 12.7798 8.125 13.125C8.125 13.4702 7.84518 13.75 7.5 13.75H1.875C1.52982 13.75 1.25 13.4702 1.25 13.125V1.875Z" fill="#101C29"/>
<path d="M9.87056 4.24556C10.1146 4.00148 10.5104 4.00148 10.7544 4.24556L13.5328 7.02391C13.6658 7.13853 13.75 7.30821 13.75 7.49756L13.75 7.49871C13.7503 7.65909 13.6893 7.81957 13.5669 7.94194L10.7544 10.7544C10.5104 10.9985 10.1146 10.9985 9.87056 10.7544C9.62648 10.5104 9.62648 10.1146 9.87056 9.87056L11.6186 8.12256H5C4.65482 8.12256 4.375 7.84274 4.375 7.49756C4.375 7.15238 4.65482 6.87256 5 6.87256H11.6137L9.87056 5.12944C9.62648 4.88536 9.62648 4.48964 9.87056 4.24556Z" fill="#101C29"/>
</svg>
