<svg width="109" height="109" viewBox="0 0 109 109" fill="none" xmlns="http://www.w3.org/2000/svg">
<path d="M108.999 26.3599V15.8232C108.999 15.3574 108.814 14.9109 108.485 14.5816L94.4358 0.532686C93.7498 -0.153078 92.6379 -0.152858 91.9522 0.533125C91.6231 0.862397 91.4381 1.30889 91.4381 1.77426V13.34L90.5389 14.2392C85.6743 9.83264 80.0211 6.38407 73.8769 4.07477V1.77426C73.8767 0.804445 73.0904 0.0183633 72.1204 0.0185828C71.6548 0.0185828 71.2085 0.203634 70.8792 0.532686L69.3268 2.08509C40.4044 -6.12914 10.2993 10.658 2.08509 39.5802C-6.12914 68.5025 10.658 98.6076 39.5802 106.822C49.6574 109.684 60.3462 109.578 70.3647 106.516V107.141H73.8769V40.4086C73.8769 39.9428 73.6916 39.4963 73.3624 39.167L66.647 32.4516L66.668 32.413L66.5504 32.3551L59.828 25.6326V16.5502L70.3647 6.01353V14.0671C70.3647 14.5329 70.5499 14.9794 70.8792 15.3087L81.4159 25.8454C82.1017 26.5309 83.2133 26.5309 83.8991 25.8454L94.4358 15.3087C94.765 14.9794 94.9503 14.5329 94.9503 14.0671V6.01353L105.487 16.5502V25.6329L91.9526 39.1673C91.6233 39.4965 91.4381 39.943 91.4381 40.4088V107.141H94.9503V91.9912C109.503 75.5072 113.088 52.0427 104.121 31.9654L108.485 27.6015C108.814 27.2722 108.999 26.8257 108.999 26.3599ZM70.3647 83.3037C69.8905 83.5847 69.4164 83.8622 68.9299 84.1168L60.0633 63.4262C61.6842 62.4299 63.0068 61.0153 63.8916 59.331L70.3647 62.5675V83.3037ZM45.5911 48.9558L24.5177 39.9206C27.7534 33.1159 33.2074 27.614 39.9838 24.3193L49.0559 45.4893C47.6464 46.3588 46.4597 47.5459 45.5911 48.9558ZM54.5596 47.4333C58.4391 47.4333 61.5841 50.5783 61.5841 54.4578C61.5841 58.3372 58.4391 61.4822 54.5596 61.4822C50.6801 61.4822 47.5351 58.3372 47.5351 54.4578C47.5351 50.5783 50.6801 47.4333 54.5596 47.4333ZM44.2705 52.2082C43.9404 53.6897 43.9404 55.2258 44.2705 56.7073L23.1655 65.7513C21.8675 62.1272 21.2004 58.3074 21.1934 54.4578C21.2004 50.6081 21.8675 46.7884 23.1655 43.1642L44.2705 52.2082ZM45.5911 59.9597C46.4597 61.3698 47.6464 62.557 49.0559 63.4262L39.9838 84.5962C33.2048 81.3026 27.7481 75.8007 24.5107 68.9949L45.5911 59.9597ZM52.3118 64.7468C53.7922 65.077 55.327 65.077 56.8074 64.7468L65.7338 85.5726C58.5273 88.4377 50.5227 88.5727 43.2239 85.952L52.3118 64.7468ZM70.3647 58.6408L64.9787 55.9469C65.1363 54.958 65.1363 53.9505 64.9787 52.9615L70.3647 50.2747V58.6408ZM70.3647 41.1359V46.348L63.8916 49.5845C63.016 47.9182 61.7123 46.5155 60.1142 45.5209L64.9927 35.7639L70.3647 41.1359ZM62.3743 33.1455L56.8566 44.181C55.3615 43.8385 53.8087 43.8344 52.3118 44.1687L43.2239 22.9636C46.6621 21.7321 50.2859 21.0988 53.938 21.0915C54.7352 21.0915 55.5185 21.153 56.3157 21.211V26.3599C56.3157 26.8257 56.501 27.2722 56.8303 27.6015L62.3743 33.1455ZM56.8303 14.5816C56.501 14.9109 56.3157 15.3574 56.3157 15.8232V17.6987C55.5237 17.646 54.7352 17.5793 53.938 17.5793C33.5705 17.5793 17.0595 34.0903 17.0595 54.4578C17.0595 74.8252 33.5705 91.3362 53.938 91.3362C59.6556 91.3338 65.2893 89.9581 70.3647 87.3252V102.846C43.6346 111.579 14.8859 96.9902 6.15226 70.2602C-2.58135 43.5301 12.008 14.7814 38.7381 6.04777C47.7009 3.11945 57.3007 2.73727 66.4678 4.94405L56.8303 14.5816ZM82.6575 22.1206L73.8769 13.34V7.82935C79.0801 9.95425 83.8756 12.9649 88.0505 16.7276L82.6575 22.1206ZM105.487 54.8704C105.514 66.2738 101.814 77.3738 94.9503 86.4805V41.1359L101.448 34.6294C104.127 41.0408 105.5 47.9221 105.487 54.8704Z" fill="#009FE3"/>
<path d="M82.6743 43.9231C81.0508 43.6819 79.6415 42.6767 78.8846 41.2205L75.9273 43.1136C77.2719 45.6292 79.8268 47.2659 82.6743 47.4354C85.5219 47.2659 88.0768 45.6292 89.4213 43.1136L86.464 41.2205C85.7072 42.6769 84.2979 43.6819 82.6743 43.9231Z" fill="#009FE3"/>
<path d="M87.935 50.9454H84.4228V107.141H87.935V50.9454Z" fill="#009FE3"/>
<path d="M100.744 19.8576L88.4519 32.1497L90.9354 34.6332L103.228 22.3411L100.744 19.8576Z" fill="#009FE3"/>
<path d="M7.16028 54.4572H10.6725C10.6995 30.2215 30.3397 10.5813 54.5754 10.5543V7.04211C28.4007 7.07131 7.18925 28.2828 7.16028 54.4572Z" fill="#009FE3"/>
<path d="M32.2545 33.8985L34.738 36.382L38.2496 32.8703L35.7662 30.3868L32.2545 33.8985Z" fill="#009FE3"/>
<path d="M36.501 74.2897L32.9893 70.7781L30.5058 73.2616L34.0175 76.7732L36.501 74.2897Z" fill="#009FE3"/>
</svg>
