<svg width="15" height="15" viewBox="0 0 15 15" fill="none" xmlns="http://www.w3.org/2000/svg">
<path fill-rule="evenodd" clip-rule="evenodd" d="M7.8125 1.56128C7.6399 1.56128 7.5 1.70118 7.5 1.87378V2.48331C7.5 2.83735 7.21292 3.12378 6.85953 3.12378H6.25V3.74878H9.375V3.12378H8.76547C8.41208 3.12378 8.125 2.83735 8.125 2.48331V1.87378C8.125 1.70118 7.9851 1.56128 7.8125 1.56128ZM10.625 3.12378V4.06128C10.625 4.57905 10.2053 4.99878 9.6875 4.99878H5.9375C5.41973 4.99878 5 4.57905 5 4.06128V3.12378H3.75V13.1238H11.875V3.12378H10.625ZM6.25 1.87378C6.25 1.01084 6.94953 0.311279 7.8125 0.311279C8.67547 0.311279 9.375 1.01084 9.375 1.87378H12.1875C12.7053 1.87378 13.125 2.29352 13.125 2.81128V13.4363C13.125 13.9541 12.7053 14.3738 12.1875 14.3738H3.4375C2.91973 14.3738 2.5 13.9541 2.5 13.4363V2.81128C2.5 2.29352 2.91972 1.87378 3.4375 1.87378H6.25Z" fill="#101C29"/>
<path d="M5 6.71753C5 6.45865 5.20987 6.24878 5.46875 6.24878H10.1562C10.4151 6.24878 10.625 6.45865 10.625 6.71753C10.625 6.97641 10.4151 7.18628 10.1562 7.18628H5.46875C5.20987 7.18628 5 6.97641 5 6.71753Z" fill="#101C29"/>
<path d="M5 8.90503C5 8.64615 5.20987 8.43628 5.46875 8.43628H10.1562C10.4151 8.43628 10.625 8.64615 10.625 8.90503C10.625 9.16391 10.4151 9.37378 10.1562 9.37378H5.46875C5.20987 9.37378 5 9.16391 5 8.90503Z" fill="#101C29"/>
<path d="M5 11.0925C5 10.8336 5.20987 10.6238 5.46875 10.6238H10.1562C10.4151 10.6238 10.625 10.8336 10.625 11.0925C10.625 11.3514 10.4151 11.5613 10.1562 11.5613H5.46875C5.20987 11.5613 5 11.3514 5 11.0925Z" fill="#101C29"/>
</svg>
