<svg width="126" height="93" viewBox="0 0 126 93" fill="none" xmlns="http://www.w3.org/2000/svg">
<path d="M102.736 25.7457H109.768V25.7457C111.1 25.7457 112.18 24.6656 112.18 23.3331V17.8568V10.8655C112.18 9.53306 111.1 8.45288 109.768 8.45288V8.45288H102.502" stroke="#009FE3" stroke-width="3" stroke-miterlimit="22.9256" stroke-linecap="round" stroke-linejoin="round"/>
<path fill-rule="evenodd" clip-rule="evenodd" d="M118.639 14.9034C118.639 14.4881 118.639 14.0752 118.639 13.6905C118.639 12.5789 117.738 11.6779 116.626 11.6781L112.187 11.6791V21.3557L116.627 21.3555C117.738 21.3554 118.639 20.4544 118.639 19.343V14.9034Z" stroke="#009FE3" stroke-width="3" stroke-miterlimit="22.9256" stroke-linecap="round" stroke-linejoin="round"/>
<path d="M119.692 13.6143L123.13 14.5535C123.678 14.7021 124.044 15.2014 124.044 15.7899C124.044 16.3784 123.678 16.8718 123.13 17.0204L119.692 17.9656" stroke="#009FE3" stroke-width="3" stroke-miterlimit="22.9256" stroke-linecap="round" stroke-linejoin="round"/>
<path d="M69.3573 33.0352V2" stroke="#009FE3" stroke-width="3" stroke-miterlimit="22.9256" stroke-linecap="round" stroke-linejoin="round"/>
<path d="M26.7192 2L17.2451 9.29396V25.7363L17.6194 26.0231" stroke="#009FE3" stroke-width="3" stroke-miterlimit="22.9256" stroke-linecap="round" stroke-linejoin="round"/>
<path d="M36.4106 44.0882L23.1843 79.6927C22.8051 80.7212 21.6578 81.2454 20.6336 80.8646L3.28581 74.3619C2.26651 73.9811 1.74455 72.8289 2.12371 71.8053L17.2458 31.0926L17.7431 24.5009C18.0041 21.0146 22.0321 20.5646 24.1297 24.0558C25.6907 26.6619 26.7297 25.5097 26.7297 22.9135V2.00085H102.439V33.036H43.5309" stroke="#009FE3" stroke-width="3" stroke-miterlimit="22.9256" stroke-linecap="round" stroke-linejoin="round"/>
<path d="M43.076 27.8829L39.0726 42.8813C38.8117 43.8703 36.9356 44.9582 36.4037 44.0879L29.963 33.5945" stroke="#009FE3" stroke-width="3" stroke-miterlimit="22.9256" stroke-linecap="round" stroke-linejoin="round"/>
<path d="M43.5295 34.9538L48.6282 36.3258L47.6084 40.1482L42.5096 38.7762L43.5295 34.9538Z" stroke="#009FE3" stroke-width="2" stroke-miterlimit="22.9256" stroke-linecap="round" stroke-linejoin="round"/>
<path fill-rule="evenodd" clip-rule="evenodd" d="M50.0682 43.9397L51.3504 43.8594C50.6939 42.3527 50.5555 40.6587 51.0735 38.987C51.5915 37.3109 52.6839 35.9067 54.1199 34.8858L53.0532 34.2617L48.7347 36.5932L47.668 40.0391L50.0682 43.9397Z" stroke="#009FE3" stroke-width="2" stroke-miterlimit="22.9256" stroke-linecap="round" stroke-linejoin="round"/>
<path fill-rule="evenodd" clip-rule="evenodd" d="M9.93506 89.3838L12.125 77.92L18.7296 81.1998L14.1403 90.9613L9.93506 89.3838Z" stroke="#009FE3" stroke-width="3" stroke-miterlimit="22.9256" stroke-linecap="round" stroke-linejoin="round"/>
</svg>
