<svg width="69" height="118" viewBox="0 0 69 118" fill="none" xmlns="http://www.w3.org/2000/svg">
<path fill-rule="evenodd" clip-rule="evenodd" d="M7.43097 29.0551V39.6444C7.43097 46.3897 16.5495 51.5689 20.8704 54.2701V62.8854H47.1996V54.2701C51.6551 52.0884 60.6391 46.3974 60.6391 39.6444V29.0551L58.8131 27.2274H9.26083L7.43097 29.0551Z" stroke="#009FE3" stroke-width="3.15181" stroke-miterlimit="22.9256" stroke-linecap="round" stroke-linejoin="round"/>
<path d="M60.8229 81.108C60.8229 81.108 67.6772 86.395 65.9396 93.5097C64.1674 100.759 52.7154 108.505 34.067 110.071C16.1528 111.575 6.70754 107.804 6.70754 107.804C6.70754 107.804 5.24673 108.262 6.78058 109.644C8.84878 111.506 16.0414 117.301 35.3202 116.043C54.7759 114.773 65.5359 106.612 66.1549 99.243C66.5277 94.8064 66.3048 92.8324 66.1741 90.2274" stroke="#009FE3" stroke-width="3.15181" stroke-miterlimit="22.9256" stroke-linecap="round" stroke-linejoin="round"/>
<path d="M47.1961 59.1971C55.4689 59.124 65.4716 61.8098 66.5095 67.1275C67.9204 74.3269 54.5501 82.1419 32.857 84.035C13.1322 85.7588 1.32274 81.2338 2.03008 77.0858C2.73742 72.9378 13.9242 70.4598 18.8794 70.3597" stroke="#009FE3" stroke-width="3.15181" stroke-miterlimit="22.9256" stroke-linecap="round" stroke-linejoin="round"/>
<path d="M66.5022 67.1273C70.0696 77.2703 56.8647 88.202 32.8497 90.453C11.8794 92.4192 2.02277 88.202 2.02277 83.9925V77.0856" stroke="#009FE3" stroke-width="3.15181" stroke-miterlimit="22.9256" stroke-linecap="round" stroke-linejoin="round"/>
<path d="M15.1283 75.2742C19.0956 72.8078 19.3646 70.6722 18.3267 67.0899C17.3618 63.7807 18.0115 62.8842 20.8677 62.8842" stroke="#009FE3" stroke-width="3.15181" stroke-miterlimit="22.9256" stroke-linecap="round" stroke-linejoin="round"/>
<path d="M47.1971 62.8842C50.0534 62.8842 50.7031 63.7807 49.742 67.0899C48.7771 70.399 37.4251 72.6192 31.0052 73.0425" stroke="#009FE3" stroke-width="3.15181" stroke-miterlimit="22.9256" stroke-linecap="round" stroke-linejoin="round"/>
<path d="M25.5365 90.9017C26.117 92.8988 26.7013 95.3422 26.3285 97.7817C25.9594 100.225 24.8984 101.764 24.8984 101.764L6.69208 107.805" stroke="#009FE3" stroke-width="3.15181" stroke-miterlimit="22.9256" stroke-linecap="round" stroke-linejoin="round"/>
<path d="M48.345 87.4377C47.2993 94.0753 38.9689 98.4195 29.5274 100.647" stroke="#009FE3" stroke-width="3.15181" stroke-miterlimit="22.9256" stroke-linecap="round" stroke-linejoin="round"/>
<path d="M29.4115 27.2223C29.4115 27.2223 29.4115 40.9822 29.4115 45.1109C29.4115 49.2358 31.3528 53.7301 37.5382 56.0388C43.7236 53.7301 45.6649 49.2358 45.6649 45.1109C45.6649 40.9822 45.6649 27.2223 45.6649 27.2223" stroke="#009FE3" stroke-width="3.15181" stroke-miterlimit="22.9256" stroke-linecap="round" stroke-linejoin="round"/>
<path d="M18.5371 27.2226V24.2098C21.501 19.1345 24.2996 14.3016 24.6494 8.02188C27.3865 8.02188 30.3889 6.8252 30.3889 2H37.989C37.989 5.13215 39.4498 8.02188 43.7284 8.02188C44.0782 14.3016 46.8768 19.1345 49.8369 24.2098V27.2226" stroke="#009FE3" stroke-width="3.15181" stroke-miterlimit="22.9256" stroke-linecap="round" stroke-linejoin="round"/>
</svg>
