<svg width="18" height="18" viewBox="0 0 18 18" fill="none" xmlns="http://www.w3.org/2000/svg">
<path fill-rule="evenodd" clip-rule="evenodd" d="M3.15 1.8C2.40442 1.8 1.8 2.40442 1.8 3.15C1.8 3.89558 2.40442 4.5 3.15 4.5C3.89558 4.5 4.5 3.89558 4.5 3.15C4.5 2.40442 3.89558 1.8 3.15 1.8ZM1.3411e-08 3.15C1.3411e-08 1.4103 1.4103 1.3411e-08 3.15 1.3411e-08C4.8897 1.3411e-08 6.3 1.4103 6.3 3.15C6.3 4.8897 4.8897 6.3 3.15 6.3C1.4103 6.3 1.3411e-08 4.8897 1.3411e-08 3.15ZM17.7364 0.263604C18.0879 0.615076 18.0879 1.18492 17.7364 1.5364L1.5364 17.7364C1.18492 18.0879 0.615076 18.0879 0.263604 17.7364C-0.087868 17.3849 -0.087868 16.8151 0.263604 16.4636L16.4636 0.263604C16.8151 -0.087868 17.3849 -0.087868 17.7364 0.263604ZM14.85 13.5C14.1044 13.5 13.5 14.1044 13.5 14.85C13.5 15.5956 14.1044 16.2 14.85 16.2C15.5956 16.2 16.2 15.5956 16.2 14.85C16.2 14.1044 15.5956 13.5 14.85 13.5ZM11.7 14.85C11.7 13.1103 13.1103 11.7 14.85 11.7C16.5897 11.7 18 13.1103 18 14.85C18 16.5897 16.5897 18 14.85 18C13.1103 18 11.7 16.5897 11.7 14.85Z" fill="#009FE3"/>
</svg>
