<svg width="19" height="20" viewBox="0 0 19 20" fill="none" xmlns="http://www.w3.org/2000/svg">
<path d="M5.49811 0.843018H2.96176C0.986462 0.843018 -0.429857 2.7129 0.202391 4.58671C1.46608 8.33182 3.16543 11.6496 5.37961 13.8638C7.59378 16.078 10.9116 17.7774 14.6568 19.041C16.5305 19.6733 18.4004 18.257 18.4004 16.2817V13.7449C18.4004 13.0188 18.0069 12.3498 17.3723 11.9969L15.1626 10.7684L15.0023 10.6885C14.4593 10.4473 13.8332 10.4591 13.2962 10.7276L11.275 11.7371L11.227 11.7221C11.1471 11.6961 11.0574 11.6648 10.9593 11.6277C10.4567 11.4379 9.9533 11.1728 9.4871 10.8233C9.28483 10.6717 9.09364 10.5068 8.91511 10.3283C8.73437 10.1475 8.56751 9.95369 8.41405 9.74837C8.06573 9.28232 7.80084 8.77895 7.61048 8.27643L7.51569 8.00854L7.49996 7.9591L8.51014 5.94086C8.80531 5.35064 8.79025 4.65273 8.46993 4.07571L7.24672 1.87228C6.89402 1.23703 6.22463 0.843018 5.49811 0.843018ZM2.96176 2.84302H5.49813L6.72132 5.04638L5.54288 7.4033C5.44424 7.60057 5.4136 7.82493 5.45571 8.04143C5.6034 8.80073 6.00881 9.87096 6.81205 10.9457C7.02171 11.2262 7.25102 11.4926 7.50091 11.7425C7.74783 11.9894 8.01075 12.2161 8.2874 12.4235C9.36443 13.231 10.4373 13.6363 11.1987 13.7823C11.4144 13.8237 11.6378 13.7929 11.8343 13.6946L14.1907 12.5164L16.4004 13.7449V16.2817C16.4004 16.9142 15.8484 17.3323 15.2962 17.146C11.8183 15.9725 8.74008 14.3959 6.79383 12.4496C4.84757 10.5033 3.27092 7.42508 2.09742 3.94729C1.9111 3.39508 2.32926 2.84302 2.96176 2.84302Z" fill="#009FE3"/>
</svg>
