<svg width="18" height="22" viewBox="0 0 18 22" fill="none" xmlns="http://www.w3.org/2000/svg">
<path d="M9 0C13.6944 0 17.5 3.80557 17.5 8.5C17.5 11.4856 16.1222 14.5046 13.8188 17.4506C13.0013 18.4961 12.1122 19.471 11.2014 20.3589C11.1263 20.4321 11.0525 20.5033 10.9801 20.5726L10.5621 20.9646L10.1806 21.3085L9.83985 21.6027L9.63173 21.7752C9.26654 22.0728 8.74317 22.0752 8.37531 21.7809L8.15771 21.6007L7.8185 21.3077L7.43768 20.9645L7.01992 20.5726L6.79864 20.3589C5.8878 19.471 4.99872 18.4961 4.18121 17.4506C1.8778 14.5046 0.5 11.4856 0.5 8.5C0.5 3.80557 4.30557 0 9 0ZM9 2C5.41013 2 2.5 4.91013 2.5 8.5C2.5 10.9562 3.70279 13.5917 5.75676 16.2187C6.5151 17.1885 7.34465 18.0981 8.19474 18.9268L8.59746 19.3121C8.73014 19.4366 8.86302 19.5612 9 19.681L9.40249 19.3121L9.80526 18.9268C10.6554 18.0981 11.4849 17.1885 12.2432 16.2187C14.2972 13.5917 15.5 10.9562 15.5 8.5C15.5 4.91013 12.5899 2 9 2ZM9 4.5C11.2091 4.5 13 6.29086 13 8.5C13 10.7091 11.2091 12.5 9 12.5C6.79086 12.5 5 10.7091 5 8.5C5 6.29086 6.79086 4.5 9 4.5ZM9 6.5C7.89543 6.5 7 7.39543 7 8.5C7 9.60457 7.89543 10.5 9 10.5C10.1046 10.5 11 9.60457 11 8.5C11 7.39543 10.1046 6.5 9 6.5Z" fill="#009FE3"/>
</svg>
