<svg width="31" height="24" viewBox="0 0 31 24" fill="none" xmlns="http://www.w3.org/2000/svg">
<path fill-rule="evenodd" clip-rule="evenodd" d="M7.5 3C7.5 2.44772 7.94772 2 8.5 2H10.25C10.7089 2 11.1089 2.3123 11.2201 2.75746L11.7808 5H29C29.3079 5 29.5987 5.14187 29.7882 5.38459C29.9777 5.6273 30.0448 5.94379 29.9701 6.24254L27.4701 16.2425C27.3589 16.6877 26.9589 17 26.5 17H13.5C13.0411 17 12.6411 16.6877 12.5299 16.2425L9.46922 4H8.5C7.94772 4 7.5 3.55228 7.5 3ZM12.2808 7L14.2808 15H25.7192L27.7192 7H12.2808Z" fill="white"/>
<path fill-rule="evenodd" clip-rule="evenodd" d="M13.5 17C14.8807 17 16 18.1193 16 19.5C16 20.8807 14.8807 22 13.5 22C12.1193 22 11 20.8807 11 19.5C11 18.1193 12.1193 17 13.5 17ZM13.5 19C13.2239 19 13 19.2239 13 19.5C13 19.7761 13.2239 20 13.5 20C13.7761 20 14 19.7761 14 19.5C14 19.2239 13.7761 19 13.5 19Z" fill="white"/>
<path fill-rule="evenodd" clip-rule="evenodd" d="M26.5 17C27.8807 17 29 18.1193 29 19.5C29 20.8807 27.8807 22 26.5 22C25.1193 22 24 20.8807 24 19.5C24 18.1193 25.1193 17 26.5 17ZM26 19.5C26 19.2239 26.2239 19 26.5 19C26.7761 19 27 19.2239 27 19.5C27 19.7761 26.7761 20 26.5 20C26.2239 20 26 19.7761 26 19.5Z" fill="white"/>
<path fill-rule="evenodd" clip-rule="evenodd" d="M4.5 8.25C4.91421 8.25 5.25 8.58579 5.25 9V11.75H8C8.41421 11.75 8.75 12.0858 8.75 12.5C8.75 12.9142 8.41421 13.25 8 13.25H5.25V16C5.25 16.4142 4.91421 16.75 4.5 16.75C4.08579 16.75 3.75 16.4142 3.75 16V13.25H1C0.585786 13.25 0.25 12.9142 0.25 12.5C0.25 12.0858 0.585786 11.75 1 11.75H3.75V9C3.75 8.58579 4.08579 8.25 4.5 8.25Z" fill="white"/>
</svg>
