<svg width="39" height="78" viewBox="0 0 39 78" fill="none" xmlns="http://www.w3.org/2000/svg">
<path d="M39 0C28.6566 0 18.7368 4.10892 11.4228 11.4228C4.10892 18.7368 0 28.6566 0 39C0 49.3434 4.10891 59.2632 11.4228 66.5772C18.7367 73.8911 28.6565 78 39 78L39 39L39 0Z" fill="#D8EDF6"/>
<path fill-rule="evenodd" clip-rule="evenodd" d="M20.293 45.2071C19.9025 44.8166 19.9025 44.1834 20.293 43.7929L25.5859 38.5L20.293 33.2071C19.9025 32.8166 19.9025 32.1834 20.293 31.7929C20.6835 31.4024 21.3167 31.4024 21.7072 31.7929L27.7072 37.7929C28.0978 38.1834 28.0978 38.8166 27.7072 39.2071L21.7072 45.2071C21.3167 45.5976 20.6835 45.5976 20.293 45.2071Z" fill="#5D7687"/>
</svg>
