<svg width="24" height="24" viewBox="0 0 24 24" fill="none" xmlns="http://www.w3.org/2000/svg">
<path fill-rule="evenodd" clip-rule="evenodd" d="M1 10.5C1 5.25332 5.25332 1 10.5 1C15.7467 1 20 5.25332 20 10.5C20 12.7631 19.2086 14.8414 17.8875 16.4733L21.5607 20.1464C21.9512 20.537 21.9512 21.1701 21.5607 21.5607C21.1701 21.9512 20.537 21.9512 20.1464 21.5607L16.4733 17.8875C14.8414 19.2086 12.7631 20 10.5 20C5.25332 20 1 15.7467 1 10.5ZM10.5 3C6.35788 3 3 6.35788 3 10.5C3 14.6421 6.35788 18 10.5 18C14.6421 18 18 14.6421 18 10.5C18 6.35788 14.6421 3 10.5 3Z" fill="black" fill-opacity="1"/>
</svg>
