<svg width="135" height="96" viewBox="0 0 135 96" fill="none" xmlns="http://www.w3.org/2000/svg">
<path d="M38.4444 47.3901C39.1982 47.3901 39.9352 47.1666 40.562 46.7477C41.1888 46.3289 41.6773 45.7336 41.9658 45.0372C42.2543 44.3407 42.3298 43.5743 42.1827 42.8349C42.0356 42.0956 41.6726 41.4164 41.1396 40.8834C40.6065 40.3503 39.9273 39.9873 39.188 39.8402C38.4486 39.6931 37.6822 39.7686 36.9858 40.0571C36.2893 40.3456 35.694 40.8341 35.2752 41.4609C34.8564 42.0878 34.6328 42.8247 34.6328 43.5785C34.634 44.5891 35.0359 45.5579 35.7505 46.2724C36.4651 46.987 37.4339 47.3889 38.4444 47.3901ZM38.4444 42.9214C38.5744 42.9214 38.7014 42.9599 38.8095 43.0321C38.9175 43.1043 39.0018 43.207 39.0515 43.327C39.1013 43.4471 39.1143 43.5793 39.0889 43.7067C39.0636 43.8342 39.001 43.9513 38.9091 44.0432C38.8172 44.1351 38.7001 44.1977 38.5726 44.2231C38.4451 44.2484 38.313 44.2354 38.1929 44.1857C38.0728 44.1359 37.9702 44.0517 37.898 43.9436C37.8258 43.8356 37.7872 43.7085 37.7872 43.5785C37.7872 43.4042 37.8564 43.2371 37.9797 43.1138C38.1029 42.9906 38.2701 42.9214 38.4444 42.9214Z" fill="#009FE3"/>
<path d="M74.8683 65.5198C74.1205 65.5188 73.3893 65.7397 72.7671 66.1545C72.1449 66.5693 71.6597 67.1592 71.3729 67.8498C71.0861 68.5404 71.0105 69.3006 71.1559 70.0341C71.3012 70.7676 71.6608 71.4415 72.1892 71.9706C72.7176 72.4997 73.3911 72.8602 74.1244 73.0064C74.8578 73.1526 75.618 73.0781 76.3089 72.7921C76.9999 72.5062 77.5905 72.0217 78.006 71.4C78.4215 70.7783 78.6433 70.0474 78.6433 69.2996C78.6429 68.2981 78.2451 67.3377 77.5374 66.6291C76.8297 65.9205 75.8698 65.5215 74.8683 65.5198ZM74.8683 69.9247C74.7444 69.9256 74.623 69.8897 74.5196 69.8216C74.4161 69.7534 74.3352 69.6561 74.2872 69.5419C74.2391 69.4277 74.2261 69.3018 74.2497 69.1801C74.2733 69.0585 74.3325 68.9466 74.4198 68.8587C74.5071 68.7708 74.6185 68.7108 74.74 68.6863C74.8614 68.6618 74.9874 68.674 75.102 68.7212C75.2165 68.7684 75.3144 68.8486 75.3833 68.9516C75.4522 69.0546 75.489 69.1757 75.4889 69.2996C75.4894 69.4647 75.4243 69.6233 75.308 69.7406C75.1916 69.8578 75.0335 69.924 74.8683 69.9247Z" fill="#009FE3"/>
<path d="M19.3865 72.5269C17.8008 72.5269 16.2507 72.9971 14.9322 73.878C13.6138 74.759 12.5861 76.0112 11.9793 77.4762C11.3725 78.9412 11.2137 80.5532 11.5231 82.1085C11.8324 83.6637 12.596 85.0923 13.7173 86.2135C14.8385 87.3348 16.2671 88.0984 17.8224 88.4078C19.3776 88.7171 20.9896 88.5583 22.4546 87.9515C23.9196 87.3447 25.1718 86.3171 26.0528 84.9986C26.9337 83.6801 27.4039 82.13 27.4039 80.5443C27.4015 78.4187 26.556 76.3809 25.053 74.8778C23.55 73.3748 21.5121 72.5293 19.3865 72.5269ZM19.3865 85.4074C18.4247 85.4074 17.4844 85.1222 16.6847 84.5878C15.885 84.0535 15.2617 83.2939 14.8936 82.4053C14.5255 81.5167 14.4292 80.5389 14.6169 79.5956C14.8045 78.6523 15.2677 77.7857 15.9478 77.1056C16.6279 76.4255 17.4944 75.9624 18.4378 75.7747C19.3811 75.5871 20.3589 75.6834 21.2475 76.0515C22.1361 76.4195 22.8956 77.0428 23.43 77.8426C23.9643 78.6423 24.2495 79.5825 24.2495 80.5443C24.2481 81.8336 23.7352 83.0697 22.8236 83.9814C21.9119 84.8931 20.6758 85.4059 19.3865 85.4074Z" fill="#009FE3"/>
<path d="M129.88 0.576242C128.87 0.161513 127.781 -0.0334101 126.687 0.00467626C125.594 0.0427626 124.521 0.312969 123.543 0.796991C122.564 1.28101 121.702 1.96754 121.015 2.81007C120.328 3.65261 119.832 4.63146 119.56 5.68031L116.874 16.0609C116.773 16.4511 116.817 16.8643 116.999 17.2246C117.181 17.5849 117.488 17.8682 117.864 18.0226L118.024 18.0882L104.16 51.6055L102.986 51.1238C102.644 50.9833 102.277 50.911 101.906 50.911C101.536 50.911 101.169 50.9833 100.826 51.1238C100.484 51.2643 100.173 51.4702 99.9109 51.7298C99.649 51.9894 99.4413 52.2975 99.2999 52.6366L95.3929 61.9995L86.724 58.4123C84.0718 57.3203 81.1944 56.8706 78.3312 57.1008L45.4867 37.4745V30.8105H48.1564C49.3525 30.8091 50.4992 30.3383 51.345 29.5013C52.1907 28.6643 52.6665 27.5295 52.6679 26.3458V18.2576C52.6679 17.8135 52.4897 17.3877 52.1724 17.0737C51.8551 16.7597 51.4248 16.5833 50.9761 16.5833H44.4544C44.0057 16.5833 43.5754 16.7597 43.2581 17.0737C42.9408 17.3877 42.7626 17.8135 42.7626 18.2576V20.6738H31.7418V18.2576C31.7418 17.8135 31.5636 17.3877 31.2463 17.0737C30.929 16.7597 30.4987 16.5833 30.05 16.5833H23.528C23.0793 16.5833 22.649 16.7597 22.3317 17.0737C22.0144 17.3877 21.8362 17.8135 21.8362 18.2576V26.3458C21.8375 27.5295 22.3133 28.6644 23.1591 29.5014C24.0048 30.3384 25.1516 30.8092 26.3477 30.8105H29.0171V36.7953C29.0181 37.2358 28.8427 37.6587 28.5293 37.9715L19.3591 47.1661C17.8133 48.6953 16.9422 50.7678 16.9359 52.9307C16.9297 55.0937 17.7889 57.1711 19.3258 58.7089C20.0886 59.4747 20.998 60.0821 22.0009 60.4958C23.0038 60.9094 24.08 61.1209 25.1665 61.118C26.6864 61.1142 28.1757 60.6952 29.4702 59.9072L43.0832 66.1832L28.5617 70.0517C26.4626 67.3244 23.5212 65.3498 20.1845 64.428C16.8478 63.5062 13.2982 63.6876 10.0752 64.9445C6.85216 66.2015 4.13186 68.4653 2.32765 71.3921C0.523446 74.3188 -0.266026 77.7483 0.0792038 81.1596C0.424433 84.5709 1.88549 87.7774 4.24036 90.2919C6.59522 92.8064 9.71515 94.4914 13.1261 95.0908C16.537 95.6902 20.0523 95.1714 23.138 93.613C26.2237 92.0546 28.711 89.542 30.222 86.4569H100.189C100.759 88.6359 102.044 90.5657 103.842 91.9435C105.641 93.3213 107.851 94.0688 110.125 94.0688C112.399 94.0688 114.609 93.3213 116.408 91.9435C118.206 90.5657 119.491 88.6359 120.061 86.4569H120.354C121.936 86.4568 123.47 85.9145 124.693 84.9222C125.917 83.9299 126.756 82.5488 127.068 81.0137C127.379 79.4785 127.144 77.8841 126.401 76.5012C125.659 75.1184 124.456 74.0325 122.997 73.4282L110.472 68.2429L114.401 58.827C114.685 58.1436 114.684 57.3765 114.398 56.6937C114.112 56.0109 113.565 55.4681 112.875 55.184L111.911 54.7883L125.777 21.2716L125.922 21.331C126.299 21.4856 126.72 21.5001 127.107 21.3719C127.494 21.2437 127.821 20.9814 128.028 20.6334L133.531 11.3913C134.086 10.4601 134.432 9.42208 134.546 8.3472C134.661 7.27232 134.541 6.18565 134.195 5.16055C133.848 4.13545 133.284 3.19578 132.54 2.40499C131.795 1.61419 130.888 0.990668 129.879 0.576521L129.88 0.576242ZM15.9371 91.9846C13.458 91.9908 11.0327 91.2689 8.96836 89.9103C6.90402 88.5517 5.2934 86.6175 4.34041 84.3526C3.38742 82.0876 3.1349 79.5938 3.61482 77.1868C4.09475 74.7797 5.28553 72.5677 7.03644 70.8308C8.78734 69.0938 11.0196 67.9101 13.4507 67.4293C15.8818 66.9486 18.4023 67.1924 20.6933 68.1301C22.9842 69.0677 24.9426 70.657 26.3203 72.6967C27.6981 74.7363 28.4334 77.1347 28.4332 79.5881C28.4334 82.8708 27.1179 86.0195 24.7752 88.3435C22.4326 90.6674 19.2541 91.9769 15.9371 91.9846ZM73.4475 58.0939L63.4804 60.7493L49.5355 54.3463L41.5972 48.1188L43.0592 46.6566C44.4827 45.2434 45.3389 43.3666 45.4684 41.3753L73.4475 58.0939ZM58.3925 62.1047L57.3427 62.3837L36.7831 52.9324L39.2027 50.513L47.5908 57.0932C47.695 57.1751 47.8085 57.2445 47.9291 57.3L58.3925 62.1047ZM26.3477 27.462C26.0486 27.462 25.7617 27.3444 25.5502 27.135C25.3387 26.9257 25.2198 26.6418 25.2198 26.3458V19.9319H28.3582V21.2319C28.359 21.9718 28.6563 22.6811 29.1849 23.2042C29.7136 23.7274 30.4303 24.0216 31.1779 24.0224H43.3265C44.0741 24.0216 44.7909 23.7274 45.3195 23.2042C45.8481 22.6811 46.1454 21.9718 46.1462 21.2319V19.9319H49.2843V26.3458C49.2843 26.6418 49.1655 26.9257 48.9539 27.135C48.7424 27.3444 48.4555 27.462 48.1564 27.462H26.3477ZM22.6562 51.6253C22.1485 52.7252 22.0898 53.9767 22.4924 55.1184C22.8949 56.2602 23.7275 57.2039 24.8163 57.7526C23.6487 57.6733 22.5504 57.1747 21.7279 56.3507C20.8198 55.4411 20.3129 54.2124 20.3182 52.9337C20.3235 51.655 20.8405 50.4305 21.7561 49.5283L30.9362 40.3239C31.8767 39.3857 32.403 38.1168 32.3996 36.7953V30.8105H42.1019V40.8686C42.0979 42.1536 41.5799 43.3848 40.6614 44.293L33.521 51.4339L28.9249 49.3212C27.7845 48.8049 26.4836 48.7575 25.3079 49.1895C24.1322 49.6215 23.1778 50.4975 22.6542 51.6253H22.6562ZM26.3939 54.7945C26.0688 54.6455 25.8165 54.3751 25.6925 54.0424C25.5685 53.7097 25.5829 53.3419 25.7324 53.0197C25.8061 52.8606 25.911 52.7175 26.0409 52.5987C26.1709 52.48 26.3234 52.3879 26.4895 52.3279C26.6529 52.2666 26.827 52.2378 27.0017 52.2434C27.1763 52.249 27.3481 52.2889 27.5072 52.3606L52.258 63.7382L48.1618 64.8296L26.3939 54.7945ZM110.125 90.718C108.759 90.7217 107.422 90.3241 106.284 89.5756C105.146 88.8271 104.259 87.7613 103.733 86.5132C103.208 85.265 103.068 83.8906 103.332 82.564C103.597 81.2374 104.253 80.0182 105.218 79.0608C106.182 78.1034 107.412 77.4508 108.752 77.1857C110.092 76.9205 111.481 77.0547 112.744 77.5713C114.006 78.0879 115.086 78.9636 115.845 80.0876C116.605 81.2116 117.01 82.5333 117.01 83.8855C117.011 85.6945 116.286 87.4298 114.995 88.7107C113.704 89.9916 111.953 90.7135 110.125 90.718ZM121.691 76.5186C122.429 76.8241 123.037 77.3729 123.413 78.0717C123.788 78.7706 123.908 79.5765 123.751 80.3526C123.594 81.1288 123.171 81.8274 122.553 82.3298C121.935 82.8323 121.161 83.1077 120.361 83.1092C120.169 80.5526 119.007 78.1623 117.109 76.418C115.21 74.6736 112.716 73.7042 110.125 73.7042C107.535 73.7042 105.04 74.6736 103.142 76.418C101.243 78.1623 100.082 80.5526 99.8898 83.1092H31.4116C32.1984 79.7308 31.8329 76.1896 30.3723 73.0383L76.0063 60.8808C79.1274 60.0549 82.4368 60.2734 85.4193 61.5022L121.691 76.5186ZM107.35 66.952L98.5135 63.2917L102.211 54.4314L111.058 58.0641L107.35 66.952ZM108.786 53.5072L107.284 52.8908L121.149 19.3735L122.65 19.9899L108.786 53.5072ZM130.617 9.69219L125.859 17.6802L120.514 15.4866L122.837 6.51104C122.988 5.92764 123.264 5.38319 123.647 4.9145C124.029 4.4458 124.508 4.06379 125.053 3.79429C125.597 3.5248 126.193 3.3741 126.801 3.35238C127.41 3.33067 128.015 3.43845 128.578 3.66844C129.14 3.89843 129.646 4.24526 130.062 4.68548C130.477 5.12571 130.792 5.64906 130.985 6.22015C131.179 6.79124 131.246 7.39676 131.182 7.99576C131.119 8.59475 130.926 9.17327 130.617 9.69219Z" fill="#009FE3"/>
</svg>
