<svg width="23" height="23" viewBox="0 0 23 23" fill="none" xmlns="http://www.w3.org/2000/svg">
<path d="M11.5 22.6108C17.6363 22.6108 22.6108 17.6363 22.6108 11.5C22.6108 5.36365 17.6363 0.38916 11.5 0.38916C5.36365 0.38916 0.38916 5.36365 0.38916 11.5C0.38916 17.6363 5.36365 22.6108 11.5 22.6108Z" fill="#79CF91"/>
<path d="M11.4999 20.6531C16.5551 20.6531 20.6531 16.5551 20.6531 11.4999C20.6531 6.44472 16.5551 2.34668 11.4999 2.34668C6.44472 2.34668 2.34668 6.44472 2.34668 11.4999C2.34668 16.5551 6.44472 20.6531 11.4999 20.6531Z" fill="#50AA69"/>
<path d="M10.4161 15.7254C10.271 15.7254 10.1274 15.6963 9.99373 15.6398C9.8601 15.5832 9.73919 15.5004 9.63817 15.3963L6.11483 11.7664C6.01406 11.6645 5.93446 11.5438 5.88065 11.411C5.82684 11.2782 5.79988 11.1361 5.80132 10.9929C5.80277 10.8496 5.83259 10.7081 5.88907 10.5764C5.94555 10.4448 6.02756 10.3256 6.13037 10.2258C6.23317 10.1261 6.35473 10.0477 6.48802 9.99518C6.62131 9.94268 6.76368 9.91712 6.90691 9.91998C7.05014 9.92283 7.19138 9.95405 7.32246 10.0118C7.45355 10.0696 7.57189 10.1528 7.67064 10.2566L10.3887 13.0567L15.3051 7.63173C15.4994 7.42349 15.7678 7.30005 16.0523 7.28807C16.3369 7.27609 16.6147 7.37654 16.8258 7.56772C17.0369 7.75889 17.1643 8.02544 17.1805 8.30977C17.1966 8.5941 17.1003 8.87338 16.9123 9.08728L11.2209 15.3701C11.1211 15.4799 10.9998 15.5682 10.8645 15.6293C10.7292 15.6904 10.5829 15.7231 10.4345 15.7254H10.4161Z" fill="white"/>
</svg>
