<svg width="20" height="20" viewBox="0 0 20 20" fill="none" xmlns="http://www.w3.org/2000/svg">
<path d="M5.44692 2.40621C6.11761 2.40621 6.73554 2.76995 7.06102 3.35629L8.19019 5.39023C8.48584 5.92283 8.49971 6.567 8.22731 7.11191L7.29503 8.97587L7.39684 9.26783C7.57255 9.73169 7.81706 10.1963 8.13859 10.6265C8.28024 10.8161 8.43427 10.995 8.60113 11.1619C8.76596 11.3267 8.94247 11.4789 9.12923 11.6189C9.55954 11.9415 10.0242 12.1861 10.4881 12.3613C10.5786 12.3956 10.6615 12.4245 10.7352 12.4485L10.781 12.4619L12.6452 11.5304C13.136 11.285 13.7072 11.2719 14.205 11.4877L14.368 11.5681L16.4077 12.7021C16.9935 13.0278 17.3568 13.6454 17.3568 14.3156V16.6573C17.3568 18.4806 15.6307 19.788 13.9011 19.2044C10.444 18.0379 7.38142 16.4693 5.33753 14.4254C3.29369 12.3816 1.72511 9.31903 0.558592 5.86193C-0.0250229 4.13225 1.28235 2.40621 3.10572 2.40621H5.44692ZM5.4469 4.25234H3.10572C2.52185 4.25234 2.13586 4.76196 2.30785 5.27169C3.39111 8.48204 4.84643 11.3234 6.64296 13.12C8.43954 14.9166 11.281 16.3719 14.4913 17.4551C15.001 17.6271 15.5106 17.2411 15.5106 16.6573V14.3156L13.4709 13.1817L11.2957 14.2692C11.1144 14.3599 10.9082 14.3884 10.7091 14.3502C10.0062 14.2154 9.01598 13.8413 8.02185 13.096C7.76642 12.9045 7.52367 12.6952 7.29571 12.4673C7.06504 12.2366 6.85336 11.9907 6.65982 11.7318C5.91835 10.7397 5.54413 9.75177 5.40782 9.05088C5.36896 8.85104 5.39725 8.64395 5.4883 8.46185L6.57602 6.28635L5.4469 4.25234ZM15.5241 0.842781L15.6186 0.925392L19.3109 4.6177C19.4087 4.71553 19.48 4.82986 19.5247 4.95173C19.5272 4.96217 19.5306 4.9718 19.5339 4.9815C19.5539 5.03843 19.567 5.09769 19.5744 5.15753C19.5788 5.19569 19.5813 5.23468 19.5813 5.27424C19.5813 5.55268 19.458 5.80232 19.263 5.97157L15.6186 9.61544C15.2581 9.97592 14.6736 9.97592 14.3132 9.61544C13.9827 9.28499 13.9552 8.76635 14.2306 8.40454L14.3132 8.31001L16.424 6.19703L11.2736 6.19732C10.7638 6.19732 10.3505 5.78405 10.3505 5.27424C10.3505 4.80086 10.7068 4.4107 11.1659 4.35738L11.2736 4.35117L16.434 4.35103L14.3132 2.23082C13.9827 1.90038 13.9552 1.38173 14.2306 1.01992L14.3132 0.925392C14.6436 0.594949 15.1623 0.567412 15.5241 0.842781Z" fill="black" fill-opacity="0.65"/>
</svg>
