<svg width="48" height="48" viewBox="0 0 48 48" fill="none" xmlns="http://www.w3.org/2000/svg">
<path d="M24 48C10.7661 48 0 37.2339 0 24C0 10.7661 10.7661 0 24 0C28.483 0 32.8558 1.24417 36.6464 3.59856C37.3088 4.00964 37.5118 4.88016 37.1007 5.54272C36.6889 6.20517 35.8184 6.40966 35.1566 5.99711C31.8139 3.92059 27.9559 2.82361 24 2.82361C12.3232 2.82361 2.8235 12.3236 2.8235 24.0001C2.8235 35.6766 12.3232 45.1765 24 45.1765C35.6765 45.1765 45.1765 35.6765 45.1765 24C45.1765 21.653 44.7956 19.3485 44.0442 17.1508C43.792 16.4132 44.1861 15.6103 44.9236 15.3581C45.6626 15.1074 46.4641 15.5 46.7163 16.2376C47.5678 18.7302 48.0001 21.342 48.0001 24.0001C48 37.2339 37.2338 48 24 48Z" fill="#6FCF97"/>
<path d="M24.0001 32.1423C23.642 32.1423 23.2957 32.0063 23.0336 31.7592L11.7394 21.1497C11.1711 20.616 11.1431 19.7225 11.677 19.1542C12.2109 18.5865 13.1042 18.5571 13.6726 19.0924L23.8803 28.6814L42.4288 6.66222C42.9303 6.0659 43.8214 5.98946 44.4177 6.49232C45.014 6.99455 45.0905 7.88494 44.5876 8.48127L25.0795 31.6402C24.8302 31.9365 24.4692 32.1174 24.0824 32.1402C24.0553 32.1416 24.0273 32.1423 24.0001 32.1423Z" fill="#6FCF97"/>
</svg>
