<svg width="22" height="22" viewBox="0 0 22 22" fill="none" xmlns="http://www.w3.org/2000/svg">
<path fill-rule="evenodd" clip-rule="evenodd" d="M15 2C12.2386 2 10 4.23858 10 7C10 7.84619 10.2094 8.64057 10.5784 9.33702C10.784 9.72505 10.7124 10.2018 10.4019 10.5123L2.41421 18.5L3.5 19.5858L11.4877 11.5981C11.7982 11.2876 12.275 11.216 12.663 11.4216C13.3594 11.7906 14.1538 12 15 12C17.7614 12 20 9.76142 20 7C20 6.66128 19.9664 6.33085 19.9025 6.01169L17.2071 8.70711C16.8166 9.09763 16.1834 9.09763 15.7929 8.70711L13.2929 6.20711C12.9024 5.81658 12.9024 5.18342 13.2929 4.79289L15.9883 2.09747C15.6692 2.03356 15.3387 2 15 2ZM8 7C8 3.134 11.134 0 15 0C16.1805 0 17.2955 0.293034 18.2734 0.81117C18.5538 0.959721 18.747 1.23251 18.7941 1.54627C18.8412 1.86004 18.7367 2.17755 18.5123 2.4019L15.4142 5.5L16.5 6.58579L19.5981 3.48769C19.8225 3.26334 20.14 3.15876 20.4537 3.20589C20.7675 3.25302 21.0403 3.44625 21.1888 3.72662C21.7069 4.70447 22 5.81949 22 7C22 10.866 18.866 14 15 14C14.0862 14 13.2116 13.8244 12.4095 13.5047L4.20711 21.7071C3.81658 22.0976 3.18342 22.0976 2.79289 21.7071L0.292893 19.2071C-0.0976311 18.8166 -0.0976311 18.1834 0.292893 17.7929L8.49528 9.5905C8.17561 8.78841 8 7.91383 8 7Z" fill="black" fill-opacity="0.65"/>
</svg>
