<svg width="24" height="17" viewBox="0 0 24 17" fill="none" xmlns="http://www.w3.org/2000/svg">
<path fill-rule="evenodd" clip-rule="evenodd" d="M0 1.5C0 0.947715 0.447715 0.5 1 0.5H15.5C16.0523 0.5 16.5 0.947715 16.5 1.5V4H19.7857C20.099 4 20.3943 4.14687 20.5833 4.39679L23.7976 8.64679C23.9289 8.82046 24 9.03225 24 9.25V13.5C24 14.0523 23.5523 14.5 23 14.5H20.3293C19.9174 15.6652 18.8062 16.5 17.5 16.5C16.1938 16.5 15.0826 15.6652 14.6707 14.5H8.82929C8.41745 15.6652 7.3062 16.5 6 16.5C4.69378 16.5 3.58255 15.6652 3.17071 14.5H1C0.447715 14.5 0 14.0523 0 13.5V1.5ZM3.17071 12.5C3.58255 11.3348 4.69378 10.5 6 10.5C7.3062 10.5 8.41745 11.3348 8.82929 12.5H14.5V2.5H2V12.5H3.17071ZM16.5 10.6707V6H19.2882L22 9.58557V12.5H20.3293C19.9174 11.3348 18.8062 10.5 17.5 10.5C17.1494 10.5 16.8128 10.5602 16.5 10.6707ZM6 12.5C5.44772 12.5 5 12.9477 5 13.5C5 14.0523 5.44772 14.5 6 14.5C6.55227 14.5 7 14.0523 7 13.5C7 12.9477 6.55227 12.5 6 12.5ZM17.5 12.5C16.9477 12.5 16.5 12.9477 16.5 13.5C16.5 14.0523 16.9477 14.5 17.5 14.5C18.0523 14.5 18.5 14.0523 18.5 13.5C18.5 12.9477 18.0523 12.5 17.5 12.5Z" fill="black" fill-opacity="0.65"/>
</svg>
