<svg width="31" height="31" viewBox="0 0 31 31" fill="none" xmlns="http://www.w3.org/2000/svg">
<path d="M15.5 26.6108C21.6363 26.6108 26.6108 21.6363 26.6108 15.5C26.6108 9.36365 21.6363 4.38916 15.5 4.38916C9.36365 4.38916 4.38916 9.36365 4.38916 15.5C4.38916 21.6363 9.36365 26.6108 15.5 26.6108Z" fill="#EE9393"/>
<path d="M15.4999 24.6531C20.5551 24.6531 24.6531 20.5551 24.6531 15.4999C24.6531 10.4447 20.5551 6.34668 15.4999 6.34668C10.4447 6.34668 6.34668 10.4447 6.34668 15.4999C6.34668 20.5551 10.4447 24.6531 15.4999 24.6531Z" fill="#C83535"/>
<path d="M16.6626 15.5137L19.7538 12.4225C20.0821 12.0942 20.0821 11.5745 19.7538 11.2736C19.4255 10.9453 18.9058 10.9453 18.6049 11.2736L15.5137 14.3647L12.4225 11.2462C12.0942 10.9179 11.5745 10.9179 11.2736 11.2462C10.9453 11.5745 10.9453 12.0942 11.2736 12.3951L14.3647 15.5137L11.2462 18.6049C10.9179 18.9331 10.9179 19.4529 11.2462 19.7538C11.4103 19.9179 11.6292 20 11.8207 20C12.0122 20 12.231 19.9179 12.3951 19.7538L15.5137 16.6626L18.6049 19.7538C18.769 19.9179 18.9878 20 19.1793 20C19.3708 20 19.5897 19.9179 19.7538 19.7538C20.0821 19.4255 20.0821 18.9058 19.7538 18.6049L16.6626 15.5137Z" fill="white"/>
</svg>
