<svg width="18" height="10" viewBox="0 0 18 10" fill="none" xmlns="http://www.w3.org/2000/svg">
<path fill-rule="evenodd" clip-rule="evenodd" d="M9.66313 9.8651C9.66313 9.8651 9.98077 9.83045 10.1435 9.65892C10.2924 9.50176 10.2872 9.20517 10.2872 9.20517C10.2872 9.20517 10.2674 7.82026 10.9225 7.61578C11.5681 7.41467 12.3971 8.95506 13.2768 9.54739C13.9414 9.99522 14.4458 9.89721 14.4458 9.89721L16.7967 9.8651C16.7967 9.8651 18.026 9.79074 17.4432 8.84183C17.395 8.7641 17.1032 8.13966 15.6957 6.85699C14.2212 5.51432 14.4191 5.73148 16.1941 3.40865C17.2753 1.99416 17.7075 1.13059 17.5723 0.761341C17.4441 0.408141 16.6487 0.501934 16.6487 0.501934L14.0025 0.517988C14.0025 0.517988 13.8062 0.491794 13.6608 0.577136C13.5187 0.660789 13.4266 0.855978 13.4266 0.855978C13.4266 0.855978 13.0083 1.95022 12.4496 2.88138C11.2711 4.8451 10.8003 4.94904 10.6074 4.82736C10.159 4.5426 10.2709 3.68495 10.2709 3.07573C10.2709 1.172 10.5653 0.378567 9.69842 0.173239C9.41091 0.104796 9.19915 0.0600119 8.46315 0.0524071C7.51884 0.0431124 6.72 0.055787 6.26721 0.272946C5.96592 0.417436 5.7335 0.740216 5.87554 0.758806C6.05028 0.78162 6.44626 0.863583 6.6563 1.14411C6.92746 1.50661 6.91799 2.31947 6.91799 2.31947C6.91799 2.31947 7.07379 4.56035 6.55386 4.83834C6.19748 5.02931 5.70854 4.63977 4.65748 2.85772C4.11947 1.94515 3.71317 0.936251 3.71317 0.936251C3.71317 0.936251 3.63483 0.747821 3.49452 0.646424C3.32494 0.523903 3.08821 0.485879 3.08821 0.485879L0.573767 0.501934C0.573767 0.501934 0.195869 0.512073 0.0572773 0.673464C-0.0658195 0.816264 0.0478083 1.11285 0.0478083 1.11285C0.0478083 1.11285 2.0165 5.63431 4.24601 7.91321C6.29045 10.002 8.61121 9.8651 8.61121 9.8651H9.66313Z" fill="white"/>
</svg>
