<svg width="16" height="12" viewBox="0 0 16 12" fill="none" xmlns="http://www.w3.org/2000/svg">
<path d="M15.3336 9.78116C15.1808 10.5832 14.5315 11.1944 13.7294 11.3089C12.469 11.4999 10.3683 11.7291 8.00022 11.7291C5.67036 11.7291 3.56966 11.4999 2.27105 11.3089C1.46897 11.1944 0.819662 10.5832 0.666884 9.78116C0.514107 8.90269 0.361328 7.60408 0.361328 5.99992C0.361328 4.39575 0.514106 3.09714 0.666884 2.21867C0.819662 1.41658 1.46897 0.805474 2.27105 0.690891C3.53147 0.499918 5.63216 0.270752 8.00022 0.270752C10.3683 0.270752 12.4308 0.499918 13.7294 0.690891C14.5315 0.805474 15.1808 1.41658 15.3336 2.21867C15.4863 3.09714 15.6773 4.39575 15.6773 5.99992C15.6391 7.60408 15.4863 8.90269 15.3336 9.78116Z" fill="white"/>
<path d="M6.47266 8.67364V3.32642L11.056 6.00003L6.47266 8.67364Z" fill="#487CE8"/>
</svg>
