<svg width="88" height="125" viewBox="0 0 88 125" fill="none" xmlns="http://www.w3.org/2000/svg">
<path d="M0.000120497 107.137C-0.0129367 110.807 1.03542 114.408 3.02616 117.53C5.0169 120.652 7.87027 123.17 11.2623 124.798C11.5391 124.935 11.8478 124.999 12.158 124.985C12.4683 124.971 12.7695 124.88 13.0322 124.719C13.2966 124.557 13.5135 124.331 13.6619 124.064C13.8103 123.797 13.8853 123.497 13.8797 123.194V113.868L20.2286 109.784L26.7198 114.18L26.6947 123.198C26.6943 123.505 26.7746 123.806 26.928 124.074C27.0814 124.342 27.3028 124.568 27.5712 124.729C27.8396 124.891 28.1462 124.983 28.4618 124.998C28.7774 125.013 29.0917 124.949 29.3747 124.812C33.5372 122.82 36.8687 119.502 38.8125 115.414L42.1078 115.637C42.1516 115.64 42.1952 115.641 42.2383 115.641C42.6756 115.641 43.0987 115.491 43.4324 115.216C43.7661 114.942 43.9889 114.562 44.0611 114.144L45.5468 105.538C49.4023 104.863 53.1313 103.629 56.609 101.879L63.0778 107.86C63.411 108.168 63.8509 108.345 64.3113 108.355C64.7717 108.366 65.2195 108.209 65.567 107.916L76.0045 99.116C76.3521 98.8231 76.5746 98.4149 76.6283 97.9713C76.6821 97.5277 76.5632 97.0807 76.2951 96.7176L71.0787 89.6582C73.3403 86.5591 75.1204 83.1547 76.3622 79.554L85.2344 79.3178C85.6936 79.3055 86.1316 79.128 86.4632 78.8197C86.7949 78.5115 86.9963 78.0945 87.0284 77.6501L87.9955 64.2364C88.0276 63.7916 87.8876 63.3512 87.6031 63.0011C87.3185 62.6509 86.9096 62.4161 86.4562 62.3425L77.5832 60.9018C76.8869 57.1624 75.6152 53.5456 73.8108 50.1727L79.9784 43.8989C80.2947 43.5771 80.4765 43.1528 80.4885 42.7083C80.5005 42.2639 80.3419 41.831 80.0434 41.4935L71.0935 31.3788C70.7923 31.0384 70.3705 30.8198 69.9113 30.7662C69.4521 30.7126 68.9889 30.8277 68.613 31.0891L61.3358 36.1474C58.1408 33.9542 54.6311 32.2277 50.919 31.0232L50.6825 22.3003C50.6705 21.8545 50.4877 21.4291 50.1698 21.107C49.8519 20.7848 49.4217 20.5891 48.9631 20.558L40.5516 19.9874C41.003 15.9795 40.1762 11.9337 38.1828 8.39573C36.1894 4.85774 33.1252 1.99776 29.4035 0.201518C29.13 0.064899 28.8243 0.000285272 28.517 0.0141331C28.2097 0.027981 27.9116 0.119806 27.6523 0.280431C27.3904 0.443902 27.1765 0.670266 27.0314 0.937553C26.8863 1.20484 26.8149 1.50397 26.8241 1.80591V11.132L20.4539 15.2147L13.9521 10.8192L13.9722 1.80053C13.9716 1.4941 13.8905 1.19286 13.7366 0.925235C13.5827 0.657611 13.361 0.432423 13.0925 0.270911C12.824 0.109399 12.5175 0.0168874 12.2019 0.00210148C11.8863 -0.0126844 11.572 0.0507431 11.2887 0.186401C7.88885 1.81143 5.02808 4.33011 3.03244 7.4554C1.03679 10.5807 -0.0134367 14.1869 0.00144063 17.8629C0.00144063 25.6323 4.89787 32.7155 12.0305 35.8695V89.1301C4.89787 92.2841 0.000120497 99.3686 0.000120497 107.137ZM47.0296 24.0217L47.2568 32.3998C47.2671 32.78 47.4017 33.1472 47.6412 33.4482C47.8807 33.7494 48.2127 33.9688 48.5893 34.075C52.7903 35.2849 56.731 37.2221 60.221 39.7928C60.5356 40.0213 60.9171 40.1466 61.3102 40.1506C61.7032 40.1546 62.0873 40.037 62.4068 39.8149L69.3904 34.9607L76.1471 42.5958L70.2033 48.6424C69.9286 48.9217 69.7542 49.2795 69.706 49.6626C69.6577 50.0457 69.7382 50.4337 69.9354 50.7689C72.0892 54.4625 73.5153 58.5127 74.1408 62.7124C74.1966 63.0889 74.3745 63.4384 74.6486 63.7104C74.9227 63.9823 75.2788 64.1628 75.6656 64.2256L84.1893 65.6092L83.4562 75.7746L74.9385 76.0016C74.5469 76.012 74.1688 76.1427 73.8587 76.375C73.5486 76.6073 73.3226 76.9291 73.2132 77.2939C71.9662 81.3684 69.9691 85.1903 67.3185 88.5749C67.0828 88.8801 66.9535 89.2501 66.9494 89.6314C66.9453 90.0126 67.0665 90.3852 67.2955 90.6951L72.3069 97.4765L64.4105 104.134L58.1834 98.3773C57.8955 98.1109 57.5266 97.9417 57.1316 97.8949C56.7365 97.848 56.3365 97.926 55.9908 98.1173C52.1834 100.207 48.0081 101.591 43.6783 102.198C43.2902 102.253 42.9299 102.425 42.6495 102.691C42.3691 102.957 42.1831 103.302 42.1184 103.678L40.6918 111.944L40.0803 111.903C40.475 110.343 40.674 108.743 40.6731 107.137C40.6652 102.969 39.2966 98.9095 36.7633 95.5418C37.3992 95.5815 38.0314 95.6036 38.6641 95.6036C42.8781 95.5982 47.0398 94.6972 50.8563 92.9642C54.6728 91.2311 58.0514 88.708 60.7543 85.5723C63.4573 82.4367 65.419 78.7647 66.5013 74.8147C67.5837 70.8647 67.7605 66.7327 67.0193 62.7093C66.2781 58.6859 64.6368 54.8689 62.211 51.5268C59.7852 48.1848 56.6338 45.3989 52.9785 43.3651C49.3232 41.3313 45.2528 40.0991 41.0536 39.755C36.8545 39.411 32.6286 39.9636 28.6733 41.3739V35.8695C31.3155 34.6813 33.672 32.9698 35.5909 30.845C37.5099 28.7203 38.9489 26.2294 39.8153 23.5326L47.0296 24.0217ZM32.3945 91.2516C31.2348 90.419 29.9874 89.7079 28.6733 89.1301V45.2365C32.3461 43.6988 36.3442 43.0331 40.3355 43.2948C44.3269 43.5564 48.1962 44.7378 51.6222 46.7409C55.0483 48.744 57.9321 51.511 60.0343 54.812C62.1364 58.113 63.3962 61.8528 63.709 65.7208C64.0218 69.5888 63.3786 73.4733 61.8328 77.0518C60.2869 80.6303 57.8831 83.7995 54.8209 86.2961C51.7588 88.7928 48.1266 90.5448 44.2262 91.4068C40.3257 92.2687 36.2695 92.2157 32.3945 91.2521V91.2516ZM14.5161 32.9891C11.3439 31.8293 8.61013 29.7617 6.67722 27.0605C4.74431 24.3593 3.70357 21.1522 3.69298 17.8642C3.6834 15.375 4.27116 12.9178 5.40975 10.687C6.54834 8.45616 8.20653 6.51287 10.2532 5.01086L10.2281 11.7443C10.2269 12.0338 10.298 12.3192 10.4353 12.5761C10.5726 12.8331 10.7719 13.0541 11.0164 13.2201L19.3217 18.8555C19.6264 19.0623 19.9884 19.1751 20.3604 19.1793C20.7323 19.1835 21.0969 19.0787 21.4065 18.8788L29.6508 13.5845C29.9103 13.4231 30.1253 13.2029 30.2772 12.9428C30.4291 12.6827 30.5133 12.3906 30.5225 12.0918V5.02264C32.5355 6.54775 34.166 8.49541 35.2915 10.7193C36.4171 12.9432 37.0084 15.3856 37.0212 17.8629C37.0089 21.1515 35.9665 24.3589 34.0323 27.06C32.098 29.761 29.3632 31.8283 26.1901 32.9878C25.8356 33.1151 25.5295 33.3441 25.3124 33.6442C25.0954 33.9444 24.9776 34.3015 24.9749 34.6681V90.3315C24.9728 90.6961 25.0859 91.0525 25.2989 91.3529C25.5119 91.6533 25.8146 91.8832 26.1663 92.0117C30.297 93.5163 33.6445 96.5473 35.4754 100.441C37.3063 104.335 37.4713 108.773 35.9344 112.785C35.905 112.845 35.8793 112.907 35.8572 112.971C34.7524 115.757 32.8662 118.188 30.4116 119.99L30.4351 113.255C30.4361 112.965 30.3648 112.68 30.2273 112.423C30.0899 112.166 29.8903 111.945 29.6458 111.779L21.3407 106.144C21.0359 105.937 20.6739 105.824 20.302 105.82C19.9301 105.816 19.5655 105.921 19.2559 106.121L11.0319 111.415C10.7752 111.578 10.5634 111.799 10.4151 112.059C10.2668 112.319 10.1865 112.611 10.1813 112.908V119.977C8.16548 118.453 6.53169 116.506 5.40252 114.282C4.27336 112.058 3.67814 109.615 3.66154 107.137C3.676 103.847 4.72039 100.64 6.6564 97.9386C8.59241 95.2377 11.3287 93.1708 14.5029 92.0117C14.8586 91.885 15.1663 91.6565 15.3852 91.3565C15.6042 91.0565 15.724 90.699 15.7289 90.3315V34.6681C15.7267 34.3017 15.6095 33.9446 15.3928 33.6444C15.1761 33.3443 14.8703 33.1152 14.5161 32.9878V32.9891Z" fill="#009FE3"/>
</svg>
